<?xml version="1.0" encoding="UTF-8"?>
<!DOCTYPE svg PUBLIC "-//W3C//DTD SVG 1.1//EN" "http://www.w3.org/Graphics/SVG/1.1/DTD/svg11.dtd">
<!-- Creator: CorelDRAW 2018 (64 Bit) -->
<svg xmlns="http://www.w3.org/2000/svg" xml:space="preserve" width="162.56mm" height="91.4398mm" version="1.1" style="shape-rendering:geometricPrecision; text-rendering:geometricPrecision; image-rendering:optimizeQuality; fill-rule:evenodd; clip-rule:evenodd"
viewBox="0 0 16255.98 9143.98"
 xmlns:xlink="http://www.w3.org/1999/xlink">
 <defs>
  <style type="text/css">
   <![CDATA[
    .fil1 {fill:black}
    .fil2 {fill:black;fill-rule:nonzero}
    .fil0 {fill:url(#id0)}
   ]]>
  </style>
  <radialGradient id="id0" gradientUnits="userSpaceOnUse" gradientTransform="matrix(0.999999 -0 -4.92127E-06 1.03858 0 -176)" cx="8127.99" cy="4571.99" r="8128" fx="8127.99" fy="4571.99">
   <stop offset="0" style="stop-opacity:1; stop-color:white"/>
   <stop offset="1" style="stop-opacity:1; stop-color:#A1A1A1"/>
  </radialGradient>
 </defs>
 <g id="Camada_x0020_1">
  <metadata id="CorelCorpID_0Corel-Layer"/>
  <rect class="fil0" x="-0.01" y="-0.01" width="16255.99" height="9143.99"/>
  <path class="fil1" d="M7757.71 2794.6l740.56 0 59.94 712.56c72.46,15.27 143.51,34.36 212.97,56.97l408.14 -587.04 641.33 370.27 -304.54 647.43c54.6,49.12 106.56,101.09 155.68,155.68l647.43 -304.54 370.27 641.33 -587.04 408.14c22.62,69.46 41.68,140.51 56.97,212.97l712.56 59.94 0 740.55 -712.56 59.94c-15.27,72.47 -34.36,143.52 -56.97,212.98l587.04 408.14 -370.27 641.33 -647.43 -304.54c-49.12,54.59 -101.09,106.55 -155.68,155.68l304.54 647.43 -641.33 370.27 -408.14 -587.04c-72.29,23.54 -146.31,43.3 -221.84,58.9l-51.07 710.63 -740.55 0 -51.07 -710.63c-78.55,-16.19 -155.44,-36.91 -230.48,-61.7l-399.51 589.84 -641.33 -370.28 311.31 -641.42c-59.31,-52.9 -115.55,-109.15 -168.46,-168.45l-641.42 311.31 -370.27 -641.33 589.84 -399.51c-24.8,-75.03 -45.49,-151.94 -61.7,-230.48l-710.63 -51.07 0 -740.55 710.63 -51.07c16.19,-78.54 36.91,-155.44 61.7,-230.47l-589.84 -399.51 370.27 -641.33 641.43 311.31c52.9,-59.32 109.15,-115.55 168.45,-168.45l-311.31 -641.43 641.33 -370.27 399.51 589.84c72.19,-23.86 146.15,-43.85 221.6,-59.77l59.94 -712.56zm-1616.75 2518.39c0,247.91 243.08,281.38 243.08,459.88 0,61.98 -24.87,84.29 -64.44,84.29 -39.58,0 -64.45,-22.31 -64.45,-84.29l0 -68.18 -117.58 0 0 59.5c0,138.84 63.31,218.17 185.42,218.17 122.1,0 185.42,-79.33 185.42,-218.17 0,-247.91 -243.09,-281.38 -243.09,-459.88 0,-61.98 22.61,-85.54 62.19,-85.54 39.57,0 62.19,23.56 62.19,85.54l0 42.15 117.57 0 0 -33.47c0,-138.84 -62.18,-218.17 -183.15,-218.17 -120.98,0 -183.16,79.33 -183.16,218.17zm438.68 659.45l124.35 0 0 -867.7 -124.35 0 0 867.7zm401.36 -359.47l56.53 0 0 159.9c0,61.98 -24.88,84.29 -64.45,84.29 -39.57,0 -64.44,-22.31 -64.44,-84.29l0 -468.56c0,-61.98 24.87,-85.54 64.44,-85.54 39.57,0 64.45,23.56 64.45,85.54l0 92.97 117.58 0 0 -84.29c0,-138.84 -63.32,-218.17 -185.42,-218.17 -122.1,0 -185.41,79.33 -185.41,218.17l0 451.2c0,138.84 63.31,218.17 185.41,218.17 122.1,0 185.42,-79.33 185.42,-218.17l0 -275.19 -174.11 0 0 123.97zm378.74 -384.28l214.82 0 0 -123.95 -339.17 0 0 867.7 339.17 0 0 -123.95 -214.82 0 0 -254.12 170.73 0 0 -123.96 -170.73 0 0 -241.72zm416.06 0l204.65 0 0 -123.95 -329.01 0 0 867.7 124.36 0 0 -358.23 160.55 0 0 -123.97 -160.55 0 0 -261.55zm651.23 743.75c-12.43,-32.23 -13.57,-63.21 -13.57,-105.36l0 -133.88c0,-90.48 -20.34,-156.18 -82.53,-184.69 55.4,-28.51 81.4,-86.78 81.4,-176.02l0 -68.18c0,-133.88 -55.4,-199.57 -184.29,-199.57l-187.67 0 0 867.7 124.36 0 0 -353.27 42.96 0c56.53,0 81.41,29.74 81.41,110.31l0 136.36c0,70.65 4.52,84.29 11.3,106.6l126.63 0zm-202.38 -743.75c44.09,0 63.32,27.27 63.32,89.26l0 85.53c0,69.41 -28.27,91.72 -74.62,91.72l-48.62 0 0 -266.51 59.92 0zm384.41 75.62c0,-61.98 24.87,-85.54 64.44,-85.54 39.57,0 64.44,23.56 64.44,85.54l0 468.56c0,61.98 -24.87,85.53 -64.44,85.53 -39.57,0 -64.44,-23.55 -64.44,-85.53l0 -468.56zm-124.37 459.88c0,138.84 66.71,218.17 188.81,218.17 122.11,0 188.81,-79.33 188.81,-218.17l0 -451.2c0,-138.84 -66.7,-218.17 -188.81,-218.17 -122.1,0 -188.81,79.33 -188.81,218.17l0 451.2zm423.97 -535.5l130.02 0 0 743.75 124.37 0 0 -743.75 130.02 0 0 -123.95 -384.41 0 0 123.95zm673.84 -123.95l-182.03 0 -126.62 867.7 114.19 0 21.48 -157.42 152.63 0 21.48 157.42 125.49 0 -126.62 -867.7zm-97.23 153.7l59.92 438.81 -119.84 0 59.92 -438.81zm265.69 54.55c0,247.91 243.08,281.38 243.08,459.88 0,61.98 -24.88,84.29 -64.44,84.29 -39.58,0 -64.45,-22.31 -64.45,-84.29l0 -68.18 -117.58 0 0 59.5c0,138.84 63.31,218.17 185.42,218.17 122.1,0 185.41,-79.33 185.41,-218.17 0,-247.91 -243.07,-281.38 -243.07,-459.88 0,-61.98 22.6,-85.54 62.18,-85.54 39.57,0 62.18,23.56 62.18,85.54l0 42.15 117.58 0 0 -33.47c0,-138.84 -62.18,-218.17 -183.15,-218.17 -120.98,0 -183.16,79.33 -183.16,218.17zm-3221.06 860.35l3196.18 0c-252.55,635.26 -872.84,1084.38 -1598.09,1084.38 -725.25,0 -1345.54,-449.12 -1598.09,-1084.38zm3196.18 -1269.5l-3196.18 0c252.55,-635.26 872.84,-1084.38 1598.09,-1084.38 725.25,0 1345.54,449.12 1598.09,1084.38z"/>
  <path class="fil2" d="M7219.1 6588.57l19.21 -1.72c0.9,7.77 3.02,14.13 6.37,19.13 3.34,4.97 8.53,9 15.54,12.09 7.02,3.06 14.93,4.61 23.71,4.61 7.81,0 14.68,-1.15 20.65,-3.49 5.97,-2.34 10.4,-5.54 13.31,-9.61 2.92,-4.06 4.39,-8.49 4.39,-13.24 0,-4.82 -1.4,-9.03 -4.21,-12.66 -2.8,-3.6 -7.45,-6.62 -13.92,-9.1 -4.14,-1.59 -13.31,-4.1 -27.52,-7.52 -14.21,-3.42 -24.14,-6.62 -29.83,-9.64 -7.37,-3.89 -12.84,-8.71 -16.44,-14.43 -3.63,-5.72 -5.43,-12.16 -5.43,-19.25 0,-7.84 2.23,-15.14 6.65,-21.91 4.43,-6.8 10.87,-11.94 19.39,-15.47 8.5,-3.52 17.96,-5.29 28.35,-5.29 11.45,0 21.55,1.84 30.3,5.54 8.74,3.67 15.47,9.11 20.18,16.3 4.71,7.16 7.23,15.29 7.59,24.36l-19.64 1.51c-1.05,-9.75 -4.61,-17.13 -10.69,-22.09 -6.08,-5 -15.07,-7.48 -26.94,-7.48 -12.38,0 -21.41,2.26 -27.06,6.8 -5.65,4.53 -8.49,10 -8.49,16.4 0,5.54 2.02,10.11 6.01,13.71 3.96,3.56 14.21,7.27 30.83,11.01 16.62,3.77 28.03,7.05 34.21,9.85 8.96,4.14 15.62,9.36 19.9,15.73 4.28,6.33 6.4,13.63 6.4,21.91 0,8.23 -2.33,15.93 -7.05,23.2 -4.71,7.27 -11.44,12.92 -20.25,16.95 -8.82,4.03 -18.71,6.04 -29.76,6.04 -13.95,0 -25.65,-2.05 -35.07,-6.12 -9.46,-4.06 -16.84,-10.18 -22.2,-18.38 -5.4,-8.17 -8.2,-17.41 -8.49,-27.74z"/>
  <path id="1" class="fil2" d="M7367.4 6505.25l0 -21.59 18.99 0 0 21.59 -18.99 0zm0 132.97l0 -112.03 18.99 0 0 112.03 -18.99 0z"/>
  <path id="2" class="fil2" d="M7407.8 6604.76l18.78 -3.02c1.04,7.52 3.99,13.28 8.82,17.3 4.82,4 11.58,6.01 20.21,6.01 8.75,0 15.22,-1.76 19.47,-5.32 4.21,-3.53 6.33,-7.7 6.33,-12.49 0,-4.28 -1.91,-7.66 -5.68,-10.11 -2.67,-1.69 -9.14,-3.81 -19.43,-6.44 -13.89,-3.48 -23.49,-6.51 -28.89,-9.06 -5.36,-2.59 -9.43,-6.12 -12.2,-10.65 -2.77,-4.5 -4.17,-9.5 -4.17,-14.97 0,-5 1.15,-9.6 3.42,-13.85 2.3,-4.24 5.39,-7.77 9.32,-10.57 2.95,-2.16 6.97,-4 12.05,-5.51 5.11,-1.51 10.54,-2.27 16.37,-2.27 8.78,0 16.47,1.26 23.09,3.82 6.66,2.52 11.55,5.97 14.72,10.29 3.13,4.35 5.32,10.14 6.51,17.41l-18.56 2.59c-0.83,-5.83 -3.28,-10.4 -7.31,-13.67 -4.03,-3.27 -9.71,-4.89 -17.09,-4.89 -8.67,0 -14.89,1.44 -18.6,4.31 -3.7,2.88 -5.57,6.26 -5.57,10.11 0,2.45 0.75,4.68 2.3,6.66 1.55,2.01 3.96,3.7 7.27,5.04 1.9,0.71 7.44,2.33 16.73,4.85 13.38,3.56 22.73,6.51 28.06,8.78 5.32,2.27 9.5,5.61 12.52,9.93 3.06,4.35 4.57,9.75 4.57,16.23 0,6.29 -1.84,12.23 -5.54,17.8 -3.71,5.58 -9.03,9.9 -15.98,12.96 -6.98,3.05 -14.86,4.56 -23.63,4.56 -14.54,0 -25.65,-3.02 -33.28,-9.03 -7.63,-6.04 -12.49,-14.96 -14.61,-26.8z"/>
  <path id="3" class="fil2" d="M7564.52 6621.27l2.59 16.77c-5.33,1.12 -10.11,1.69 -14.29,1.69 -6.87,0 -12.19,-1.08 -16.01,-3.27 -3.77,-2.2 -6.44,-5.04 -7.98,-8.6 -1.55,-3.56 -2.31,-11.05 -2.31,-22.45l0 -64.54 -14.03 0 0 -14.68 14.03 0 0 -27.7 19 -11.41 0 39.11 19 0 0 14.68 -19 0 0 65.62c0,5.43 0.32,8.92 1.01,10.47 0.65,1.54 1.72,2.77 3.24,3.7 1.51,0.9 3.67,1.37 6.47,1.37 2.09,0 4.86,-0.25 8.28,-0.76z"/>
  <path id="4" class="fil2" d="M7659.67 6601.96l19.64 2.59c-3.05,11.4 -8.77,20.29 -17.12,26.58 -8.35,6.3 -19,9.46 -31.98,9.46 -16.34,0 -29.29,-5.03 -38.86,-15.11 -9.57,-10.03 -14.35,-24.17 -14.35,-42.34 0,-18.78 4.82,-33.39 14.5,-43.75 9.67,-10.4 22.23,-15.58 37.66,-15.58 14.93,0 27.13,5.08 36.59,15.26 9.46,10.18 14.21,24.5 14.21,42.95 0,1.12 -0.03,2.81 -0.11,5.04l-83.43 0c0.72,12.27 4.18,21.7 10.44,28.21 6.22,6.51 14.03,9.78 23.35,9.78 6.94,0 12.88,-1.83 17.77,-5.5 4.93,-3.67 8.81,-9.54 11.69,-17.59zm-62.17 -30.44l62.39 0c-0.83,-9.43 -3.24,-16.48 -7.16,-21.19 -6.01,-7.3 -13.85,-10.97 -23.46,-10.97 -8.71,0 -16.01,2.91 -21.94,8.74 -5.91,5.83 -9.18,13.63 -9.83,23.42z"/>
  <path id="5" class="fil2" d="M7703.31 6638.22l0 -112.03 17.05 0 0 15.83c3.49,-5.47 8.17,-9.9 13.99,-13.21 5.83,-3.34 12.45,-5 19.9,-5 8.27,0 15.07,1.73 20.36,5.15 5.29,3.45 9.03,8.24 11.19,14.43 8.92,-13.06 20.47,-19.58 34.72,-19.58 11.15,0 19.75,3.06 25.72,9.21 6.01,6.16 9.03,15.62 9.03,28.39l0 76.81 -18.99 0 0 -70.51c0,-7.56 -0.65,-13.03 -1.87,-16.37 -1.23,-3.35 -3.46,-6.01 -6.73,-8.06 -3.24,-2.05 -7.05,-3.06 -11.41,-3.06 -7.91,0 -14.46,2.63 -19.68,7.84 -5.21,5.26 -7.8,13.64 -7.8,25.15l0 65.01 -19 0 0 -72.71c0,-8.42 -1.55,-14.75 -4.64,-18.96 -3.09,-4.21 -8.17,-6.33 -15.18,-6.33 -5.33,0 -10.25,1.4 -14.79,4.21 -4.53,2.81 -7.8,6.91 -9.86,12.34 -2.01,5.4 -3.02,13.2 -3.02,23.38l0 58.07 -18.99 0z"/>
  <path id="6" class="fil2" d="M7956.29 6624.19c-7.05,6.01 -13.85,10.22 -20.36,12.7 -6.51,2.48 -13.49,3.7 -20.97,3.7 -12.31,0 -21.77,-2.98 -28.39,-8.99 -6.62,-5.97 -9.93,-13.63 -9.93,-22.95 0,-5.47 1.26,-10.47 3.74,-15.01 2.52,-4.53 5.79,-8.13 9.82,-10.86 4.07,-2.73 8.6,-4.82 13.68,-6.22 3.74,-0.98 9.39,-1.91 16.9,-2.85 15.33,-1.79 26.66,-3.99 33.89,-6.51 0.08,-2.59 0.11,-4.24 0.11,-4.93 0,-7.7 -1.8,-13.13 -5.39,-16.29 -4.86,-4.29 -12.09,-6.41 -21.66,-6.41 -8.96,0 -15.58,1.58 -19.83,4.71 -4.28,3.13 -7.41,8.68 -9.46,16.66l-18.56 -2.59c1.69,-7.95 4.46,-14.39 8.35,-19.28 3.88,-4.89 9.49,-8.64 16.83,-11.3 7.31,-2.62 15.83,-3.96 25.47,-3.96 9.57,0 17.38,1.12 23.39,3.39 5.97,2.26 10.4,5.07 13.2,8.49 2.81,3.41 4.79,7.73 5.94,12.95 0.61,3.24 0.93,9.06 0.93,17.45l0 25.18c0,17.59 0.4,28.71 1.19,33.42 0.76,4.72 2.34,9.21 4.64,13.53l-19.86 0c-1.9,-3.99 -3.13,-8.67 -3.67,-14.03zm-1.51 -42.09c-6.91,2.8 -17.27,5.18 -31.08,7.12 -7.84,1.12 -13.38,2.37 -16.62,3.78 -3.24,1.4 -5.72,3.45 -7.49,6.11 -1.76,2.7 -2.66,5.69 -2.66,9 0,5 1.91,9.21 5.76,12.55 3.85,3.35 9.46,5.04 16.84,5.04 7.3,0 13.81,-1.58 19.53,-4.78 5.68,-3.17 9.89,-7.52 12.56,-13.03 2.05,-4.28 3.05,-10.58 3.05,-18.89l0.11 -6.9z"/>
  <path id="7" class="fil2" d="M8135.45 6638.22l0 -14.21c-7.09,11.04 -17.52,16.58 -31.3,16.58 -8.92,0 -17.12,-2.44 -24.57,-7.37 -7.49,-4.89 -13.28,-11.77 -17.41,-20.54 -4.11,-8.82 -6.16,-18.93 -6.16,-30.37 0,-11.15 1.87,-21.26 5.58,-30.36 3.74,-9.07 9.32,-16.05 16.76,-20.87 7.42,-4.86 15.76,-7.27 24.94,-7.27 6.76,0 12.77,1.44 18.02,4.29 5.25,2.84 9.53,6.58 12.84,11.15l0 -55.59 19 0 0 154.56 -17.7 0zm-60.01 -55.87c0,14.32 3.02,25 9.1,32.09 6.05,7.09 13.21,10.61 21.44,10.61 8.32,0 15.37,-3.38 21.2,-10.14 5.79,-6.77 8.7,-17.09 8.7,-30.98 0,-15.25 -2.95,-26.48 -8.88,-33.64 -5.9,-7.16 -13.21,-10.72 -21.88,-10.72 -8.45,0 -15.5,3.42 -21.19,10.29 -5.65,6.87 -8.49,17.7 -8.49,32.49z"/>
  <path id="8" class="fil2" d="M8259.6 6601.96l19.64 2.59c-3.05,11.4 -8.77,20.29 -17.12,26.58 -8.35,6.3 -19,9.46 -31.98,9.46 -16.34,0 -29.29,-5.03 -38.86,-15.11 -9.57,-10.03 -14.35,-24.17 -14.35,-42.34 0,-18.78 4.82,-33.39 14.5,-43.75 9.67,-10.4 22.23,-15.58 37.66,-15.58 14.93,0 27.13,5.08 36.59,15.26 9.46,10.18 14.21,24.5 14.21,42.95 0,1.12 -0.03,2.81 -0.11,5.04l-83.43 0c0.72,12.27 4.18,21.7 10.44,28.21 6.22,6.51 14.03,9.78 23.35,9.78 6.94,0 12.88,-1.83 17.77,-5.5 4.93,-3.67 8.81,-9.54 11.69,-17.59zm-62.17 -30.44l62.39 0c-0.83,-9.43 -3.24,-16.48 -7.16,-21.19 -6.01,-7.3 -13.85,-10.97 -23.46,-10.97 -8.71,0 -16.01,2.91 -21.94,8.74 -5.91,5.83 -9.18,13.63 -9.83,23.42z"/>
  <path id="9" class="fil2" d="M8437.89 6577.56l0 -18.13 65.41 0 0 57.28c-10.04,7.98 -20.4,14.03 -31.08,18.06 -10.69,4.03 -21.66,6.04 -32.89,6.04 -15.18,0 -28.96,-3.24 -41.37,-9.75 -12.38,-6.48 -21.77,-15.9 -28.06,-28.17 -6.33,-12.3 -9.5,-26.05 -9.5,-41.19 0,-15.04 3.13,-29.07 9.43,-42.13 6.29,-13.02 15.32,-22.7 27.12,-29 11.8,-6.33 25.4,-9.5 40.8,-9.5 11.15,0 21.26,1.8 30.29,5.44 9.03,3.63 16.12,8.67 21.23,15.11 5.14,6.47 9.03,14.93 11.69,25.32l-18.45 5.04c-2.34,-7.84 -5.22,-14.03 -8.64,-18.56 -3.45,-4.5 -8.35,-8.1 -14.75,-10.8 -6.37,-2.69 -13.45,-4.06 -21.26,-4.06 -9.32,0 -17.38,1.44 -24.21,4.28 -6.8,2.84 -12.27,6.58 -16.48,11.26 -4.17,4.64 -7.41,9.75 -9.71,15.29 -3.93,9.61 -5.91,19.97 -5.91,31.16 0,13.81 2.38,25.36 7.09,34.68 4.75,9.28 11.66,16.19 20.69,20.68 9.06,4.5 18.67,6.77 28.85,6.77 8.85,0 17.49,-1.73 25.91,-5.15 8.41,-3.45 14.78,-7.08 19.13,-11.01l0 -28.96 -45.33 0z"/>
  <path id="10" class="fil2" d="M8607.52 6601.96l19.64 2.59c-3.05,11.4 -8.77,20.29 -17.12,26.58 -8.35,6.3 -19,9.46 -31.98,9.46 -16.34,0 -29.29,-5.03 -38.86,-15.11 -9.57,-10.03 -14.35,-24.17 -14.35,-42.34 0,-18.78 4.82,-33.39 14.5,-43.75 9.67,-10.4 22.23,-15.58 37.66,-15.58 14.93,0 27.13,5.08 36.59,15.26 9.46,10.18 14.21,24.5 14.21,42.95 0,1.12 -0.03,2.81 -0.11,5.04l-83.43 0c0.72,12.27 4.18,21.7 10.44,28.21 6.22,6.51 14.03,9.78 23.35,9.78 6.94,0 12.88,-1.83 17.77,-5.5 4.93,-3.67 8.81,-9.54 11.69,-17.59zm-62.17 -30.44l62.39 0c-0.83,-9.43 -3.24,-16.48 -7.16,-21.19 -6.01,-7.3 -13.85,-10.97 -23.46,-10.97 -8.71,0 -16.01,2.91 -21.94,8.74 -5.91,5.83 -9.18,13.63 -9.83,23.42z"/>
  <path id="11" class="fil2" d="M8643.6 6604.76l18.78 -3.02c1.04,7.52 3.99,13.28 8.82,17.3 4.82,4 11.58,6.01 20.21,6.01 8.75,0 15.22,-1.76 19.47,-5.32 4.21,-3.53 6.33,-7.7 6.33,-12.49 0,-4.28 -1.91,-7.66 -5.68,-10.11 -2.67,-1.69 -9.14,-3.81 -19.43,-6.44 -13.89,-3.48 -23.49,-6.51 -28.89,-9.06 -5.36,-2.59 -9.43,-6.12 -12.2,-10.65 -2.77,-4.5 -4.17,-9.5 -4.17,-14.97 0,-5 1.15,-9.6 3.42,-13.85 2.3,-4.24 5.39,-7.77 9.32,-10.57 2.95,-2.16 6.97,-4 12.05,-5.51 5.11,-1.51 10.54,-2.27 16.37,-2.27 8.78,0 16.47,1.26 23.09,3.82 6.66,2.52 11.55,5.97 14.72,10.29 3.13,4.35 5.32,10.14 6.51,17.41l-18.56 2.59c-0.83,-5.83 -3.28,-10.4 -7.31,-13.67 -4.03,-3.27 -9.71,-4.89 -17.09,-4.89 -8.67,0 -14.89,1.44 -18.6,4.31 -3.7,2.88 -5.57,6.26 -5.57,10.11 0,2.45 0.75,4.68 2.3,6.66 1.55,2.01 3.96,3.7 7.27,5.04 1.9,0.71 7.44,2.33 16.73,4.85 13.38,3.56 22.73,6.51 28.06,8.78 5.32,2.27 9.5,5.61 12.52,9.93 3.06,4.35 4.57,9.75 4.57,16.23 0,6.29 -1.84,12.23 -5.54,17.8 -3.71,5.58 -9.03,9.9 -15.98,12.96 -6.98,3.05 -14.86,4.56 -23.63,4.56 -14.54,0 -25.65,-3.02 -33.28,-9.03 -7.63,-6.04 -12.49,-14.96 -14.61,-26.8z"/>
  <path id="12" class="fil2" d="M8800.32 6621.27l2.59 16.77c-5.33,1.12 -10.11,1.69 -14.29,1.69 -6.87,0 -12.19,-1.08 -16.01,-3.27 -3.77,-2.2 -6.44,-5.04 -7.98,-8.6 -1.55,-3.56 -2.31,-11.05 -2.31,-22.45l0 -64.54 -14.03 0 0 -14.68 14.03 0 0 -27.7 19 -11.41 0 39.11 19 0 0 14.68 -19 0 0 65.62c0,5.43 0.32,8.92 1.01,10.47 0.65,1.54 1.72,2.77 3.24,3.7 1.51,0.9 3.67,1.37 6.47,1.37 2.09,0 4.86,-0.25 8.28,-0.76z"/>
  <path id="13" class="fil2" d="M8892.23 6624.19c-7.05,6.01 -13.85,10.22 -20.36,12.7 -6.51,2.48 -13.49,3.7 -20.97,3.7 -12.31,0 -21.77,-2.98 -28.39,-8.99 -6.62,-5.97 -9.93,-13.63 -9.93,-22.95 0,-5.47 1.26,-10.47 3.74,-15.01 2.52,-4.53 5.79,-8.13 9.82,-10.86 4.07,-2.73 8.6,-4.82 13.68,-6.22 3.74,-0.98 9.39,-1.91 16.9,-2.85 15.33,-1.79 26.66,-3.99 33.89,-6.51 0.08,-2.59 0.11,-4.24 0.11,-4.93 0,-7.7 -1.8,-13.13 -5.39,-16.29 -4.86,-4.29 -12.09,-6.41 -21.66,-6.41 -8.96,0 -15.58,1.58 -19.83,4.71 -4.28,3.13 -7.41,8.68 -9.46,16.66l-18.56 -2.59c1.69,-7.95 4.46,-14.39 8.35,-19.28 3.88,-4.89 9.49,-8.64 16.83,-11.3 7.31,-2.62 15.83,-3.96 25.47,-3.96 9.57,0 17.38,1.12 23.39,3.39 5.97,2.26 10.4,5.07 13.2,8.49 2.81,3.41 4.79,7.73 5.94,12.95 0.61,3.24 0.93,9.06 0.93,17.45l0 25.18c0,17.59 0.4,28.71 1.19,33.42 0.76,4.72 2.34,9.21 4.64,13.53l-19.86 0c-1.9,-3.99 -3.13,-8.67 -3.67,-14.03zm-1.51 -42.09c-6.91,2.8 -17.27,5.18 -31.08,7.12 -7.84,1.12 -13.38,2.37 -16.62,3.78 -3.24,1.4 -5.72,3.45 -7.49,6.11 -1.76,2.7 -2.66,5.69 -2.66,9 0,5 1.91,9.21 5.76,12.55 3.85,3.35 9.46,5.04 16.84,5.04 7.3,0 13.81,-1.58 19.53,-4.78 5.68,-3.17 9.89,-7.52 12.56,-13.03 2.05,-4.28 3.05,-10.58 3.05,-18.89l0.11 -6.9zm-61.73 -69.51c-0.08,-7.23 1.94,-12.99 6,-17.31 4,-4.28 9.14,-6.44 15.4,-6.44 4.36,0 10.29,1.84 17.77,5.55 4.14,2.05 7.45,3.09 9.9,3.09 2.27,0 3.99,-0.61 5.18,-1.84 1.19,-1.18 2.01,-3.63 2.52,-7.23l13.6 0c-0.22,7.99 -2.23,13.96 -6.05,17.96 -3.81,3.99 -8.63,6 -14.53,6 -4.39,0 -10.22,-1.98 -17.41,-5.9 -4.72,-2.55 -8.17,-3.81 -10.37,-3.81 -2.37,0 -4.31,0.83 -5.75,2.52 -1.55,1.65 -2.3,4.14 -2.23,7.41l-14.03 0z"/>
  <path id="14" class="fil2" d="M8931.98 6582.2c0,-20.68 5.76,-36.01 17.31,-45.97 9.6,-8.28 21.37,-12.42 35.22,-12.42 15.36,0 27.95,5.04 37.74,15.11 9.75,10.04 14.64,23.96 14.64,41.7 0,14.39 -2.16,25.69 -6.47,33.93 -4.32,8.24 -10.62,14.64 -18.89,19.21 -8.24,4.57 -17.27,6.83 -27.02,6.83 -15.69,0 -28.35,-5 -38.03,-15.03 -9.68,-10.04 -14.5,-24.5 -14.5,-43.36zm19.43 0.04c0,14.32 3.13,25.04 9.39,32.13 6.3,7.12 14.18,10.68 23.71,10.68 9.43,0 17.27,-3.56 23.56,-10.72 6.26,-7.16 9.39,-18.06 9.39,-32.7 0,-13.82 -3.16,-24.29 -9.46,-31.37 -6.29,-7.13 -14.14,-10.69 -23.49,-10.69 -9.53,0 -17.41,3.53 -23.71,10.62 -6.26,7.08 -9.39,17.77 -9.39,32.05z"/>
  <path id="15" class="fil2" d="M7757.7 6879.38l0 -14.21c-7.09,11.04 -17.52,16.58 -31.3,16.58 -8.92,0 -17.12,-2.44 -24.57,-7.37 -7.49,-4.89 -13.28,-11.77 -17.41,-20.54 -4.11,-8.82 -6.16,-18.93 -6.16,-30.37 0,-11.15 1.87,-21.26 5.58,-30.36 3.74,-9.07 9.32,-16.05 16.76,-20.87 7.42,-4.86 15.76,-7.27 24.94,-7.27 6.76,0 12.77,1.44 18.02,4.29 5.25,2.84 9.53,6.58 12.84,11.15l0 -55.59 19 0 0 154.56 -17.7 0zm-60.01 -55.87c0,14.32 3.02,25 9.1,32.09 6.05,7.09 13.21,10.61 21.44,10.61 8.32,0 15.37,-3.38 21.2,-10.14 5.79,-6.77 8.7,-17.09 8.7,-30.98 0,-15.25 -2.95,-26.48 -8.88,-33.64 -5.9,-7.16 -13.21,-10.72 -21.88,-10.72 -8.45,0 -15.5,3.42 -21.19,10.29 -5.65,6.87 -8.49,17.7 -8.49,32.49z"/>
  <path id="16" class="fil2" d="M7881.85 6843.12l19.64 2.59c-3.05,11.4 -8.77,20.29 -17.12,26.58 -8.35,6.3 -19,9.46 -31.98,9.46 -16.34,0 -29.29,-5.03 -38.86,-15.11 -9.57,-10.03 -14.35,-24.17 -14.35,-42.34 0,-18.78 4.82,-33.39 14.5,-43.75 9.67,-10.4 22.23,-15.58 37.66,-15.58 14.93,0 27.13,5.08 36.59,15.26 9.46,10.18 14.21,24.5 14.21,42.95 0,1.12 -0.03,2.81 -0.11,5.04l-83.43 0c0.72,12.27 4.18,21.7 10.44,28.21 6.22,6.51 14.03,9.78 23.35,9.78 6.94,0 12.88,-1.83 17.77,-5.5 4.93,-3.67 8.81,-9.54 11.69,-17.59zm-62.17 -30.44l62.39 0c-0.83,-9.43 -3.24,-16.48 -7.16,-21.19 -6.01,-7.3 -13.85,-10.97 -23.46,-10.97 -8.71,0 -16.01,2.91 -21.94,8.74 -5.91,5.83 -9.18,13.63 -9.83,23.42z"/>
  <polygon id="17" class="fil2" points="7988.91,6879.38 7988.91,6724.82 8093.17,6724.82 8093.17,6742.96 8009.42,6742.96 8009.42,6791.09 8081.95,6791.09 8081.95,6809.23 8009.42,6809.23 8009.42,6879.38 "/>
  <path id="18" class="fil2" d="M8117.09 6879.38l0 -112.03 17.05 0 0 17.16c4.36,-7.95 8.39,-13.2 12.09,-15.72 3.71,-2.56 7.77,-3.82 12.2,-3.82 6.4,0 12.91,2.02 19.53,6.01l-6.76 17.52c-4.61,-2.59 -9.21,-3.88 -13.82,-3.88 -4.13,0 -7.84,1.26 -11.11,3.74 -3.28,2.48 -5.61,5.94 -7.02,10.36 -2.12,6.73 -3.16,14.1 -3.16,22.13l0 58.53 -19 0z"/>
  <path id="19" class="fil2" d="M8182.06 6823.36c0,-20.68 5.76,-36.01 17.31,-45.97 9.6,-8.28 21.37,-12.42 35.22,-12.42 15.36,0 27.95,5.04 37.74,15.11 9.75,10.04 14.64,23.96 14.64,41.7 0,14.39 -2.16,25.69 -6.47,33.93 -4.32,8.24 -10.62,14.64 -18.89,19.21 -8.24,4.57 -17.27,6.83 -27.02,6.83 -15.69,0 -28.35,-5 -38.03,-15.03 -9.68,-10.04 -14.5,-24.5 -14.5,-43.36zm19.43 0.04c0,14.32 3.13,25.04 9.39,32.13 6.3,7.12 14.18,10.68 23.71,10.68 9.43,0 17.27,-3.56 23.56,-10.72 6.26,-7.16 9.39,-18.06 9.39,-32.7 0,-13.82 -3.16,-24.29 -9.46,-31.37 -6.29,-7.13 -14.14,-10.69 -23.49,-10.69 -9.53,0 -17.41,3.53 -23.71,10.62 -6.26,7.08 -9.39,17.77 -9.39,32.05z"/>
  <path id="20" class="fil2" d="M8350.47 6862.43l2.59 16.77c-5.33,1.12 -10.11,1.69 -14.29,1.69 -6.87,0 -12.19,-1.08 -16.01,-3.27 -3.77,-2.2 -6.44,-5.04 -7.98,-8.6 -1.55,-3.56 -2.31,-11.05 -2.31,-22.45l0 -64.54 -14.03 0 0 -14.68 14.03 0 0 -27.7 19 -11.41 0 39.11 19 0 0 14.68 -19 0 0 65.62c0,5.43 0.32,8.92 1.01,10.47 0.65,1.54 1.72,2.77 3.24,3.7 1.51,0.9 3.67,1.37 6.47,1.37 2.09,0 4.86,-0.25 8.28,-0.76z"/>
  <path id="21" class="fil2" d="M8442.38 6865.35c-7.05,6.01 -13.85,10.22 -20.36,12.7 -6.51,2.48 -13.49,3.7 -20.97,3.7 -12.31,0 -21.77,-2.98 -28.39,-8.99 -6.62,-5.97 -9.93,-13.63 -9.93,-22.95 0,-5.47 1.26,-10.47 3.74,-15.01 2.52,-4.53 5.79,-8.13 9.82,-10.86 4.07,-2.73 8.6,-4.82 13.68,-6.22 3.74,-0.98 9.39,-1.91 16.9,-2.85 15.33,-1.79 26.66,-3.99 33.89,-6.51 0.08,-2.59 0.11,-4.24 0.11,-4.93 0,-7.7 -1.8,-13.13 -5.39,-16.29 -4.86,-4.29 -12.09,-6.41 -21.66,-6.41 -8.96,0 -15.58,1.58 -19.83,4.71 -4.28,3.13 -7.41,8.68 -9.46,16.66l-18.56 -2.59c1.69,-7.95 4.46,-14.39 8.35,-19.28 3.88,-4.89 9.49,-8.64 16.83,-11.3 7.31,-2.62 15.83,-3.96 25.47,-3.96 9.57,0 17.38,1.12 23.39,3.39 5.97,2.26 10.4,5.07 13.2,8.49 2.81,3.41 4.79,7.73 5.94,12.95 0.61,3.24 0.93,9.06 0.93,17.45l0 25.18c0,17.59 0.4,28.71 1.19,33.42 0.76,4.72 2.34,9.21 4.64,13.53l-19.86 0c-1.9,-3.99 -3.13,-8.67 -3.67,-14.03zm-1.51 -42.09c-6.91,2.8 -17.27,5.18 -31.08,7.12 -7.84,1.12 -13.38,2.37 -16.62,3.78 -3.24,1.4 -5.72,3.45 -7.49,6.11 -1.76,2.7 -2.66,5.69 -2.66,9 0,5 1.91,9.21 5.76,12.55 3.85,3.35 9.46,5.04 16.84,5.04 7.3,0 13.81,-1.58 19.53,-4.78 5.68,-3.17 9.89,-7.52 12.56,-13.03 2.05,-4.28 3.05,-10.58 3.05,-18.89l0.11 -6.9z"/>
  <path id="22" class="fil2" d="M8481.7 6845.92l18.78 -3.02c1.04,7.52 3.99,13.28 8.82,17.3 4.82,4 11.58,6.01 20.21,6.01 8.75,0 15.22,-1.76 19.47,-5.32 4.21,-3.53 6.33,-7.7 6.33,-12.49 0,-4.28 -1.91,-7.66 -5.68,-10.11 -2.67,-1.69 -9.14,-3.81 -19.43,-6.44 -13.89,-3.48 -23.49,-6.51 -28.89,-9.06 -5.36,-2.59 -9.43,-6.12 -12.2,-10.65 -2.77,-4.5 -4.17,-9.5 -4.17,-14.97 0,-5 1.15,-9.6 3.42,-13.85 2.3,-4.24 5.39,-7.77 9.32,-10.57 2.95,-2.16 6.97,-4 12.05,-5.51 5.11,-1.51 10.54,-2.27 16.37,-2.27 8.78,0 16.47,1.26 23.09,3.82 6.66,2.52 11.55,5.97 14.72,10.29 3.13,4.35 5.32,10.14 6.51,17.41l-18.56 2.59c-0.83,-5.83 -3.28,-10.4 -7.31,-13.67 -4.03,-3.27 -9.71,-4.89 -17.09,-4.89 -8.67,0 -14.89,1.44 -18.6,4.31 -3.7,2.88 -5.57,6.26 -5.57,10.11 0,2.45 0.75,4.68 2.3,6.66 1.55,2.01 3.96,3.7 7.27,5.04 1.9,0.71 7.44,2.33 16.73,4.85 13.38,3.56 22.73,6.51 28.06,8.78 5.32,2.27 9.5,5.61 12.52,9.93 3.06,4.35 4.57,9.75 4.57,16.23 0,6.29 -1.84,12.23 -5.54,17.8 -3.71,5.58 -9.03,9.9 -15.98,12.96 -6.98,3.05 -14.86,4.56 -23.63,4.56 -14.54,0 -25.65,-3.02 -33.28,-9.03 -7.63,-6.04 -12.49,-14.96 -14.61,-26.8z"/>
  <circle class="fil1" cx="7082.58" cy="6563.43" r="50.12"/>
  <circle class="fil1" cx="9173.4" cy="6563.43" r="50.12"/>
 </g>
</svg>
