<?xml version="1.0" encoding="UTF-8"?>
<!DOCTYPE svg PUBLIC "-//W3C//DTD SVG 1.1//EN" "http://www.w3.org/Graphics/SVG/1.1/DTD/svg11.dtd">
<!-- Creator: CorelDRAW 2018 (64 Bit) -->
<svg xmlns="http://www.w3.org/2000/svg" xml:space="preserve" width="50.7998mm" height="50.7998mm" version="1.1" style="shape-rendering:geometricPrecision; text-rendering:geometricPrecision; image-rendering:optimizeQuality; fill-rule:evenodd; clip-rule:evenodd"
viewBox="0 0 5079.98 5079.98"
 xmlns:xlink="http://www.w3.org/1999/xlink">
 <defs>
  <style type="text/css">
   <![CDATA[
    .fil0 {fill:black}
    .fil1 {fill:white}
    .fil2 {fill:white;fill-rule:nonzero}
   ]]>
  </style>
 </defs>
 <g id="Camada_x0020_1">
  <metadata id="CorelCorpID_0Corel-Layer"/>
  <g id="_2228220056688">
   <rect class="fil0" x="-555.64" y="1860.89" width="6191.26" height="1358.19" rx="762" ry="762"/>
   <path class="fil1" d="M287 2716.86l-70.8 0 -2.21 -55.84c-5.83,-1.08 -11.61,-2.39 -17.31,-3.92 -5.68,-1.52 -11.34,-3.28 -16.94,-5.27l-29.84 47.25 -68.32 -39.45 26.04 -49.5c-4.55,-3.89 -8.9,-7.9 -13.02,-12.02 -4.17,-4.21 -8.18,-8.54 -12.02,-13.02l-49.5 26.01 -39.44 -68.32 47.23 -29.82c-1.99,-5.61 -3.75,-11.27 -5.28,-16.97 -1.52,-5.68 -2.83,-11.45 -3.91,-17.27l-55.84 -2.22 0 -78.88 55.84 -2.21c1.08,-5.84 2.39,-11.61 3.92,-17.31 1.52,-5.68 3.28,-11.34 5.27,-16.94l-47.24 -29.83 39.44 -68.32 49.51 26.03c3.84,-4.49 7.86,-8.84 12.05,-13.02 4.1,-4.13 8.44,-8.14 12.99,-12.02l-26.03 -49.5 68.33 -39.44 29.82 47.23c5.61,-1.99 11.27,-3.75 16.97,-5.28 5.69,-1.52 11.45,-2.83 17.28,-3.91l2.21 -55.83 78.88 0 2.21 55.83c5.85,1.09 11.62,2.4 17.33,3.92 5.68,1.52 11.33,3.28 16.93,5.27l29.83 -47.25 68.31 39.45 -26.02 49.51c4.55,3.88 8.89,7.89 13.01,12.01 4.17,4.2 8.19,8.54 12.03,13.03l49.5 -26.03 39.44 68.32 -47.24 29.83c1.99,5.61 3.76,11.27 5.28,16.96 1.52,5.7 2.83,11.46 3.91,17.29l55.84 2.21 0 78.88 -55.84 2.22c-1.08,5.83 -2.39,11.61 -3.91,17.31 -1.53,5.68 -3.29,11.34 -5.27,16.94l47.22 29.81 -39.45 68.32 -49.48 -26.01c-3.9,4.55 -7.91,8.91 -12.04,13.03 -4.2,4.17 -8.53,8.17 -13.01,12.01l26.03 49.5 -68.31 39.45 -29.83 -47.25c-5.61,1.99 -11.26,3.75 -16.95,5.27 -5.7,1.53 -11.47,2.84 -17.31,3.92l-2.21 55.84 -8.08 0zm707.69 69.05l-96.71 0 -2.88 -72.74c-6.04,-1.22 -12.02,-2.63 -17.95,-4.22 -5.9,-1.57 -11.79,-3.36 -17.65,-5.33l-38.86 61.52 -97.77 -56.44 33.9 -64.47c-4.67,-4.11 -9.15,-8.32 -13.43,-12.6 -4.28,-4.28 -8.48,-8.76 -12.59,-13.43l-64.48 33.9 -56.45 -97.78 61.54 -38.84c-1.98,-5.88 -3.77,-11.77 -5.35,-17.68 -1.59,-5.92 -2.99,-11.9 -4.21,-17.94l-72.74 -2.88 0 -112.87 72.74 -2.88c1.22,-6.03 2.63,-12.02 4.21,-17.95 1.58,-5.9 3.36,-11.79 5.34,-17.66l-61.53 -38.85 56.45 -97.76 64.49 33.89c4.05,-4.58 8.25,-9.04 12.58,-13.37l0 -0.06c4.28,-4.28 8.76,-8.49 13.43,-12.6l-33.88 -64.44 97.77 -56.45 38.84 61.5c5.87,-1.98 11.76,-3.76 17.67,-5.34 5.92,-1.59 11.9,-2.99 17.93,-4.21l2.88 -72.74 112.87 0 2.89 72.74c6.04,1.22 12.03,2.63 17.96,4.21 5.9,1.58 11.79,3.36 17.65,5.34l38.83 -61.5 97.77 56.45 -33.88 64.44c4.67,4.11 9.15,8.32 13.43,12.6 4.28,4.28 8.49,8.76 12.6,13.42l64.47 -33.88 56.44 97.76 -61.52 38.85c1.98,5.88 3.76,11.78 5.34,17.69 1.59,5.91 2.99,11.89 4.21,17.92l72.74 2.88 0 112.87 -72.74 2.88c-1.22,6.04 -2.63,12.03 -4.21,17.96 -1.58,5.9 -3.36,11.79 -5.34,17.66l61.52 38.85 -56.44 97.77 -64.49 -33.91c-4.05,4.59 -8.25,9.05 -12.58,13.38l-0.07 0.07c-4.32,4.32 -8.78,8.52 -13.36,12.57l33.88 64.46 -97.77 56.44 -38.84 -61.49c-5.87,1.98 -11.77,3.76 -17.68,5.34 -5.91,1.59 -11.89,2.99 -17.92,4.21l-2.89 72.74 -16.16 0zm-40.27 -168.89c54.26,0 103.38,-21.99 138.93,-57.54 35.55,-35.55 57.55,-84.68 57.55,-138.93 0,-54.26 -22,-103.38 -57.55,-138.93 -35.55,-35.55 -84.67,-57.55 -138.93,-57.55 -54.26,0 -103.38,22 -138.93,57.55 -35.55,35.55 -57.55,84.67 -57.55,138.93 0,54.25 22,103.38 57.55,138.93 35.55,35.55 84.67,57.54 138.93,57.54zm-409.84 457.08l-50.27 0 -1.64 -41.42c-5.09,-0.87 -10.11,-1.97 -15.04,-3.29 -4.97,-1.33 -9.89,-2.9 -14.72,-4.68l-22.12 35.04 -46.34 -26.76 19.31 -36.71c-3.98,-3.31 -7.78,-6.78 -11.38,-10.38 -3.6,-3.6 -7.07,-7.41 -10.39,-11.39l-36.72 19.3 -26.75 -46.33 35.04 -22.13c-1.79,-4.83 -3.35,-9.74 -4.68,-14.71 -1.32,-4.93 -2.42,-9.95 -3.29,-15.05l-41.42 -1.64 0 -53.5 41.42 -1.64c0.87,-5.09 1.97,-10.12 3.29,-15.04 1.33,-4.97 2.89,-9.89 4.68,-14.72l-35.04 -22.12 26.75 -46.34 36.72 19.3c3.31,-3.98 6.78,-7.78 10.38,-11.38 3.61,-3.6 7.41,-7.07 11.39,-10.38l-19.31 -36.72 46.34 -26.76 22.12 35.05c4.83,-1.79 9.75,-3.36 14.72,-4.69 4.93,-1.31 9.95,-2.42 15.04,-3.28l1.64 -41.42 53.5 0 1.65 41.42c5.1,0.87 10.13,1.97 15.07,3.29 4.96,1.33 9.86,2.89 14.69,4.68l22.12 -35.04 46.34 26.75 -19.31 36.72c3.95,3.29 7.76,6.76 11.39,10.4 3.61,3.59 7.07,7.39 10.38,11.36l36.71 -19.3 26.75 46.34 -35.03 22.12c1.79,4.83 3.35,9.74 4.68,14.71 1.32,4.92 2.42,9.95 3.29,15.05l41.42 1.64 0 53.5 -41.42 1.64c-0.87,5.11 -1.97,10.14 -3.29,15.07 -1.33,4.96 -2.89,9.87 -4.68,14.69l35.03 22.12 -26.75 46.34 -36.71 -19.3c-3.32,3.98 -6.78,7.79 -10.39,11.39 -3.6,3.6 -7.4,7.07 -11.38,10.38l19.31 36.71 -46.34 26.76 -22.12 -35.04c-4.83,1.78 -9.75,3.35 -14.72,4.68 -4.92,1.32 -9.95,2.42 -15.04,3.29l-1.65 41.42 -3.23 0zm-23.51 -85.67c33.47,0 63.78,-13.57 85.72,-35.5 21.93,-21.94 35.5,-52.25 35.5,-85.73 0,-33.47 -13.57,-63.79 -35.5,-85.72 -21.94,-21.94 -52.25,-35.51 -85.72,-35.51 -33.48,0 -63.79,13.57 -85.73,35.51 -21.93,21.93 -35.5,52.25 -35.5,85.72 0,33.48 13.57,63.79 35.5,85.73 21.94,21.93 52.25,35.5 85.73,35.5zm-265.43 -393.67c43.55,0 82.98,-17.66 111.51,-46.19 28.54,-28.53 46.19,-67.96 46.19,-111.51 0,-43.54 -17.65,-82.97 -46.19,-111.51 -28.53,-28.53 -67.96,-46.19 -111.51,-46.19 -43.54,0 -82.97,17.66 -111.51,46.19 -28.53,28.54 -46.19,67.96 -46.19,111.51 0,43.55 17.66,82.98 46.19,111.51 28.54,28.53 67.97,46.19 111.51,46.19z"/>
   <path class="fil2" d="M1814.21 2575.35l70.25 21.18c-4.7,19.68 -12.13,36.15 -22.33,49.31 -10.14,13.22 -22.69,23.18 -37.78,29.88 -15.03,6.7 -34.16,10.08 -57.4,10.08 -28.24,0 -51.24,-4.11 -69.16,-12.26 -17.87,-8.2 -33.26,-22.63 -46.24,-43.21 -12.97,-20.58 -19.49,-47.02 -19.49,-79.13 0,-42.85 11.41,-75.8 34.22,-98.86 22.88,-22.99 55.17,-34.52 96.93,-34.52 32.65,0 58.36,6.58 77.07,19.8 18.65,13.21 32.6,33.49 41.65,60.89l-70.62 15.64c-2.47,-7.85 -5.07,-13.58 -7.78,-17.21 -4.53,-6.09 -10.02,-10.8 -16.48,-14.06 -6.52,-3.32 -13.76,-4.95 -21.79,-4.95 -18.22,0 -32.17,7.31 -41.82,21.85 -7.31,10.8 -10.99,27.83 -10.99,50.94 0,28.73 4.35,48.35 13.1,59.03 8.75,10.62 21,15.93 36.82,15.93 15.33,0 26.91,-4.28 34.76,-12.91 7.85,-8.57 13.52,-21.07 17.08,-37.42z"/>
   <path id="1" class="fil2" d="M1913.02 2551.99c0,-42.31 11.77,-75.26 35.36,-98.8 23.6,-23.6 56.44,-35.37 98.56,-35.37 43.16,0 76.41,11.59 99.77,34.7 23.36,23.18 35.01,55.65 35.01,97.36 0,30.29 -5.07,55.1 -15.27,74.47 -10.2,19.38 -24.99,34.47 -44.24,45.27 -19.32,10.8 -43.34,16.18 -72.13,16.18 -29.21,0 -53.41,-4.65 -72.61,-13.95 -19.13,-9.35 -34.7,-24.08 -46.59,-44.24 -11.89,-20.09 -17.86,-45.32 -17.86,-75.62zm80.03 0.18c0,26.13 4.89,44.96 14.6,56.37 9.78,11.41 23.06,17.14 39.84,17.14 17.2,0 30.6,-5.61 40.01,-16.78 9.48,-11.22 14.19,-31.26 14.19,-60.29 0,-24.38 -4.95,-42.19 -14.79,-53.42 -9.9,-11.28 -23.24,-16.89 -40.14,-16.89 -16.17,0 -29.21,5.73 -38.99,17.14 -9.83,11.4 -14.72,30.35 -14.72,56.73z"/>
   <polygon id="2" class="fil2" points="2225.53,2422.16 2300.31,2422.16 2397.54,2565.33 2397.54,2422.16 2473.23,2422.16 2473.23,2681.45 2397.54,2681.45 2300.85,2539.07 2300.85,2681.45 2225.53,2681.45 "/>
   <polygon id="3" class="fil2" points="2526.82,2422.16 2724.9,2422.16 2724.9,2477.93 2607.21,2477.93 2607.21,2523.2 2707.88,2523.2 2707.88,2575.71 2607.21,2575.71 2607.21,2681.45 2526.82,2681.45 "/>
   <polygon id="4" class="fil2" points="2771.25,2422.16 2851.65,2422.16 2851.65,2681.45 2771.25,2681.45 "/>
   <path id="5" class="fil2" d="M3039.29 2587.66l0 -53.96 123.85 0 0 110.27c-23.72,16.17 -44.66,27.22 -62.83,33.07 -18.23,5.86 -39.83,8.76 -64.82,8.76 -30.78,0 -55.89,-5.26 -75.26,-15.76 -19.38,-10.44 -34.41,-26.07 -45.09,-46.83 -10.68,-20.7 -15.99,-44.54 -15.99,-71.4 0,-28.31 5.85,-52.87 17.5,-73.82 11.65,-20.88 28.73,-36.75 51.24,-47.62 17.57,-8.39 41.22,-12.55 70.92,-12.55 28.61,0 50.03,2.59 64.22,7.79 14.24,5.19 26.01,13.21 35.37,24.14 9.35,10.92 16.41,24.74 21.12,41.46l-77.13 13.88c-3.2,-9.84 -8.57,-17.38 -16.18,-22.57 -7.6,-5.25 -17.26,-7.85 -29.09,-7.85 -17.5,0 -31.51,6.1 -41.95,18.29 -10.44,12.19 -15.63,31.51 -15.63,57.88 0,28.01 5.25,48.04 15.81,60.06 10.51,12.01 25.23,18.04 44.06,18.04 8.94,0 17.45,-1.27 25.59,-3.86 8.09,-2.6 17.39,-7 27.89,-13.16l0 -24.26 -53.6 0z"/>
   <path id="6" class="fil2" d="M3379.33 2422.16l80.03 0 0 154.45c0,15.27 -2.42,29.76 -7.18,43.34 -4.77,13.64 -12.26,25.53 -22.46,35.73 -10.2,10.2 -20.88,17.32 -32.04,21.48 -15.58,5.74 -34.29,8.64 -56.07,8.64 -12.62,0 -26.38,-0.91 -41.29,-2.66 -14.9,-1.75 -27.4,-5.25 -37.42,-10.5 -10.02,-5.25 -19.19,-12.68 -27.46,-22.33 -8.33,-9.66 -14,-19.62 -17.08,-29.88 -4.95,-16.48 -7.42,-31.08 -7.42,-43.82l0 -154.45 80.03 0 0 158.14c0,14.12 3.92,25.16 11.71,33.07 7.84,7.97 18.71,11.95 32.59,11.95 13.7,0 24.5,-3.92 32.35,-11.77 7.78,-7.79 11.71,-18.89 11.71,-33.25l0 -158.14z"/>
   <path id="7" class="fil2" d="M3513.31 2681.45l0 -259.29 133.51 0c24.74,0 43.69,2.12 56.73,6.4 13.1,4.23 23.66,12.13 31.69,23.6 8.02,11.53 12.01,25.59 12.01,42.13 0,14.36 -3.08,26.8 -9.24,37.24 -6.09,10.5 -14.54,18.95 -25.35,25.47 -6.82,4.1 -16.23,7.54 -28.12,10.26 9.54,3.2 16.48,6.34 20.82,9.53 2.9,2.12 7.18,6.7 12.8,13.64 5.55,6.95 9.29,12.32 11.16,16.12l38.93 74.9 -90.53 0 -42.79 -79.07c-5.43,-10.26 -10.26,-16.89 -14.49,-19.97 -5.79,-3.99 -12.37,-5.98 -19.67,-5.98l-7.07 0 0 105.02 -80.39 0zm80.39 -153.91l33.86 0c3.63,0 10.75,-1.2 21.25,-3.56 5.31,-1.02 9.66,-3.74 12.98,-8.14 3.38,-4.41 5.07,-9.42 5.07,-15.09 0,-8.39 -2.66,-14.85 -7.97,-19.32 -5.31,-4.52 -15.27,-6.76 -29.94,-6.76l-35.25 0 0 52.87z"/>
   <path id="8" class="fil2" d="M3953.42 2638.72l-90.77 0 -13.04 42.73 -81.78 0 97.6 -259.29 87.69 0 97.17 259.29 -83.89 0 -12.98 -42.73zm-16.96 -56.13l-28.3 -93.19 -28.43 93.19 56.73 0z"/>
   <path id="9" class="fil2" d="M4248.32 2575.35l70.25 21.18c-4.7,19.68 -12.13,36.15 -22.33,49.31 -10.14,13.22 -22.69,23.18 -37.78,29.88 -15.03,6.7 -34.16,10.08 -57.4,10.08 -28.24,0 -51.24,-4.11 -69.16,-12.26 -17.87,-8.2 -33.26,-22.63 -46.24,-43.21 -12.97,-20.58 -19.49,-47.02 -19.49,-79.13 0,-42.85 11.41,-75.8 34.22,-98.86 22.88,-22.99 55.17,-34.52 96.93,-34.52 32.65,0 58.36,6.58 77.07,19.8 18.65,13.21 32.6,33.49 41.65,60.89l-70.62 15.64c-2.47,-7.85 -5.07,-13.58 -7.78,-17.21 -4.53,-6.09 -10.02,-10.8 -16.48,-14.06 -6.52,-3.32 -13.76,-4.95 -21.79,-4.95 -18.22,0 -32.17,7.31 -41.82,21.85 -7.31,10.8 -10.99,27.83 -10.99,50.94 0,28.73 4.35,48.35 13.1,59.03 8.75,10.62 21,15.93 36.82,15.93 15.33,0 26.91,-4.28 34.76,-12.91 7.85,-8.57 13.52,-21.07 17.08,-37.42zm-98.5 135.55l5.31 -21c11.11,-2.72 21.49,-4.1 31.21,-4.1 20.16,0 34.1,3.44 41.76,10.26 7.67,6.88 11.53,14.96 11.53,24.26 0,5.67 -1.75,11.53 -5.25,17.5 -3.44,6.04 -9.72,10.87 -18.65,14.55 -8.99,3.68 -20.94,5.49 -35.79,5.49 -13.46,0 -29.33,-1.51 -47.5,-4.59l0 -21.73c12.31,2.36 25.35,3.51 39.17,3.51 10.14,0 17.02,-1.33 20.58,-4.05 3.62,-2.71 5.43,-6.22 5.43,-10.62 0,-3.38 -1.45,-6.34 -4.4,-8.81 -2.96,-2.48 -7.55,-3.68 -13.82,-3.68 -8.39,0 -18.23,1.02 -29.58,3.01z"/>
   <path id="10" class="fil2" d="M4347.13 2551.99c0,-42.31 11.77,-75.26 35.36,-98.8 23.6,-23.6 56.44,-35.37 98.56,-35.37 43.16,0 76.41,11.59 99.77,34.7 23.36,23.18 35.01,55.65 35.01,97.36 0,30.29 -5.07,55.1 -15.27,74.47 -10.2,19.38 -24.99,34.47 -44.24,45.27 -19.32,10.8 -43.34,16.18 -72.13,16.18 -29.21,0 -53.41,-4.65 -72.61,-13.95 -19.13,-9.35 -34.7,-24.08 -46.59,-44.24 -11.89,-20.09 -17.86,-45.32 -17.86,-75.62zm80.03 0.18c0,26.13 4.89,44.96 14.6,56.37 9.78,11.41 23.06,17.14 39.84,17.14 17.2,0 30.6,-5.61 40.01,-16.78 9.48,-11.22 14.19,-31.26 14.19,-60.29 0,-24.38 -4.95,-42.19 -14.79,-53.42 -9.9,-11.28 -23.24,-16.89 -40.14,-16.89 -16.17,0 -29.21,5.73 -38.99,17.14 -9.83,11.4 -14.72,30.35 -14.72,56.73zm90.17 -194.46l27.88 0c0.12,3.07 0.18,5.73 0.18,7.96 0,13.1 -3.32,23.3 -9.9,30.48 -6.57,7.18 -15.08,10.81 -25.41,10.81 -7.54,0 -18.95,-3.08 -34.28,-9.24 -9.29,-3.74 -15.69,-5.61 -19.25,-5.61 -3.38,0 -6.04,1.08 -7.91,3.2 -1.87,2.11 -2.89,5.85 -3.01,11.28l-27.53 0c-0.12,-2.83 -0.18,-5.31 -0.18,-7.48 0,-12.68 3.5,-22.75 10.44,-30.18 6.94,-7.48 15.15,-11.22 24.69,-11.22 4.1,0 8.03,0.48 11.65,1.38 3.68,0.97 10.38,3.5 20.22,7.61 9.83,4.16 17.02,6.22 21.48,6.22 3.14,0 5.74,-1.09 7.67,-3.26 1.93,-2.18 3.02,-6.16 3.26,-11.95z"/>
   <polygon id="11" class="fil2" points="4658.92,2422.16 4873.3,2422.16 4873.3,2477.57 4739.31,2477.57 4739.31,2518.85 4863.52,2518.85 4863.52,2571.72 4739.31,2571.72 4739.31,2622.78 4877.28,2622.78 4877.28,2681.45 4658.92,2681.45 "/>
   <path id="12" class="fil2" d="M4906.67 2595.69l76.05 -4.77c1.63,12.31 5.01,21.73 10.08,28.12 8.27,10.44 20.04,15.7 35.37,15.7 11.41,0 20.22,-2.66 26.37,-8.03 6.22,-5.37 9.3,-11.59 9.3,-18.65 0,-6.7 -2.9,-12.74 -8.75,-18.05 -5.86,-5.31 -19.5,-10.26 -40.92,-15.03 -35.13,-7.84 -60.12,-18.34 -75.08,-31.44 -15.09,-13.04 -22.64,-29.7 -22.64,-49.98 0,-13.27 3.86,-25.83 11.59,-37.66 7.73,-11.89 19.31,-21.18 34.83,-27.94 15.51,-6.76 36.75,-10.14 63.73,-10.14 33.13,0 58.36,6.16 75.75,18.53 17.38,12.31 27.7,31.93 31.02,58.84l-75.33 4.47c-1.99,-11.77 -6.21,-20.34 -12.61,-25.65 -6.46,-5.37 -15.33,-8.03 -26.62,-8.03 -9.29,0 -16.35,1.99 -21.06,5.92 -4.71,3.92 -7.06,8.75 -7.06,14.42 0,4.11 1.93,7.79 5.73,11.11 3.68,3.44 12.62,6.58 26.74,9.53 35.01,7.55 60.05,15.21 75.14,22.94 15.15,7.72 26.2,17.26 33.08,28.73 6.88,11.4 10.32,24.2 10.32,38.38 0,16.6 -4.59,31.93 -13.76,45.99 -9.24,14.01 -22.03,24.69 -38.57,31.93 -16.48,7.24 -37.24,10.87 -62.35,10.87 -44.06,0 -74.6,-8.51 -91.56,-25.47 -16.96,-16.96 -26.55,-38.51 -28.79,-64.64z"/>
  </g>
 </g>
</svg>
