<?xml version="1.0" encoding="UTF-8"?>
<!DOCTYPE svg PUBLIC "-//W3C//DTD SVG 1.1//EN" "http://www.w3.org/Graphics/SVG/1.1/DTD/svg11.dtd">
<!-- Creator: CorelDRAW 2018 (64 Bit) -->
<svg xmlns="http://www.w3.org/2000/svg" xml:space="preserve" width="50.7998mm" height="50.7998mm" version="1.1" style="shape-rendering:geometricPrecision; text-rendering:geometricPrecision; image-rendering:optimizeQuality; fill-rule:evenodd; clip-rule:evenodd"
viewBox="0 0 5079.98 5079.98"
 xmlns:xlink="http://www.w3.org/1999/xlink">
 <defs>
  <style type="text/css">
   <![CDATA[
    .fil0 {fill:#000066}
    .fil1 {fill:white}
    .fil2 {fill:white;fill-rule:nonzero}
   ]]>
  </style>
 </defs>
 <g id="Camada_x0020_1">
  <metadata id="CorelCorpID_0Corel-Layer"/>
  <rect class="fil0" x="-0.01" y="-0.01" width="5080" height="5080"/>
  <path class="fil1" d="M1842.37 1208.79c0,0 190.07,33.91 245.4,42.84 55.33,8.92 71.38,52.65 -19.63,62.46 -91.02,9.81 -486.34,11.6 -542.55,1.79 -56.22,-9.82 -142.78,-33.91 -48.19,-57.11 94.59,-23.21 245.4,-49.98 245.4,-49.98l119.57 0z"/>
  <path class="fil1" d="M1783.48 1223.96c57.66,0 104.4,-46.74 104.4,-104.4 0,-57.66 -46.74,-104.4 -104.4,-104.4 -57.66,0 -104.4,46.74 -104.4,104.4 0,57.66 46.74,104.4 104.4,104.4zm0 -21.41c45.83,0 82.99,-37.16 82.99,-82.99 0,-45.83 -37.16,-82.99 -82.99,-82.99 -45.83,0 -82.99,37.16 -82.99,82.99 0,45.83 37.16,82.99 82.99,82.99z"/>
  <circle class="fil1" cx="1783.48" cy="1119.56" r="58.89"/>
  <path class="fil1" d="M1596.99 2255.51l0 -920.89c0,0 160.62,16.06 358.72,-7.14l-1.79 974.43c0,0 -82.98,34.81 -172.22,34.81 -89.23,0 -196.31,-5.36 -184.71,-81.21z"/>
  <path class="fil1" d="M1586.87 1336.71c-23.73,3.91 -85.84,8.33 -149.61,-35.11 0,0 -267.7,33.9 -219.52,149.02 30.24,72.24 221.42,103.7 369.13,118.01l0 -100.59c-62.8,-7.58 -109.63,-12.84 -127.28,-14.73 -74.96,-8.03 -168.66,-23.2 -53.55,-41.93 65.08,-10.6 133.57,-22.05 180.83,-30l0 -44.67zm378.36 270.16c144.34,20.98 299.26,49.91 226.06,68.61 -47.14,12.05 -131.44,28.47 -226.27,45.07l-0.17 97.62c132.4,-20.69 249.27,-41.69 288.92,-58.79 91.02,-39.26 118.68,-131.17 0,-180.25 -45.05,-18.63 -159.56,-40.09 -288.37,-59.98l-0.17 87.72zm-378.36 171.86c-17.48,2.19 -33.58,4.09 -47.89,5.63 -157.94,16.95 -406.9,125.82 -199.88,203.45 65.22,24.46 154.26,43.52 247.77,58.59l0 -102.97c-58.71,-8.14 -101.5,-14.42 -113.01,-17.18 -44.62,-10.71 -126.72,-8.93 32.12,-38.38 21.4,-3.96 49,-8.48 80.89,-13.43l0 -95.71zm377.5 312.66c46.75,4.65 81.35,8.32 96.64,11.54 67.82,14.27 158.65,9.82 25.88,48.18 -29.58,8.55 -72.67,18.7 -122.67,29.56l-0.19 107.45c127.22,-29.79 241.61,-63.87 289.74,-99.52 120.47,-89.24 -31.24,-147.25 -126.72,-167.77 -27.16,-5.84 -88.15,-15.15 -162.51,-25.72l-0.17 96.28zm-377.77 165.5c-54.48,11.03 -97.64,20.27 -118.99,26.3 -82.09,23.2 -299.82,149.91 0.01,208.81 299.82,58.89 421.18,62.46 515.77,76.74 94.59,14.28 210.59,14.28 0,64.25 -210.59,49.97 -558.61,140.99 -606.79,210.59 -48.19,69.6 61.97,120.86 61.97,120.86 99.6,-49.87 192.32,-42.98 292.29,-46.35 0,0 -111.55,-26.33 -206.14,-33.47 0,0 -58.89,-10.7 222.2,-81.2 281.09,-70.49 482.76,-124.03 492.58,-209.7 9.81,-85.67 -172.23,-116 -338.2,-137.42 -165.98,-21.42 -530.06,-45.51 -416.73,-72.28 36.42,-8.6 116.47,-22.65 212.3,-40.71 -17.23,-1.89 -33.61,-4.75 -48.18,-9.06 -40.53,-12.03 -67.3,-34.8 -62.09,-77.36z"/>
  <rect class="fil1" x="1744.69" y="2270.26" width="69.6" height="644.27"/>
  <path class="fil1" d="M1842.37 3213.02c0,0 50.38,-134.96 101.16,-188.13 53.68,-56.21 108.67,-31.13 137.1,-42.44 214.17,-85.19 -737.85,-66.17 -619,5.74 35.21,21.3 130.74,-9.68 173.59,27.85 72.27,63.33 87.58,196.98 87.58,196.98l119.57 0z"/>
  <path class="fil1" d="M1783.48 3197.85c57.66,0 104.4,46.74 104.4,104.4 0,57.66 -46.74,104.4 -104.4,104.4 -57.66,0 -104.4,-46.74 -104.4,-104.4 0,-57.66 46.74,-104.4 104.4,-104.4zm0 21.41c45.83,0 82.99,37.16 82.99,82.99 0,45.83 -37.16,82.99 -82.99,82.99 -45.83,0 -82.99,-37.16 -82.99,-82.99 0,-45.83 37.16,-82.99 82.99,-82.99z"/>
  <circle class="fil1" cx="1783.48" cy="3302.25" r="58.89"/>
  <path class="fil1" d="M3868.05 2206.26l0 202.51c-0.69,13.61 -3.54,17.74 -4.51,31.39 -0.93,13.19 0.42,27.9 0.2,41.26 -0.29,18.53 -4.23,20.22 -4.78,37.47l-11.4 111.22c-31.34,172.35 -61.71,354.58 -201.15,490.55 -9.62,9.38 -16.09,12.91 -25.07,21.97 -22.06,22.28 -54.7,42.53 -94.76,47.55l-295.54 13.3c-19.1,-11.11 -9.34,-25.02 -60.43,-45.58 -30.53,-12.29 -62.98,-32.96 -77.89,-21.47 -19.88,17.63 22.39,27.95 41.73,35.3 26.06,9.89 41.18,14.31 52.35,32.57l-292.2 -6.86c0.04,-1.37 0.59,-3.42 1.58,-6.01 188.44,-24.59 338.18,-411.81 338.18,-885.9 0,-476.72 -151.41,-865.56 -341.32,-886.25 -1.21,-2.37 -2.21,-4.74 -2.93,-7.08l228.79 0.01c51.87,3.8 149.44,69.71 185.98,35.48 8.32,-24.18 -15.94,-23.52 -34.43,-35.49l140.94 0c-7.55,24.94 -47.08,57.07 -0.91,72.61 36.52,-6.92 33.95,-51.9 58.32,-68.9 67.66,-1.65 119.56,20.59 153.67,46.81 159.07,122.31 225.58,449.98 236.62,624.51 0.98,15.48 4.64,18.73 4.62,37.58 -0.02,14.32 -0.98,25.99 1.75,39.79 1.27,6.39 2.08,21.68 2.59,41.66zm-79.88 -270.39c-22.6,-4.46 -55.01,7.23 -78.34,13.37 -65.57,17.27 -170.55,101.53 -144.71,122.78 26.95,22.16 63.52,-38.98 110.31,-66.75 41.95,-24.89 136.54,-14.76 112.74,-69.4zm-401.5 1180.8c45.33,13.8 82.64,-25.72 135.85,-26.12 42.94,-0.32 136.55,32.82 116.87,-23.87 -33.61,-12.9 -111.34,-21.39 -154.1,-10.86 -23.55,5.79 -41.79,12.32 -64.05,19.61 -29.81,9.75 -45.08,12.39 -34.57,41.24zm321.62 -1507.14c-24,-4.09 -53.96,11.43 -76.23,20.02 -52.98,20.44 -71.91,45.66 -106.18,83.31 -8.42,9.25 -43.73,39.21 -24.64,55.18 21.24,17.78 46.96,-19.93 56.77,-30.66 13.6,-14.87 30.37,-36.91 45.43,-47.58 37.17,-26.32 124.2,-28.19 104.85,-80.27zm-87 -106.74c5.37,-29.43 -7.63,-45.46 -39.65,-32.17 -17.57,7.29 -46.33,19.2 -61.57,28.62 -20.81,12.87 -62.23,68.28 -71.75,96.33 -8.76,25.8 16.8,44.99 36.3,27.84 7.34,-6.46 25.69,-41.69 31.51,-51.8 24.54,-42.67 59.26,-42.17 105.16,-68.82zm171.43 751.45c-72.54,12.26 -98.51,15.41 -139.4,49.29 -16.72,13.86 -36.91,24.54 -52.42,38.8 -16.89,15.52 -21.11,48.82 12.22,40.31 23.78,-6.07 65.68,-60.11 108.99,-71.07 23.04,-5.84 61.62,-9.51 80.05,-17.68 23.3,-10.33 24.14,-45.33 -9.44,-39.65zm-206.99 274.78c29.78,7.32 41.41,-9.61 61.04,-21.41 16.4,-9.86 38.7,-27.09 59.32,-33.5 43.05,-13.37 151.32,-1.65 112.84,-54.07 -96.89,-10.13 -153.29,30.44 -206.1,61.67 -19.64,11.62 -38.57,23.47 -27.1,47.31zm148.48 -761.18c-111.96,30.98 -104.59,35.07 -177.85,105.3 -20.55,19.7 -23.02,58.69 15.65,40.02 8.68,-4.2 37.85,-35.23 46.57,-43.91 55.66,-55.42 85.81,-39.85 128.61,-62.84 23.21,-12.47 25.38,-49.19 -12.98,-38.57zm-52.65 829.34c-43.64,7.89 -86.86,35.87 -116.98,53.14 -19.79,11.34 -31.42,40.86 2.62,40.83 23.95,-0.02 74.78,-47.05 117.11,-52.32 24.81,-3.09 66.55,0.09 87.4,-5.18 22.38,-5.65 33.43,-38.05 -1.78,-41.14 -13.85,-1.21 -75.56,2.35 -88.37,4.67zm99.85 -498.11c-93.75,11.67 -133.09,39.12 -187.15,83.94 -6.69,5.55 -17.59,13.77 -19.36,24.58 -2.42,14.69 7.17,24.63 26.73,20.08 24.18,-5.62 60.87,-58.35 107.04,-70.29 22.46,-5.82 57.27,-9.6 77.09,-16.5 29.01,-10.1 29.78,-46.05 -4.35,-41.81zm-130.02 654.39c-39.93,5.76 -95.52,35.52 -124.89,49.52 -15.06,7.17 -47.22,36.09 -12.3,41.79 16.91,2.77 51.59,-18.51 65.48,-25.17 95.16,-45.55 88.18,-14.7 152.68,-27.41 22.03,-4.34 44.79,-33.5 14.28,-40.53 -9.71,-2.23 -83.94,0.16 -95.25,1.8zm-35.79 150.95c-29.47,5.47 -115.27,31.96 -131.32,44.55 -21.14,16.59 -9.34,38.73 23.84,28.69 21.96,-6.64 46.14,-16.58 67.6,-24.14 62.02,-21.82 126.73,6.98 154.93,-11.7 61.27,-40.6 -89.92,-42.06 -115.05,-37.4zm-447.9 120.72c-63.04,25.33 63.28,60.62 79.31,71.03 35.65,23.15 41.03,99.4 87.74,78.11 24.51,-11.17 -2.78,-94.42 -97.31,-132.43 -19.07,-7.66 -49.66,-24.78 -69.74,-16.71zm91.35 -1377.64c-26.36,1.91 -64.43,-1.24 -58.15,27.5 5.1,23.38 43.36,15.9 74.53,13.48 84.53,-6.55 84.66,5.93 145.94,30.61 35.02,14.11 101.78,-11.66 -5.64,-50.49 -73,-26.39 -65.24,-27.71 -156.68,-21.1zm48.46 842.62c-3.73,29.24 16.55,30.42 48.27,36.34 82.92,15.47 68.87,11.93 124.29,55.8 19.25,15.23 21.19,31.88 62.54,23.38 19.36,-28.92 -3.39,-35.31 -24.57,-52.22 -53.65,-42.86 -50.74,-49.55 -131.09,-64.56 -39.68,-7.42 -50.1,-16.88 -79.44,1.26zm24.62 -430.2c-32.83,9.97 -21.66,35.35 7.82,39.55 28.71,4.09 61.37,2.3 90.66,7.08 46.25,7.53 93.73,61.72 125.47,54.44 12.97,-2.97 20.28,-12.27 16.26,-24.91 -4.28,-13.46 -90.28,-68.39 -152.84,-73.71 -23.29,-1.98 -69.02,-8.01 -87.37,-2.45zm-27.34 -153.71c-26.3,14.97 -14.52,34.24 20.05,37.76 26.79,2.72 63.55,1.99 88.54,7.34 40.53,8.69 93.18,64.12 124.47,52 11.44,-4.42 17,-16.25 11.13,-27.88 -4.19,-8.29 -16.61,-12.41 -26.47,-18.32 -43.17,-25.87 -71.69,-47.16 -130.1,-51.28 -24.6,-1.73 -69.57,-9.89 -87.62,0.38zm-93.1 -393.27c-31.21,2.65 -64.63,-1.15 -71.93,17.99 -10.59,27.76 26.19,27.84 55.5,25.68 87.75,-6.47 85.63,-5.47 152.02,23.76 20.94,9.22 56.3,21.28 62.32,-4.7 4.8,-20.71 -24.49,-28.61 -44.4,-36.25 -57.03,-21.88 -76.01,-33.07 -153.51,-26.48zm301.83 1233.33c4.86,-26.6 -17.24,-38.35 -33.94,-53.95 -48,-44.85 -50.48,-46.15 -122.44,-63.95 -20.76,-5.14 -64.99,-22.39 -75.85,1.55 -11.68,25.76 28.2,30.84 52.23,36.98 76.18,19.48 67.32,15.54 118.6,67 17.82,17.89 26.68,30.66 61.4,12.37zm-240.8 15.45c-21.31,7.47 -35.2,27.2 9.66,43.47 21.84,7.92 53.39,17.37 71.58,27.59 51.53,28.93 56.66,96.26 102.32,81.18 32.16,-10.63 5.92,-37.3 -4.18,-49.8 -14.4,-17.85 -26.27,-34.36 -42.78,-49.56 -19.14,-17.63 -32.28,-21.37 -63.95,-33.49 -16.79,-6.43 -56.74,-24.97 -72.65,-19.39zm60.76 -415.5c-25.89,7.5 -28.34,35.8 12.63,41.11 26.78,3.46 60.9,2.84 86.8,8.1 45.83,9.32 90.32,64.3 124.52,55.42 29.18,-7.58 18.61,-27.8 -10.51,-46.35 -16.87,-10.75 -35.42,-22.67 -55.02,-33.31 -43.17,-23.41 -143.07,-29.42 -158.42,-24.97zm-2.52 -575.33c-27.08,1.5 -69.52,-2.11 -79.73,13.65 -18.2,28.07 22.67,31.21 49.75,29.96 87.4,-4.04 89.8,-2.07 152.68,27.31 17.71,8.26 51.23,22.35 62.32,0.18 11.11,-22.23 -22.31,-31.6 -41.85,-39.8 -54.5,-22.87 -68.9,-35.44 -143.17,-31.3zm64.22 1268.71c44.88,2.32 46.63,-19.59 27.07,-43.09 -31.13,-37.39 -45.51,-64.96 -95.7,-84.52 -13.08,-5.1 -64.38,-25.13 -74.05,-26.51 -39.15,-5.59 -47.49,25.84 -18.8,39.22 67.93,31.68 75.65,11.39 119.53,66.38 15.25,19.1 23.25,31.76 41.95,48.52zm-64.66 -832.6c-23.6,11.96 -18.14,34.11 21.57,38.41 94.23,10.21 72.51,-5.99 146.23,38.54 20.3,12.26 41.77,31.66 64.43,22.66 11,-4.37 17.08,-13.8 12.28,-25.93 -4.53,-11.45 -66.89,-45.1 -80.66,-51.95 -20.68,-10.3 -41.71,-17.94 -71.09,-20.57 -25.66,-2.31 -73.24,-11.05 -92.76,-1.16z"/>
  <path class="fil1" d="M2847.93 3192.69c197.29,0 357.24,-397.19 357.24,-887.16 0,-489.97 -159.95,-887.17 -357.24,-887.17 -197.3,0 -357.24,397.2 -357.24,887.17 0,489.97 159.94,887.16 357.24,887.16zm0 -267.48c123.56,0 223.73,-277.44 223.73,-619.68 0,-342.24 -100.17,-619.68 -223.73,-619.68 -123.56,0 -223.74,277.44 -223.74,619.68 0,342.24 100.18,619.68 223.74,619.68z"/>
  <g id="_2228220071120">
   <polygon class="fil2" points="1309.02,3992.84 1352.29,3740.25 1505.87,3740.25 1498.64,3782.58 1387.63,3782.58 1377.87,3839.73 1485.06,3839.73 1477.83,3882.07 1370.58,3882.07 1358.88,3950.51 1477.65,3950.51 1470.59,3992.84 "/>
   <path id="_1" class="fil2" d="M1495.58 3941.33l39.16 -7.76c3.47,10.41 7.82,17.64 13.17,21.7 5.29,4.11 12.29,6.17 21.05,6.17 8.47,0 15.23,-2 20.46,-6.05 5.17,-4 7.76,-8.76 7.76,-14.17 0,-3.65 -1.12,-6.77 -3.29,-9.29 -2.3,-2.41 -7.82,-5.35 -16.58,-8.76 -24.29,-9.65 -39.34,-17.29 -45.22,-22.93 -9.29,-9 -13.93,-20.82 -13.93,-35.34 0,-17.17 6.05,-31.28 18.22,-42.39 12.18,-11.12 28.87,-16.64 49.98,-16.64 35.81,0 56.56,15.99 62.33,47.97l-37.4 7.77c-4.35,-14.59 -14.81,-21.88 -31.28,-21.88 -7.82,0 -13.7,1.59 -17.75,4.77 -4,3.17 -6,7.23 -6,12.11 0,4.11 1.59,7.58 4.76,10.46 2.29,2.12 10.23,5.65 23.81,10.47 19.35,6.94 32.4,13.7 39.04,20.23 9.71,9.52 14.59,21.1 14.59,34.74 0,18.47 -6.24,33.81 -18.76,45.98 -12.52,12.17 -29.16,18.23 -49.86,18.23 -40.63,0 -65.38,-18.46 -74.26,-55.39z"/>
   <path id="_2" class="fil2" d="M1669.86 3846.44l6.58 -36.69 21.05 0 5.12 -29.17 47.44 -34.63 -11.7 63.8 25.7 0 -6.23 36.69 -26.11 0 -14.23 76.55c-2.47,13.76 -3.7,21.75 -3.7,23.93 0,4.06 1.06,7.11 3.23,9.11 2.18,1.94 5.94,2.94 11.23,2.94 1.71,0 6.35,-0.41 13.94,-1.23l-6.71 36.57c-7.17,1.59 -14.4,2.41 -21.69,2.41 -14.11,0 -24.64,-3.17 -31.64,-9.58 -6.99,-6.41 -10.52,-15.76 -10.52,-28.11 0,-5.7 1.82,-18.7 5.53,-38.92l13.46 -73.67 -20.75 0z"/>
   <path id="_3" class="fil2" d="M1764.05 3916.76c0,-29.93 6.76,-55.33 20.28,-76.32 15.06,-23.05 36.81,-34.57 65.27,-34.57 21.34,0 38.33,7.23 51.03,21.63 12.64,14.47 18.99,34.58 18.99,60.39 0,30.28 -7.87,55.97 -23.63,77.08 -15.82,21.17 -36.46,31.75 -61.91,31.75 -20.76,0 -37.63,-7.17 -50.57,-21.52 -12.99,-14.29 -19.46,-33.81 -19.46,-58.44zm115.36 -35.22c0,-12 -2.82,-21.46 -8.47,-28.34 -5.64,-6.88 -12.82,-10.29 -21.46,-10.29 -7.29,0 -14.17,2.53 -20.58,7.52 -6.35,5.06 -11.93,13.82 -16.76,26.29 -4.76,12.46 -7.17,25.4 -7.17,38.8 0,13.64 2.94,24.23 8.82,31.75 5.88,7.59 13.11,11.35 21.81,11.35 10.94,0 20.23,-5.82 27.87,-17.52 10.65,-15.99 15.94,-35.87 15.94,-59.56z"/>
   <path id="_4" class="fil2" d="M2063.26 3809.75l37.57 0 -40.21 252.94 -40.81 0 13.7 -85.78c-7.29,7.4 -14.05,12.58 -20.4,15.46 -6.35,2.88 -13.23,4.35 -20.7,4.35 -15.28,0 -27.4,-5.82 -36.33,-17.52 -10.41,-13.64 -15.64,-33.1 -15.64,-58.33 0,-22.58 3.7,-43.15 11.05,-61.67 7.41,-18.58 16.52,-32.11 27.28,-40.63 10.82,-8.47 22.17,-12.7 34.16,-12.7 20.93,0 36.16,10.93 45.69,32.86l4.64 -28.98zm-83.67 110.01c0,12.46 2.71,22.22 8.06,29.28 5.35,7.11 11.82,10.64 19.29,10.64 6.29,0 12.34,-2.41 18.16,-7.29 5.82,-4.82 10.88,-13.58 15.17,-26.28 4.3,-12.65 6.41,-26.17 6.41,-40.4 0,-13.81 -2.82,-24.52 -8.41,-32.1 -5.58,-7.59 -11.93,-11.41 -19.05,-11.41 -5.52,0 -11.29,2.65 -17.22,7.88 -5.94,5.23 -11.18,14.52 -15.64,27.81 -4.53,13.29 -6.77,27.28 -6.77,41.87z"/>
   <path id="_5" class="fil2" d="M2139.81 3809.75l40.81 0 -18.64 108.12c-2.18,12.94 -3.29,21.05 -3.29,24.23 0,5.53 1.64,10.17 4.88,13.82 3.23,3.7 7.17,5.52 11.81,5.52 5.47,0 10.88,-1.94 16.23,-5.82 7.47,-5.41 13.47,-12.46 17.88,-21.11 4.47,-8.64 8.23,-21.22 11.4,-37.74l16.29 -87.02 40.81 0 -33.99 183.09 -38.28 0 4.53 -25.16c-16.46,19.34 -34.28,29.04 -53.39,29.04 -12.05,0 -21.69,-4.17 -28.81,-12.58 -7.05,-8.41 -10.64,-19.99 -10.64,-34.75 0,-6.17 1.65,-18.7 4.88,-37.57l17.52 -102.07z"/>
   <path id="_6" class="fil2" d="M2434.03 3916.64l-101.66 0 0 4.64c0,12.18 2.88,21.94 8.58,29.23 5.77,7.29 12.64,10.93 20.64,10.93 13.29,0 23.76,-8.46 31.46,-25.4l36.33 7.41c-7.11,17.82 -16.58,31.16 -28.4,39.98 -11.81,8.88 -25.1,13.29 -39.74,13.29 -19.52,0 -35.75,-7.58 -48.69,-22.75 -12.87,-15.23 -19.34,-35.81 -19.34,-61.86 0,-28.04 7.35,-52.8 22.05,-74.2 14.7,-21.34 35.22,-32.04 61.62,-32.04 17.81,0 32.22,6.76 43.27,20.22 11.12,13.47 16.64,32.93 16.64,58.39 0,12.05 -0.94,22.75 -2.76,32.16zm-34.46 -29.99l0.18 -4.82c0,-13.82 -2.53,-24.1 -7.64,-30.75 -5.06,-6.64 -11.65,-9.94 -19.76,-9.94 -8.23,0 -15.7,3.83 -22.4,11.53 -6.7,7.64 -11.17,18.99 -13.46,33.98l63.08 0z"/>
   <path id="_7" class="fil2" d="M2665.04 3992.84l-38.45 0 3.64 -20.17c-7.35,8.88 -14.52,15.11 -21.46,18.7 -6.94,3.59 -14.58,5.35 -22.81,5.35 -14.88,0 -27.11,-6.35 -36.57,-19.11 -9.47,-12.7 -14.17,-31.87 -14.17,-57.38 0,-30.17 6.82,-56.74 20.52,-79.79 13.7,-23.05 31.22,-34.57 52.56,-34.57 19.81,0 34.69,9.7 44.63,29.1l17.05 -94.72 40.27 0 -45.21 252.59zm-90.31 -74.67c0,13.29 2.64,23.52 7.88,30.69 5.29,7.23 11.64,10.82 19.22,10.82 6.18,0 12.23,-2.47 18.05,-7.47 5.88,-4.94 11,-13.76 15.41,-26.34 4.35,-12.58 6.52,-25.52 6.52,-38.92 0,-13.7 -2.82,-24.58 -8.46,-32.63 -5.65,-8.06 -12.11,-12.12 -19.41,-12.12 -5.64,0 -11.4,2.59 -17.28,7.82 -5.88,5.18 -11,14.29 -15.35,27.23 -4.41,12.99 -6.58,26.63 -6.58,40.92z"/>
   <path id="_8" class="fil2" d="M2852.07 3916.64l-101.66 0 0 4.64c0,12.18 2.88,21.94 8.58,29.23 5.77,7.29 12.64,10.93 20.64,10.93 13.29,0 23.76,-8.46 31.46,-25.4l36.33 7.41c-7.11,17.82 -16.58,31.16 -28.4,39.98 -11.81,8.88 -25.1,13.29 -39.74,13.29 -19.52,0 -35.75,-7.58 -48.69,-22.75 -12.87,-15.23 -19.34,-35.81 -19.34,-61.86 0,-28.04 7.35,-52.8 22.05,-74.2 14.7,-21.34 35.22,-32.04 61.62,-32.04 17.81,0 32.22,6.76 43.27,20.22 11.12,13.47 16.64,32.93 16.64,58.39 0,12.05 -0.94,22.75 -2.76,32.16zm-34.46 -29.99l0.18 -4.82c0,-13.82 -2.53,-24.1 -7.64,-30.75 -5.06,-6.64 -11.65,-9.94 -19.76,-9.94 -8.23,0 -15.7,3.83 -22.4,11.53 -6.7,7.64 -11.17,18.99 -13.46,33.98l63.08 0z"/>
   <path id="_9" class="fil2" d="M2991.59 3992.84l-42.57 0 43.22 -252.59 83.08 0c15.87,0 28.04,2.23 36.57,6.76 8.53,4.47 15.35,11.53 20.58,21.11 5.17,9.64 7.76,21.4 7.76,35.34 0,16.81 -3.12,32.28 -9.29,46.39 -6.23,14.11 -13.94,24.51 -23.17,31.34 -9.23,6.76 -20.16,11.4 -32.8,13.81 -6.83,1.24 -20.41,1.88 -40.69,1.88l-26.23 0 -16.46 95.96zm23.7 -138.29l11.99 0c21.34,0 35.87,-1.41 43.63,-4.29 7.7,-2.88 14.11,-8.12 19.11,-15.7 4.99,-7.64 7.52,-16.46 7.52,-26.58 0,-10.87 -3.64,-18.34 -10.93,-22.52 -4.3,-2.41 -14.06,-3.58 -29.4,-3.58l-29.52 0 -12.4 72.67z"/>
   <path id="_10" class="fil2" d="M3286.28 3916.64l-101.66 0 0 4.64c0,12.18 2.88,21.94 8.58,29.23 5.77,7.29 12.64,10.93 20.64,10.93 13.29,0 23.76,-8.46 31.46,-25.4l36.33 7.41c-7.11,17.82 -16.58,31.16 -28.4,39.98 -11.81,8.88 -25.1,13.29 -39.74,13.29 -19.52,0 -35.75,-7.58 -48.69,-22.75 -12.87,-15.23 -19.34,-35.81 -19.34,-61.86 0,-28.04 7.35,-52.8 22.05,-74.2 14.7,-21.34 35.22,-32.04 61.62,-32.04 17.81,0 32.22,6.76 43.27,20.22 11.12,13.47 16.64,32.93 16.64,58.39 0,12.05 -0.94,22.75 -2.76,32.16zm-34.46 -29.99l0.18 -4.82c0,-13.82 -2.53,-24.1 -7.64,-30.75 -5.06,-6.64 -11.65,-9.94 -19.76,-9.94 -8.23,0 -15.7,3.83 -22.4,11.53 -6.7,7.64 -11.17,18.99 -13.46,33.98l63.08 0z"/>
   <path id="_11" class="fil2" d="M3403.7 3923.7l39.16 7.76c-6.53,21.81 -16.23,38.16 -29.11,48.97 -12.82,10.88 -27.46,16.29 -43.92,16.29 -18.64,0 -33.69,-6.76 -45.21,-20.28 -11.47,-13.53 -17.23,-32.75 -17.23,-57.63 0,-22.34 3.88,-42.27 11.64,-59.73 7.76,-17.47 18.29,-30.69 31.57,-39.69 13.23,-9 27.4,-13.52 42.51,-13.52 17,0 30.93,5.41 41.87,16.17 10.93,10.76 17.11,25.69 18.46,44.86l-38.45 4.94c-1.83,-19.76 -9.88,-29.64 -24.17,-29.64 -6.58,0 -13.05,2.71 -19.34,8.06 -6.35,5.41 -11.94,15.05 -16.7,28.93 -4.76,13.87 -7.17,28.98 -7.17,45.39 0,10.87 2.23,19.22 6.64,24.99 4.47,5.82 9.82,8.7 16.05,8.7 6.59,0 12.88,-2.82 18.93,-8.41 6.06,-5.59 10.88,-14.29 14.47,-26.16zm-80.08 140.4l6.7 -19.93 8.64 0.18c8.41,0 16.94,-1.77 25.58,-5.35 5.88,-2.42 8.82,-6.47 8.82,-12.23 0,-3.65 -1.35,-6.59 -4.06,-8.77 -2.7,-2.17 -6.88,-3.29 -12.4,-3.29 -3.12,0 -7.41,0.53 -12.82,1.53l4.82 -17.11c6.82,-2.06 12.99,-3.11 18.52,-3.11 9.82,0 17.58,2.58 23.23,7.81 5.64,5.24 8.46,12.12 8.46,20.64 0,10.82 -5.41,20.23 -16.23,28.28 -10.81,8.06 -26.04,12.06 -45.62,12.06 -5.88,0 -10.41,-0.24 -13.64,-0.71z"/>
   <path id="_12" class="fil2" d="M3519.41 3861.61l-39.51 -4.59c4.76,-16.64 12.94,-29.34 24.64,-38.04 11.64,-8.76 26.46,-13.11 44.39,-13.11 18.28,0 32.28,4.52 42.16,13.52 9.81,9.05 14.69,20.99 14.69,35.98 0,5.24 -0.47,10.82 -1.35,16.76 -0.94,5.94 -4.35,22.17 -10.35,48.63 -4.94,21.81 -7.46,37.1 -7.46,45.74 0,8.11 1.35,16.87 4.05,26.34l-40.33 0c-1.71,-6.76 -2.71,-13.82 -3.06,-21.05 -5.7,8.06 -12.35,14.23 -19.81,18.52 -7.47,4.29 -14.88,6.41 -22.29,6.41 -11.76,0 -21.58,-4.82 -29.57,-14.46 -7.94,-9.59 -11.94,-22.4 -11.94,-38.46 0,-18.46 4.71,-32.69 14.11,-42.62 9.35,-10 24.93,-16 46.92,-18.05 19.29,-1.94 32.22,-4.3 38.75,-7.06 2.18,-7 3.23,-12.58 3.23,-16.76 0,-5.41 -1.88,-9.82 -5.7,-13.17 -3.76,-3.35 -8.94,-5 -15.46,-5 -14.23,0 -22.93,6.83 -26.11,20.47zm37.4 45.86c-2.47,0.82 -5.71,1.53 -9.59,2.23 -18.52,2.71 -30.75,6.41 -36.63,11.06 -5.88,4.58 -8.82,10.81 -8.82,18.52 0,6.05 1.65,10.99 5,14.75 3.35,3.77 7.59,5.65 12.76,5.65 5.35,0 10.47,-1.59 15.4,-4.71 4.94,-3.11 8.88,-7.52 11.82,-13.17 2.94,-5.64 5.76,-14.93 8.53,-27.81l1.53 -6.52z"/>
   <path id="_13" class="fil2" d="M3617.84 3941.33l39.16 -7.76c3.47,10.41 7.82,17.64 13.17,21.7 5.29,4.11 12.29,6.17 21.05,6.17 8.47,0 15.23,-2 20.46,-6.05 5.17,-4 7.76,-8.76 7.76,-14.17 0,-3.65 -1.12,-6.77 -3.29,-9.29 -2.3,-2.41 -7.82,-5.35 -16.58,-8.76 -24.29,-9.65 -39.34,-17.29 -45.22,-22.93 -9.29,-9 -13.93,-20.82 -13.93,-35.34 0,-17.17 6.05,-31.28 18.22,-42.39 12.18,-11.12 28.87,-16.64 49.98,-16.64 35.81,0 56.56,15.99 62.33,47.97l-37.4 7.77c-4.35,-14.59 -14.81,-21.88 -31.28,-21.88 -7.82,0 -13.7,1.59 -17.75,4.77 -4,3.17 -6,7.23 -6,12.11 0,4.11 1.59,7.58 4.76,10.46 2.29,2.12 10.23,5.65 23.81,10.47 19.35,6.94 32.4,13.7 39.04,20.23 9.71,9.52 14.59,21.1 14.59,34.74 0,18.47 -6.24,33.81 -18.76,45.98 -12.52,12.17 -29.16,18.23 -49.86,18.23 -40.63,0 -65.38,-18.46 -74.26,-55.39z"/>
  </g>
 </g>
</svg>
