<?xml version="1.0" encoding="UTF-8"?>
<!DOCTYPE svg PUBLIC "-//W3C//DTD SVG 1.1//EN" "http://www.w3.org/Graphics/SVG/1.1/DTD/svg11.dtd">
<!-- Creator: CorelDRAW 2018 (64 Bit) -->
<svg xmlns="http://www.w3.org/2000/svg" xml:space="preserve" width="50.7998mm" height="50.7998mm" version="1.1" style="shape-rendering:geometricPrecision; text-rendering:geometricPrecision; image-rendering:optimizeQuality; fill-rule:evenodd; clip-rule:evenodd"
viewBox="0 0 5079.98 5079.98"
 xmlns:xlink="http://www.w3.org/1999/xlink">
 <defs>
  <style type="text/css">
   <![CDATA[
    .fil0 {fill:#660066}
    .fil1 {fill:white}
    .fil2 {fill:white;fill-rule:nonzero}
   ]]>
  </style>
 </defs>
 <g id="Camada_x0020_1">
  <metadata id="CorelCorpID_0Corel-Layer"/>
  <rect class="fil0" x="-0.01" y="-0.01" width="5080" height="5080"/>
  <g id="_2229237532288">
   <path class="fil1" d="M3280.82 1519.36l0 1566.66 423.33 0 0 -1869.73 -423.33 303.07zm-1905 1363.81l0 202.85 423.33 0 0 -505.92 -423.33 303.07zm635 -454.6l0 657.45 423.33 0 0 -960.52 -423.33 303.07zm635 -454.61l0 1112.06 423.33 0 0 -1415.13 -423.33 303.07z"/>
   <path class="fil2" d="M2431.78 1842.2l738.26 -497.71 53.47 79.31 139.16 -324.52 -353.03 7.29 53.47 79.31 -738.26 497.71 106.93 158.61zm369.13 -248.85m395.86 -209.2m96.31 -122.61m-106.93 -158.61m-149.78 43.29m-342.39 288.52m-315.67 328.16z"/>
   <polygon class="fil2" points="1815.83,3976.81 1859.05,3724.22 2003.86,3724.22 1996.63,3766.55 1894.39,3766.55 1883.98,3827.23 1984.11,3827.23 1976.82,3869.56 1876.75,3869.56 1858.4,3976.81 "/>
   <path id="_1" class="fil2" d="M2034.91 3724.22l40.8 0 -7.76 44.8 -40.63 0 7.59 -44.8zm-11.94 69.5l40.69 0 -31.34 183.09 -40.81 0 31.46 -183.09z"/>
   <path id="_2" class="fil2" d="M2103.4 3793.72l39.04 0 -4.06 23.75c10,-10.41 19.11,-17.64 27.4,-21.64 8.29,-3.99 16.88,-5.99 25.7,-5.99 11.99,0 21.64,4.17 28.81,12.58 7.23,8.35 10.82,19.81 10.82,34.4 0,6.29 -1.47,18.4 -4.53,36.33l-17.87 103.66 -40.81 0 17.87 -103.72c2.65,-15.46 3.94,-24.75 3.94,-27.87 0,-6.46 -1.58,-11.46 -4.7,-14.93 -3.12,-3.47 -7.17,-5.18 -12.17,-5.18 -5.47,0 -11,2.18 -16.7,6.53 -8.17,6.17 -14.29,13.58 -18.23,22.11 -3.99,8.52 -7.99,24.58 -12.05,48.09l-13.11 74.97 -40.81 0 31.46 -183.09z"/>
   <path id="_3" class="fil2" d="M2305.48 3845.58l-39.51 -4.59c4.76,-16.64 12.94,-29.34 24.64,-38.04 11.64,-8.76 26.46,-13.11 44.39,-13.11 18.28,0 32.28,4.52 42.16,13.52 9.81,9.05 14.69,20.99 14.69,35.98 0,5.24 -0.47,10.82 -1.35,16.76 -0.94,5.94 -4.35,22.17 -10.35,48.63 -4.94,21.81 -7.46,37.1 -7.46,45.74 0,8.11 1.35,16.87 4.05,26.34l-40.33 0c-1.71,-6.76 -2.71,-13.82 -3.06,-21.05 -5.7,8.06 -12.35,14.23 -19.81,18.52 -7.47,4.29 -14.88,6.41 -22.29,6.41 -11.76,0 -21.58,-4.82 -29.57,-14.46 -7.94,-9.59 -11.94,-22.4 -11.94,-38.46 0,-18.46 4.71,-32.69 14.11,-42.62 9.35,-10 24.93,-16 46.92,-18.05 19.29,-1.94 32.22,-4.3 38.75,-7.06 2.18,-7 3.23,-12.58 3.23,-16.76 0,-5.41 -1.88,-9.82 -5.7,-13.17 -3.76,-3.35 -8.94,-5 -15.46,-5 -14.23,0 -22.93,6.83 -26.11,20.47zm37.4 45.86c-2.47,0.82 -5.71,1.53 -9.59,2.23 -18.52,2.71 -30.75,6.41 -36.63,11.06 -5.88,4.58 -8.82,10.81 -8.82,18.52 0,6.05 1.65,10.99 5,14.75 3.35,3.77 7.59,5.65 12.76,5.65 5.35,0 10.47,-1.59 15.4,-4.71 4.94,-3.11 8.88,-7.52 11.82,-13.17 2.94,-5.64 5.76,-14.93 8.53,-27.81l1.53 -6.52z"/>
   <path id="_4" class="fil2" d="M2441.01 3793.72l39.04 0 -4.06 23.75c10,-10.41 19.11,-17.64 27.4,-21.64 8.29,-3.99 16.88,-5.99 25.7,-5.99 11.99,0 21.64,4.17 28.81,12.58 7.23,8.35 10.82,19.81 10.82,34.4 0,6.29 -1.47,18.4 -4.53,36.33l-17.87 103.66 -40.81 0 17.87 -103.72c2.65,-15.46 3.94,-24.75 3.94,-27.87 0,-6.46 -1.58,-11.46 -4.7,-14.93 -3.12,-3.47 -7.17,-5.18 -12.17,-5.18 -5.47,0 -11,2.18 -16.7,6.53 -8.17,6.17 -14.29,13.58 -18.23,22.11 -3.99,8.52 -7.99,24.58 -12.05,48.09l-13.11 74.97 -40.81 0 31.46 -183.09z"/>
   <path id="_5" class="fil2" d="M2688.25 3907.67l39.16 7.76c-6.53,21.81 -16.23,38.16 -29.11,48.97 -12.82,10.88 -27.46,16.29 -43.92,16.29 -18.64,0 -33.69,-6.76 -45.21,-20.28 -11.47,-13.53 -17.23,-32.75 -17.23,-57.63 0,-22.34 3.88,-42.27 11.64,-59.73 7.76,-17.47 18.29,-30.69 31.57,-39.69 13.23,-9 27.4,-13.52 42.51,-13.52 17,0 30.93,5.41 41.87,16.17 10.93,10.76 17.11,25.69 18.46,44.86l-38.45 4.94c-1.83,-19.76 -9.88,-29.64 -24.17,-29.64 -6.58,0 -13.05,2.71 -19.34,8.06 -6.35,5.41 -11.94,15.05 -16.7,28.93 -4.76,13.87 -7.17,28.98 -7.17,45.39 0,10.87 2.23,19.22 6.64,24.99 4.47,5.82 9.82,8.7 16.05,8.7 6.59,0 12.88,-2.82 18.93,-8.41 6.06,-5.59 10.88,-14.29 14.47,-26.16z"/>
   <path id="_6" class="fil2" d="M2892.57 3900.61l-101.66 0 0 4.64c0,12.18 2.88,21.94 8.58,29.23 5.77,7.29 12.64,10.93 20.64,10.93 13.29,0 23.76,-8.46 31.46,-25.4l36.33 7.41c-7.11,17.82 -16.58,31.16 -28.4,39.98 -11.81,8.88 -25.1,13.29 -39.74,13.29 -19.52,0 -35.75,-7.58 -48.69,-22.75 -12.87,-15.23 -19.34,-35.81 -19.34,-61.86 0,-28.04 7.35,-52.8 22.05,-74.2 14.7,-21.34 35.22,-32.04 61.62,-32.04 17.81,0 32.22,6.76 43.27,20.22 11.12,13.47 16.64,32.93 16.64,58.39 0,12.05 -0.94,22.75 -2.76,32.16zm-34.46 -29.99l0.18 -4.82c0,-13.82 -2.53,-24.1 -7.64,-30.75 -5.06,-6.64 -11.65,-9.94 -19.76,-9.94 -8.23,0 -15.7,3.83 -22.4,11.53 -6.7,7.64 -11.17,18.99 -13.46,33.98l63.08 0z"/>
   <path id="_7" class="fil2" d="M2951.43 3724.22l40.8 0 -7.76 44.8 -40.63 0 7.59 -44.8zm-11.94 69.5l40.69 0 -31.34 183.09 -40.81 0 31.46 -183.09z"/>
   <path id="_8" class="fil2" d="M3016.39 3793.72l38.63 0 -6.11 35.51c14.05,-26.28 29.4,-39.39 45.98,-39.39 5.76,0 11.99,1.7 18.81,5.17l-15.52 40.63c-3.71,-1.59 -7.59,-2.41 -11.64,-2.41 -6.35,0 -12.29,2.12 -17.88,6.35 -8.4,6.53 -14.87,15.11 -19.4,25.63 -4.53,10.53 -8.94,28.64 -13.35,54.33l-10.17 57.27 -40.8 0 31.45 -183.09z"/>
   <path id="_9" class="fil2" d="M3106.59 3900.73c0,-29.93 6.76,-55.33 20.28,-76.32 15.06,-23.05 36.81,-34.57 65.27,-34.57 21.34,0 38.33,7.23 51.03,21.63 12.64,14.47 18.99,34.58 18.99,60.39 0,30.28 -7.87,55.97 -23.63,77.08 -15.82,21.17 -36.46,31.75 -61.91,31.75 -20.76,0 -37.63,-7.17 -50.57,-21.52 -12.99,-14.29 -19.46,-33.81 -19.46,-58.44zm115.36 -35.22c0,-12 -2.82,-21.46 -8.47,-28.34 -5.64,-6.88 -12.82,-10.29 -21.46,-10.29 -7.29,0 -14.17,2.53 -20.58,7.52 -6.35,5.06 -11.93,13.82 -16.76,26.29 -4.76,12.46 -7.17,25.4 -7.17,38.8 0,13.64 2.94,24.23 8.82,31.75 5.88,7.59 13.11,11.35 21.81,11.35 10.94,0 20.23,-5.82 27.87,-17.52 10.65,-15.99 15.94,-35.87 15.94,-59.56z"/>
   <path class="fil2" d="M1662.84 1904.11l0 -226.02c-70.3,-20.11 -121.78,-50.55 -154.43,-91.33 -32.84,-40.95 -49.26,-90.4 -49.26,-148.71 0,-59.04 18.63,-108.68 55.72,-148.71 37.08,-40.22 86.35,-63.28 147.97,-69.38l0 -53.13 78.6 0 0 53.13c57.57,6.84 103.32,26.39 137.45,58.68 33.95,32.29 55.72,75.46 65.13,129.53l-137.27 17.7c-8.49,-42.43 -30.26,-71.21 -65.31,-86.35l0 210.9c86.89,23.25 146.12,53.69 177.49,90.77 31.55,37.28 47.24,85.05 47.24,143.37 0,65.12 -19.74,119.92 -59.41,164.57 -39.67,44.65 -94.65,72.32 -165.32,83.39l0 100.75 -78.6 0 0 -99.63c-62,-7.57 -112.36,-30.46 -151.29,-69.01 -38.94,-38.56 -63.66,-93.18 -74.54,-163.47l140.58 -16.6c5.73,28.77 16.61,53.5 32.48,74.34 15.87,20.86 33.39,35.8 52.77,45.21zm0 -566.8c-21.22,7.57 -37.82,19.93 -50.18,37.28 -12.37,17.34 -18.46,36.33 -18.46,57.19 0,19 5.54,36.71 16.8,53.14 11.24,16.23 28.59,29.52 51.84,39.48l0 -187.09zm78.6 575.66c27.11,-5.91 49.26,-18.82 66.23,-38.75 17.16,-19.92 25.64,-43.36 25.64,-70.48 0,-23.98 -7.19,-44.84 -21.58,-62.17 -14.2,-17.54 -37.63,-30.82 -70.29,-40.24l0 211.64z"/>
  </g>
 </g>
</svg>
