<?xml version="1.0" encoding="UTF-8"?>
<!DOCTYPE svg PUBLIC "-//W3C//DTD SVG 1.1//EN" "http://www.w3.org/Graphics/SVG/1.1/DTD/svg11.dtd">
<!-- Creator: CorelDRAW 2018 (64 Bit) -->
<svg xmlns="http://www.w3.org/2000/svg" xml:space="preserve" width="50.7998mm" height="50.7998mm" version="1.1" style="shape-rendering:geometricPrecision; text-rendering:geometricPrecision; image-rendering:optimizeQuality; fill-rule:evenodd; clip-rule:evenodd"
viewBox="0 0 5079.98 5079.98"
 xmlns:xlink="http://www.w3.org/1999/xlink">
 <defs>
  <style type="text/css">
   <![CDATA[
    .fil0 {fill:#006633}
    .fil2 {fill:white}
    .fil1 {fill:white;fill-rule:nonzero}
   ]]>
  </style>
 </defs>
 <g id="Camada_x0020_1">
  <metadata id="CorelCorpID_0Corel-Layer"/>
  <g id="_2192635095632">
   <rect class="fil0" x="-0.02" y="-0.02" width="5080" height="5080"/>
   <path class="fil1" d="M940.19 3804.41l92.6 0 -18.58 108.24c-11.46,9.17 -25.22,16.58 -41.21,22.23 -15.94,5.7 -31.81,8.52 -47.57,8.52 -27.34,0 -47.98,-8.17 -61.91,-24.46 -16.64,-19.52 -24.99,-46.56 -24.99,-81.08 0,-30.1 5.7,-57.73 17.11,-82.96 11.41,-25.16 25.46,-43.57 42.16,-55.15 16.7,-11.58 35.33,-17.4 55.97,-17.4 22.7,0 41.51,6.52 56.45,19.58 14.87,13.05 24.81,32.98 29.75,59.79l-39.51 5.65c-7,-28.7 -22.52,-43.04 -46.57,-43.04 -13.05,0 -25.11,4 -36.1,11.99 -11,7.94 -20.11,20.87 -27.22,38.81 -7.18,17.93 -10.76,38.8 -10.76,62.67 0,21.52 3.99,37.22 12.05,47.22 8.05,9.99 19.64,14.99 34.81,14.99 8.52,0 16.75,-1.23 24.81,-3.76 10.93,-3.29 20.22,-7.35 27.93,-12.17l6.41 -37.34 -52.92 0 7.29 -42.33z"/>
   <path id="1" class="fil1" d="M1195.66 3862.97l-101.66 0 0 4.64c0,12.18 2.88,21.94 8.58,29.23 5.77,7.29 12.64,10.93 20.64,10.93 13.29,0 23.76,-8.46 31.46,-25.4l36.33 7.41c-7.11,17.82 -16.58,31.16 -28.4,39.98 -11.81,8.88 -25.1,13.29 -39.74,13.29 -19.52,0 -35.75,-7.58 -48.69,-22.75 -12.87,-15.23 -19.34,-35.81 -19.34,-61.86 0,-28.04 7.35,-52.8 22.05,-74.2 14.7,-21.34 35.22,-32.04 61.62,-32.04 17.81,0 32.22,6.76 43.27,20.22 11.12,13.47 16.64,32.93 16.64,58.39 0,12.05 -0.94,22.75 -2.76,32.16zm-34.46 -29.99l0.18 -4.82c0,-13.82 -2.53,-24.1 -7.64,-30.75 -5.06,-6.64 -11.65,-9.94 -19.76,-9.94 -8.23,0 -15.7,3.83 -22.4,11.53 -6.7,7.64 -11.17,18.99 -13.46,33.98l63.08 0z"/>
   <path id="2" class="fil1" d="M1239.05 3756.08l38.63 0 -6.11 35.51c14.05,-26.28 29.4,-39.39 45.98,-39.39 5.76,0 11.99,1.7 18.81,5.17l-15.52 40.63c-3.71,-1.59 -7.59,-2.41 -11.64,-2.41 -6.35,0 -12.29,2.12 -17.88,6.35 -8.4,6.53 -14.87,15.11 -19.4,25.63 -4.53,10.53 -8.94,28.64 -13.35,54.33l-10.17 57.27 -40.8 0 31.45 -183.09z"/>
   <path id="3" class="fil1" d="M1469.01 3862.97l-101.66 0 0 4.64c0,12.18 2.88,21.94 8.58,29.23 5.77,7.29 12.64,10.93 20.64,10.93 13.29,0 23.76,-8.46 31.46,-25.4l36.33 7.41c-7.11,17.82 -16.58,31.16 -28.4,39.98 -11.81,8.88 -25.1,13.29 -39.74,13.29 -19.52,0 -35.75,-7.58 -48.69,-22.75 -12.87,-15.23 -19.34,-35.81 -19.34,-61.86 0,-28.04 7.35,-52.8 22.05,-74.2 14.7,-21.34 35.22,-32.04 61.62,-32.04 17.81,0 32.22,6.76 43.27,20.22 11.12,13.47 16.64,32.93 16.64,58.39 0,12.05 -0.94,22.75 -2.76,32.16zm-34.46 -29.99l0.18 -4.82c0,-13.82 -2.53,-24.1 -7.64,-30.75 -5.06,-6.64 -11.65,-9.94 -19.76,-9.94 -8.23,0 -15.7,3.83 -22.4,11.53 -6.7,7.64 -11.17,18.99 -13.46,33.98l63.08 0z"/>
   <path id="4" class="fil1" d="M1515.93 3756.08l39.04 0 -4.06 23.75c10,-10.41 19.11,-17.64 27.4,-21.64 8.29,-3.99 16.88,-5.99 25.7,-5.99 11.99,0 21.64,4.17 28.81,12.58 7.23,8.35 10.82,19.81 10.82,34.4 0,6.29 -1.47,18.4 -4.53,36.33l-17.87 103.66 -40.81 0 17.87 -103.72c2.65,-15.46 3.94,-24.75 3.94,-27.87 0,-6.46 -1.58,-11.46 -4.7,-14.93 -3.12,-3.47 -7.17,-5.18 -12.17,-5.18 -5.47,0 -11,2.18 -16.7,6.53 -8.17,6.17 -14.29,13.58 -18.23,22.11 -3.99,8.52 -7.99,24.58 -12.05,48.09l-13.11 74.97 -40.81 0 31.46 -183.09z"/>
   <path id="5" class="fil1" d="M1763.17 3870.03l39.16 7.76c-6.53,21.81 -16.23,38.16 -29.11,48.97 -12.82,10.88 -27.46,16.29 -43.92,16.29 -18.64,0 -33.69,-6.76 -45.21,-20.28 -11.47,-13.53 -17.23,-32.75 -17.23,-57.63 0,-22.34 3.88,-42.27 11.64,-59.73 7.76,-17.47 18.29,-30.69 31.57,-39.69 13.23,-9 27.4,-13.52 42.51,-13.52 17,0 30.93,5.41 41.87,16.17 10.93,10.76 17.11,25.69 18.46,44.86l-38.45 4.94c-1.83,-19.76 -9.88,-29.64 -24.17,-29.64 -6.58,0 -13.05,2.71 -19.34,8.06 -6.35,5.41 -11.94,15.05 -16.7,28.93 -4.76,13.87 -7.17,28.98 -7.17,45.39 0,10.87 2.23,19.22 6.64,24.99 4.47,5.82 9.82,8.7 16.05,8.7 6.59,0 12.88,-2.82 18.93,-8.41 6.06,-5.59 10.88,-14.29 14.47,-26.16z"/>
   <path id="6" class="fil1" d="M1865.48 3686.58l40.8 0 -7.76 44.8 -40.63 0 7.59 -44.8zm-11.94 69.5l40.69 0 -31.34 183.09 -40.81 0 31.46 -183.09z"/>
   <path id="7" class="fil1" d="M1959.31 3807.94l-39.51 -4.59c4.76,-16.64 12.94,-29.34 24.64,-38.04 11.64,-8.76 26.46,-13.11 44.39,-13.11 18.28,0 32.28,4.52 42.16,13.52 9.81,9.05 14.69,20.99 14.69,35.98 0,5.24 -0.47,10.82 -1.35,16.76 -0.94,5.94 -4.35,22.17 -10.35,48.63 -4.94,21.81 -7.46,37.1 -7.46,45.74 0,8.11 1.35,16.87 4.05,26.34l-40.33 0c-1.71,-6.76 -2.71,-13.82 -3.06,-21.05 -5.7,8.06 -12.35,14.23 -19.81,18.52 -7.47,4.29 -14.88,6.41 -22.29,6.41 -11.76,0 -21.58,-4.82 -29.57,-14.46 -7.94,-9.59 -11.94,-22.4 -11.94,-38.46 0,-18.46 4.71,-32.69 14.11,-42.62 9.35,-10 24.93,-16 46.92,-18.05 19.29,-1.94 32.22,-4.3 38.75,-7.06 2.18,-7 3.23,-12.58 3.23,-16.76 0,-5.41 -1.88,-9.82 -5.7,-13.17 -3.76,-3.35 -8.94,-5 -15.46,-5 -14.23,0 -22.93,6.83 -26.11,20.47zm37.4 45.86c-2.47,0.82 -5.71,1.53 -9.59,2.23 -18.52,2.71 -30.75,6.41 -36.63,11.06 -5.88,4.58 -8.82,10.81 -8.82,18.52 0,6.05 1.65,10.99 5,14.75 3.35,3.77 7.59,5.65 12.76,5.65 5.35,0 10.47,-1.59 15.4,-4.71 4.94,-3.11 8.88,-7.52 11.82,-13.17 2.94,-5.64 5.76,-14.93 8.53,-27.81l1.53 -6.52z"/>
   <path id="8" class="fil1" d="M2091.31 3756.08l39.04 0 -4.05 22.58c15.11,-17.64 30.92,-26.46 47.45,-26.46 22.1,0 34.92,10.76 38.39,32.33 5.47,-9.46 13.11,-17.22 22.99,-23.28 9.88,-6.05 19.87,-9.05 29.93,-9.05 11.87,0 21.22,3.76 28.22,11.29 6.94,7.52 10.47,18.05 10.47,31.51 0,6.29 -1.36,17.17 -4,32.52l-19.17 111.65 -40.81 0 19.17 -111.77c2.41,-14.05 3.65,-21.93 3.65,-23.76 0,-5.23 -1.35,-9.23 -4.06,-11.99 -2.65,-2.76 -6.35,-4.18 -10.99,-4.18 -9.94,0 -18.88,6.06 -26.87,18.17 -6.3,9.53 -11.53,26.28 -15.76,50.33l-14.29 83.2 -40.8 0 18.99 -110.6c2.17,-12.76 3.29,-20.93 3.29,-24.57 0,-5.12 -1.41,-9.12 -4.29,-12.12 -2.88,-2.94 -6.53,-4.41 -10.94,-4.41 -5.94,0 -12.11,2.77 -18.46,8.35 -6.35,5.53 -11.41,13.64 -15.11,24.35 -2.24,6.29 -4.88,17.99 -7.88,35.1l-14.76 83.9 -40.8 0 31.45 -183.09z"/>
   <path id="9" class="fil1" d="M2465.97 3862.97l-101.66 0 0 4.64c0,12.18 2.88,21.94 8.58,29.23 5.77,7.29 12.64,10.93 20.64,10.93 13.29,0 23.76,-8.46 31.46,-25.4l36.33 7.41c-7.11,17.82 -16.58,31.16 -28.4,39.98 -11.81,8.88 -25.1,13.29 -39.74,13.29 -19.52,0 -35.75,-7.58 -48.69,-22.75 -12.87,-15.23 -19.34,-35.81 -19.34,-61.86 0,-28.04 7.35,-52.8 22.05,-74.2 14.7,-21.34 35.22,-32.04 61.62,-32.04 17.81,0 32.22,6.76 43.27,20.22 11.12,13.47 16.64,32.93 16.64,58.39 0,12.05 -0.94,22.75 -2.76,32.16zm-34.46 -29.99l0.18 -4.82c0,-13.82 -2.53,-24.1 -7.64,-30.75 -5.06,-6.64 -11.65,-9.94 -19.76,-9.94 -8.23,0 -15.7,3.83 -22.4,11.53 -6.7,7.64 -11.17,18.99 -13.46,33.98l63.08 0z"/>
   <path id="10" class="fil1" d="M2512.89 3756.08l39.04 0 -4.06 23.75c10,-10.41 19.11,-17.64 27.4,-21.64 8.29,-3.99 16.88,-5.99 25.7,-5.99 11.99,0 21.64,4.17 28.81,12.58 7.23,8.35 10.82,19.81 10.82,34.4 0,6.29 -1.47,18.4 -4.53,36.33l-17.87 103.66 -40.81 0 17.87 -103.72c2.65,-15.46 3.94,-24.75 3.94,-27.87 0,-6.46 -1.58,-11.46 -4.7,-14.93 -3.12,-3.47 -7.17,-5.18 -12.17,-5.18 -5.47,0 -11,2.18 -16.7,6.53 -8.17,6.17 -14.29,13.58 -18.23,22.11 -3.99,8.52 -7.99,24.58 -12.05,48.09l-13.11 74.97 -40.81 0 31.46 -183.09z"/>
   <path id="11" class="fil1" d="M2665.94 3792.77l6.58 -36.69 21.05 0 5.12 -29.17 47.44 -34.63 -11.7 63.8 25.7 0 -6.23 36.69 -26.11 0 -14.23 76.55c-2.47,13.76 -3.7,21.75 -3.7,23.93 0,4.06 1.06,7.11 3.23,9.11 2.18,1.94 5.94,2.94 11.23,2.94 1.71,0 6.35,-0.41 13.94,-1.23l-6.71 36.57c-7.17,1.59 -14.4,2.41 -21.69,2.41 -14.11,0 -24.64,-3.17 -31.64,-9.58 -6.99,-6.41 -10.52,-15.76 -10.52,-28.11 0,-5.7 1.82,-18.7 5.53,-38.92l13.46 -73.67 -20.75 0z"/>
   <path id="12" class="fil1" d="M2760.13 3863.09c0,-29.93 6.76,-55.33 20.28,-76.32 15.06,-23.05 36.81,-34.57 65.27,-34.57 21.34,0 38.33,7.23 51.03,21.63 12.64,14.47 18.99,34.58 18.99,60.39 0,30.28 -7.87,55.97 -23.63,77.08 -15.82,21.17 -36.46,31.75 -61.91,31.75 -20.76,0 -37.63,-7.17 -50.57,-21.52 -12.99,-14.29 -19.46,-33.81 -19.46,-58.44zm115.36 -35.22c0,-12 -2.82,-21.46 -8.47,-28.34 -5.64,-6.88 -12.82,-10.29 -21.46,-10.29 -7.29,0 -14.17,2.53 -20.58,7.52 -6.35,5.06 -11.93,13.82 -16.76,26.29 -4.76,12.46 -7.17,25.4 -7.17,38.8 0,13.64 2.94,24.23 8.82,31.75 5.88,7.59 13.11,11.35 21.81,11.35 10.94,0 20.23,-5.82 27.87,-17.52 10.65,-15.99 15.94,-35.87 15.94,-59.56z"/>
   <path id="13" class="fil1" d="M3146.77 3939.17l-38.45 0 3.64 -20.17c-7.35,8.88 -14.52,15.11 -21.46,18.7 -6.94,3.59 -14.58,5.35 -22.81,5.35 -14.88,0 -27.11,-6.35 -36.57,-19.11 -9.47,-12.7 -14.17,-31.87 -14.17,-57.38 0,-30.17 6.82,-56.74 20.52,-79.79 13.7,-23.05 31.22,-34.57 52.56,-34.57 19.81,0 34.69,9.7 44.63,29.1l17.05 -94.72 40.27 0 -45.21 252.59zm-90.31 -74.67c0,13.29 2.64,23.52 7.88,30.69 5.29,7.23 11.64,10.82 19.22,10.82 6.18,0 12.23,-2.47 18.05,-7.47 5.88,-4.94 11,-13.76 15.41,-26.34 4.35,-12.58 6.52,-25.52 6.52,-38.92 0,-13.7 -2.82,-24.58 -8.46,-32.63 -5.65,-8.06 -12.11,-12.12 -19.41,-12.12 -5.64,0 -11.4,2.59 -17.28,7.82 -5.88,5.18 -11,14.29 -15.35,27.23 -4.41,12.99 -6.58,26.63 -6.58,40.92z"/>
   <path id="14" class="fil1" d="M3333.8 3862.97l-101.66 0 0 4.64c0,12.18 2.88,21.94 8.58,29.23 5.77,7.29 12.64,10.93 20.64,10.93 13.29,0 23.76,-8.46 31.46,-25.4l36.33 7.41c-7.11,17.82 -16.58,31.16 -28.4,39.98 -11.81,8.88 -25.1,13.29 -39.74,13.29 -19.52,0 -35.75,-7.58 -48.69,-22.75 -12.87,-15.23 -19.34,-35.81 -19.34,-61.86 0,-28.04 7.35,-52.8 22.05,-74.2 14.7,-21.34 35.22,-32.04 61.62,-32.04 17.81,0 32.22,6.76 43.27,20.22 11.12,13.47 16.64,32.93 16.64,58.39 0,12.05 -0.94,22.75 -2.76,32.16zm-34.46 -29.99l0.18 -4.82c0,-13.82 -2.53,-24.1 -7.64,-30.75 -5.06,-6.64 -11.65,-9.94 -19.76,-9.94 -8.23,0 -15.7,3.83 -22.4,11.53 -6.7,7.64 -11.17,18.99 -13.46,33.98l63.08 0z"/>
   <polygon id="15" class="fil1" points="3430.75,3939.17 3473.97,3686.58 3618.78,3686.58 3611.55,3728.91 3509.31,3728.91 3498.9,3789.59 3599.03,3789.59 3591.74,3831.92 3491.67,3831.92 3473.32,3939.17 "/>
   <path id="16" class="fil1" d="M3634.36 3756.08l38.63 0 -6.11 35.51c14.05,-26.28 29.4,-39.39 45.98,-39.39 5.76,0 11.99,1.7 18.81,5.17l-15.52 40.63c-3.71,-1.59 -7.59,-2.41 -11.64,-2.41 -6.35,0 -12.29,2.12 -17.88,6.35 -8.4,6.53 -14.87,15.11 -19.4,25.63 -4.53,10.53 -8.94,28.64 -13.35,54.33l-10.17 57.27 -40.8 0 31.45 -183.09z"/>
   <path id="17" class="fil1" d="M3724.56 3863.09c0,-29.93 6.76,-55.33 20.28,-76.32 15.06,-23.05 36.81,-34.57 65.27,-34.57 21.34,0 38.33,7.23 51.03,21.63 12.64,14.47 18.99,34.58 18.99,60.39 0,30.28 -7.87,55.97 -23.63,77.08 -15.82,21.17 -36.46,31.75 -61.91,31.75 -20.76,0 -37.63,-7.17 -50.57,-21.52 -12.99,-14.29 -19.46,-33.81 -19.46,-58.44zm115.36 -35.22c0,-12 -2.82,-21.46 -8.47,-28.34 -5.64,-6.88 -12.82,-10.29 -21.46,-10.29 -7.29,0 -14.17,2.53 -20.58,7.52 -6.35,5.06 -11.93,13.82 -16.76,26.29 -4.76,12.46 -7.17,25.4 -7.17,38.8 0,13.64 2.94,24.23 8.82,31.75 5.88,7.59 13.11,11.35 21.81,11.35 10.94,0 20.23,-5.82 27.87,-17.52 10.65,-15.99 15.94,-35.87 15.94,-59.56z"/>
   <path id="18" class="fil1" d="M3903.42 3792.77l6.58 -36.69 21.05 0 5.12 -29.17 47.44 -34.63 -11.7 63.8 25.7 0 -6.23 36.69 -26.11 0 -14.23 76.55c-2.47,13.76 -3.7,21.75 -3.7,23.93 0,4.06 1.06,7.11 3.23,9.11 2.18,1.94 5.94,2.94 11.23,2.94 1.71,0 6.35,-0.41 13.94,-1.23l-6.71 36.57c-7.17,1.59 -14.4,2.41 -21.69,2.41 -14.11,0 -24.64,-3.17 -31.64,-9.58 -6.99,-6.41 -10.52,-15.76 -10.52,-28.11 0,-5.7 1.82,-18.7 5.53,-38.92l13.46 -73.67 -20.75 0z"/>
   <path id="19" class="fil1" d="M4048.76 3807.94l-39.51 -4.59c4.76,-16.64 12.94,-29.34 24.64,-38.04 11.64,-8.76 26.46,-13.11 44.39,-13.11 18.28,0 32.28,4.52 42.16,13.52 9.81,9.05 14.69,20.99 14.69,35.98 0,5.24 -0.47,10.82 -1.35,16.76 -0.94,5.94 -4.35,22.17 -10.35,48.63 -4.94,21.81 -7.46,37.1 -7.46,45.74 0,8.11 1.35,16.87 4.05,26.34l-40.33 0c-1.71,-6.76 -2.71,-13.82 -3.06,-21.05 -5.7,8.06 -12.35,14.23 -19.81,18.52 -7.47,4.29 -14.88,6.41 -22.29,6.41 -11.76,0 -21.58,-4.82 -29.57,-14.46 -7.94,-9.59 -11.94,-22.4 -11.94,-38.46 0,-18.46 4.71,-32.69 14.11,-42.62 9.35,-10 24.93,-16 46.92,-18.05 19.29,-1.94 32.22,-4.3 38.75,-7.06 2.18,-7 3.23,-12.58 3.23,-16.76 0,-5.41 -1.88,-9.82 -5.7,-13.17 -3.76,-3.35 -8.94,-5 -15.46,-5 -14.23,0 -22.93,6.83 -26.11,20.47zm37.4 45.86c-2.47,0.82 -5.71,1.53 -9.59,2.23 -18.52,2.71 -30.75,6.41 -36.63,11.06 -5.88,4.58 -8.82,10.81 -8.82,18.52 0,6.05 1.65,10.99 5,14.75 3.35,3.77 7.59,5.65 12.76,5.65 5.35,0 10.47,-1.59 15.4,-4.71 4.94,-3.11 8.88,-7.52 11.82,-13.17 2.94,-5.64 5.76,-14.93 8.53,-27.81l1.53 -6.52z"/>
   <path id="20" class="fil1" d="M4147.19 3887.66l39.16 -7.76c3.47,10.41 7.82,17.64 13.17,21.7 5.29,4.11 12.29,6.17 21.05,6.17 8.47,0 15.23,-2 20.46,-6.05 5.17,-4 7.76,-8.76 7.76,-14.17 0,-3.65 -1.12,-6.77 -3.29,-9.29 -2.3,-2.41 -7.82,-5.35 -16.58,-8.76 -24.29,-9.65 -39.34,-17.29 -45.22,-22.93 -9.29,-9 -13.93,-20.82 -13.93,-35.34 0,-17.17 6.05,-31.28 18.22,-42.39 12.18,-11.12 28.87,-16.64 49.98,-16.64 35.81,0 56.56,15.99 62.33,47.97l-37.4 7.77c-4.35,-14.59 -14.81,-21.88 -31.28,-21.88 -7.82,0 -13.7,1.59 -17.75,4.77 -4,3.17 -6,7.23 -6,12.11 0,4.11 1.59,7.58 4.76,10.46 2.29,2.12 10.23,5.65 23.81,10.47 19.35,6.94 32.4,13.7 39.04,20.23 9.71,9.52 14.59,21.1 14.59,34.74 0,18.47 -6.24,33.81 -18.76,45.98 -12.52,12.17 -29.16,18.23 -49.86,18.23 -40.63,0 -65.38,-18.46 -74.26,-55.39z"/>
   <path class="fil2" d="M2597.49 2366.69c0,0 54.78,-165.21 62.61,-181.74 7.82,-16.53 15.65,-43.48 70.44,-43.48 54.78,0 308.7,0 308.7,0 0,0 42.61,-12.18 60.87,32.17 18.26,44.36 71.31,179.14 71.31,179.14l0 269.57c0,0 -3.04,32.19 -46.09,32.19 -43.04,0 -53.79,-16.04 -53.79,-31.06 0,-15.03 0,-39.82 0,-39.82l-379.27 0 0 41.74c0,0 -3.86,27.92 -48.34,27.92 -44.49,0 -52.14,-30.1 -52.14,-30.1l5.7 -256.53zm1105.36 477.07l-201.36 -201.35 3.88 -3.88 -623.76 510.37c-292.2,-239 -584.32,-478.08 -876.46,-717.13l-537.85 -16.29c-2.55,88.23 -39.36,167.9 -97.58,226.12 -60.39,60.39 -143.81,97.74 -235.95,97.74 -92.15,0 -175.57,-37.35 -235.96,-97.74 -60.38,-60.38 -97.73,-143.81 -97.73,-235.94 0,-92.15 37.35,-175.57 97.73,-235.96 60.39,-60.39 143.81,-97.73 235.96,-97.73 92.14,0 175.56,37.34 235.95,97.73 60.38,60.39 97.73,143.81 97.73,235.96l0.27 -9.82 538.27 16.29 447.88 -366.51 -285.49 -285.49 14.01 -14c-69.18,50.9 -154.62,80.97 -247.08,80.97 -115.26,0 -219.61,-46.72 -295.15,-122.26 -75.54,-75.53 -122.26,-179.89 -122.26,-295.14 0,-115.27 46.72,-219.62 122.26,-295.16 75.54,-75.54 179.89,-122.26 295.15,-122.26 115.25,0 219.61,46.72 295.14,122.26 75.54,75.54 122.26,179.89 122.26,295.16 0,115.25 -46.72,219.61 -122.26,295.14 -10.28,10.28 -21.09,20.03 -32.4,29.19l286.49 286.5 397.07 -324.84c155.15,126.9 310.27,253.84 465.39,380.78l173.73 -151.16c-73.32,-78.4 -118.19,-183.75 -118.19,-299.55 0,-121.14 49.09,-230.81 128.48,-310.19 79.39,-79.39 189.06,-128.49 310.2,-128.49 121.13,0 230.81,49.1 310.19,128.49 79.39,79.38 128.49,189.05 128.49,310.19 0,121.13 -49.1,230.81 -128.49,310.19 -79.38,79.4 -189.06,128.49 -310.19,128.49 -121.12,0 -230.79,-49.09 -310.16,-128.46l9.67 11.12 -170.52 148.36 399.44 326.84 -6.99 5.71 -250.05 204.6 199.83 199.84c7.9,-10.68 16.57,-20.75 25.95,-30.13 48.06,-48.07 114.47,-77.8 187.81,-77.8 73.35,0 139.76,29.73 187.82,77.8 48.07,48.07 77.8,114.47 77.8,187.82 0,73.35 -29.73,139.75 -77.8,187.81 -48.06,48.08 -114.47,77.81 -187.82,77.81 -73.34,0 -139.75,-29.73 -187.81,-77.81 -48.07,-48.06 -77.81,-114.46 -77.81,-187.81 0,-56.36 17.56,-108.63 47.5,-151.61l-5.23 5.23zm-1214.51 -807.2l-21.76 21.77 -2.18 -2.18 -447.49 366.15 -0.01 0 864.71 707.51 864.7 -707.51 -864.7 -707.52 -393.27 321.78zm1125.47 -442.74c0,0 44.9,-135.45 51.33,-148.99 6.41,-13.56 12.82,-35.65 57.73,-35.65 44.92,0 253.09,0 253.09,0 0,0 34.93,-9.99 49.9,26.38 14.97,36.35 58.46,146.85 58.46,146.85l0 221.01c0,0 -2.5,26.37 -37.78,26.37 -35.29,0 -44.11,-13.14 -44.11,-25.46 0,-12.32 0,-32.64 0,-32.64l-310.92 0 0 34.22c0,0 -3.17,22.88 -39.63,22.88 -36.48,0 -42.74,-24.67 -42.74,-24.67l4.67 -210.3zm227.41 430.21c109.98,0 209.54,-44.58 281.61,-116.66 72.08,-72.06 116.66,-171.63 116.66,-281.61 0,-109.98 -44.58,-209.54 -116.66,-281.62 -72.07,-72.07 -171.63,-116.65 -281.61,-116.65 -109.98,0 -209.55,44.58 -281.62,116.65 -72.07,72.08 -116.65,171.64 -116.65,281.62 0,109.98 44.58,209.55 116.65,281.61 72.07,72.08 171.64,116.66 281.62,116.66zm-135.46 -575.65l282.31 0 42.78 114.06 -367.15 0 42.06 -114.06zm286.45 244.18c18.9,0 34.22,-15.33 34.22,-34.22 0,-18.9 -15.32,-34.23 -34.22,-34.23 -18.9,0 -34.22,15.33 -34.22,34.23 0,18.89 15.32,34.22 34.22,34.22zm-289.55 0c18.9,0 34.23,-15.33 34.23,-34.22 0,-18.9 -15.33,-34.23 -34.23,-34.23 -18.89,0 -34.21,15.33 -34.21,34.23 0,18.89 15.32,34.22 34.21,34.22zm85.85 1278.24c0,0 27.19,-82.02 31.08,-90.21 3.88,-8.21 7.77,-21.59 34.95,-21.59 27.2,0 153.24,0 153.24,0 0,0 21.16,-6.04 30.22,15.97 9.07,22.01 35.4,88.92 35.4,88.92l0 133.82c0,0 -1.51,15.97 -22.88,15.97 -21.36,0 -26.71,-7.96 -26.71,-15.42 0,-7.46 0,-19.77 0,-19.77l-188.25 0 0 20.73c0,0 -1.92,13.85 -24,13.85 -22.08,0 -25.88,-14.94 -25.88,-14.94l2.83 -127.33zm137.69 260.48c66.59,0 126.88,-26.99 170.51,-70.63 43.65,-43.63 70.64,-103.92 70.64,-170.51 0,-66.59 -26.99,-126.88 -70.64,-170.52 -43.63,-43.63 -103.92,-70.63 -170.51,-70.63 -66.59,0 -126.88,27 -170.51,70.63 -43.64,43.64 -70.63,103.93 -70.63,170.52 0,66.59 26.99,126.88 70.63,170.51 43.63,43.64 103.92,70.63 170.51,70.63zm-82.01 -348.54l170.93 0 25.9 69.06 -222.3 0 25.47 -69.06zm173.44 147.85c11.44,0 20.72,-9.28 20.72,-20.72 0,-11.45 -9.28,-20.73 -20.72,-20.73 -11.45,0 -20.72,9.28 -20.72,20.73 0,11.44 9.27,20.72 20.72,20.72zm-175.32 0c11.44,0 20.72,-9.28 20.72,-20.72 0,-11.45 -9.28,-20.73 -20.72,-20.73 -11.44,0 -20.72,9.28 -20.72,20.73 0,11.44 9.28,20.72 20.72,20.72zm-2123.38 -1651.29c0,0 42.73,-128.88 48.83,-141.77 6.11,-12.89 12.21,-33.91 54.95,-33.91 42.73,0 240.8,0 240.8,0 0,0 33.24,-9.51 47.49,25.09 14.24,34.59 55.62,139.74 55.62,139.74l0 210.28c0,0 -2.37,25.1 -35.95,25.1 -33.58,0 -41.97,-12.51 -41.97,-24.23 0,-11.72 0,-31.05 0,-31.05l-295.84 0 0 32.56c0,0 -3.01,21.77 -37.71,21.77 -34.7,0 -40.67,-23.48 -40.67,-23.48l4.45 -200.1zm216.38 409.34c104.65,0 199.39,-42.41 267.96,-110.99 68.58,-68.57 110.99,-163.31 110.99,-267.95 0,-104.65 -42.41,-199.39 -110.99,-267.97 -68.57,-68.57 -163.31,-110.99 -267.96,-110.99 -104.65,0 -199.38,42.42 -267.96,110.99 -68.58,68.58 -111,163.32 -111,267.97 0,104.64 42.42,199.38 111,267.95 68.58,68.58 163.31,110.99 267.96,110.99zm-128.89 -547.72l268.62 0 40.7 108.53 -349.34 0 40.02 -108.53zm272.55 232.33c17.99,0 32.57,-14.58 32.57,-32.56 0,-17.98 -14.58,-32.56 -32.57,-32.56 -17.97,0 -32.56,14.58 -32.56,32.56 0,17.98 14.59,32.56 32.56,32.56zm-275.49 0c17.97,0 32.55,-14.58 32.55,-32.56 0,-17.98 -14.58,-32.56 -32.55,-32.56 -17.99,0 -32.56,14.58 -32.56,32.56 0,17.98 14.57,32.56 32.56,32.56zm1078.13 1471.37l638.37 -522.32 -638.37 -522.33 -638.37 522.33 638.37 522.32zm703.77 -499.44l-703.77 575.83 -731.74 -598.71 731.74 -598.72 731.74 598.72 -27.97 22.88zm-2624.6 -63.82c0,0 34.16,-103.03 39.05,-113.34 4.88,-10.3 9.76,-27.11 43.92,-27.11 34.16,0 192.51,0 192.51,0 0,0 26.57,-7.6 37.95,20.06 11.4,27.66 44.47,111.71 44.47,111.71l0 168.11c0,0 -1.89,20.07 -28.73,20.07 -26.85,0 -33.55,-10 -33.55,-19.37 0,-9.37 0,-24.83 0,-24.83l-236.51 0 0 26.03c0,0 -2.41,17.4 -30.15,17.4 -27.74,0 -32.51,-18.76 -32.51,-18.76l3.55 -159.97zm172.99 327.24c83.66,0 159.39,-33.91 214.21,-88.73 54.83,-54.82 88.73,-130.56 88.73,-214.21 0,-83.66 -33.9,-159.4 -88.73,-214.22 -54.82,-54.82 -130.55,-88.73 -214.21,-88.73 -83.66,0 -159.4,33.91 -214.22,88.73 -54.81,54.82 -88.73,130.56 -88.73,214.22 0,83.65 33.92,159.39 88.73,214.21 54.82,54.82 130.56,88.73 214.22,88.73zm-103.04 -437.87l214.74 0 32.54 86.77 -279.28 0 32 -86.77zm217.89 185.74c14.38,0 26.03,-11.66 26.03,-26.03 0,-14.38 -11.65,-26.04 -26.03,-26.04 -14.38,0 -26.03,11.66 -26.03,26.04 0,14.37 11.65,26.03 26.03,26.03zm-220.25 0c14.38,0 26.03,-11.66 26.03,-26.03 0,-14.38 -11.65,-26.04 -26.03,-26.04 -14.37,0 -26.02,11.66 -26.02,26.04 0,14.37 11.65,26.03 26.02,26.03zm1681.29 -267.17l344.36 0 52.17 139.13 -447.84 0 51.31 -139.13zm349.4 297.84c23.06,0 41.75,-18.69 41.75,-41.75 0,-23.05 -18.69,-41.74 -41.75,-41.74 -23.04,0 -41.73,18.69 -41.73,41.74 0,23.06 18.69,41.75 41.73,41.75zm-353.18 0c23.05,0 41.74,-18.69 41.74,-41.75 0,-23.05 -18.69,-41.74 -41.74,-41.74 -23.05,0 -41.74,18.69 -41.74,41.74 0,23.06 18.69,41.75 41.74,41.75z"/>
  </g>
 </g>
</svg>
