<?xml version="1.0" encoding="UTF-8"?>
<!DOCTYPE svg PUBLIC "-//W3C//DTD SVG 1.1//EN" "http://www.w3.org/Graphics/SVG/1.1/DTD/svg11.dtd">
<!-- Creator: CorelDRAW 2018 (64 Bit) -->
<svg xmlns="http://www.w3.org/2000/svg" xml:space="preserve" width="50.7998mm" height="50.7998mm" version="1.1" style="shape-rendering:geometricPrecision; text-rendering:geometricPrecision; image-rendering:optimizeQuality; fill-rule:evenodd; clip-rule:evenodd"
viewBox="0 0 5079.98 5079.98"
 xmlns:xlink="http://www.w3.org/1999/xlink">
 <defs>
  <style type="text/css">
   <![CDATA[
    .fil0 {fill:red}
    .fil1 {fill:white}
    .fil2 {fill:white;fill-rule:nonzero}
   ]]>
  </style>
 </defs>
 <g id="Camada_x0020_1">
  <metadata id="CorelCorpID_0Corel-Layer"/>
  <g id="_2230026774800">
   <rect class="fil0" x="-0.02" y="-0.02" width="5080" height="5080"/>
   <g>
    <path class="fil1" d="M2406.43 2387.33l-0.63 78.98c190.2,3.74 397.95,0.08 591.25,0.11 96.18,0.01 62.85,5.75 156.08,-42.11 58.94,-30.26 344.34,-185.1 397,-194.74 54.13,-9.9 123.36,7.13 155.48,37.45 -126.66,77.14 -279.02,175.46 -403.15,247.34l-201.82 123.35c-24.86,11.98 -981.34,190.6 -1088.49,212.45 -60.91,12.42 -252.15,15.24 -315.63,9.42 0,-72.91 -0.05,-145.2 -0.02,-218.04 0.02,-63.46 -6.56,-49.02 27.3,-82.84 19.32,-19.3 35.9,-36.04 55.45,-55.45l222.4 -221.26c51.7,-41.97 84.34,-52.82 167.31,-52.72 88.75,0.1 624.43,-3.97 663.02,0.98 -9.8,69.99 -72.91,132.75 -136.42,150.42 -52.07,14.48 -223.6,6.23 -289.13,6.66zm429.58 -1.62c16.4,-14.04 48.61,-62.65 61.3,-95.45 16.42,-42.43 20.21,-91.03 18.28,-140.07 -256.21,-0.41 -512.63,-0.73 -768.82,-0.03 -170.35,0.46 -231.27,111.99 -351.87,224.55 -24.51,22.88 -73.44,70.07 -95.42,96.39 -11.8,-8.77 -14.29,-5.54 -44.36,-5.35l-352.16 0.28 0.36 79.18 314.22 -0.21 -0.15 551.05 -313.44 1.01 -0.5 79.46 391.36 -0.29 1.74 -235.6c73.63,-7.38 176.99,-0.17 254.48,-0.94 55.31,-0.55 949.3,-181.02 1076.41,-205.14 24.45,-4.64 84.13,-13.01 103.21,-22.11l635.28 -388.89c34,-22.05 42.94,-54.18 24.62,-87.35 -21.05,-38.11 -118.21,-80.72 -171.33,-87.08 -91.28,-10.92 -134.63,17.81 -200.05,49.24 -97.34,46.78 -239.5,122.78 -339.37,174.85 -40.99,21.38 -52.1,14.08 -116.02,14.08 -33.24,0 -98.38,3.6 -127.77,-1.58z"/>
    <path class="fil1" d="M3124.91 1438.44l-158.64 0.52 -0.49 -155.7 315.86 -1.5 1.84 70.54 77.13 0.86 2.03 -71.44 390.56 0.13 0.58 156.96 -232.9 0.13 -0.5 -78.97 -79.69 0.45 0.19 78.94 -235.6 -0.19 -1.29 -78.94 -76.51 0.12 -2.57 78.09zm-1262.84 -394.44l78.75 1.41c1.09,-31.62 15.04,-52.55 34,-65.64 25.88,-17.85 55.7,-13.69 90.64,-13.69l613.66 0c57.58,0.14 145.42,-11.58 182.91,21.16 36.31,31.71 24.58,122.26 24.65,179.29 0.17,136.78 0,273.56 0,410.34 0,74.52 14.07,134.6 -37.89,165.73 -29.82,17.86 -49.79,12.06 -88.34,12.12 -34.51,0.06 -69,-0.07 -103.51,0.03l-613.67 0.07c-76.09,0.3 -103.02,-28.49 -102.81,-103.99 0.17,-59.03 3.95,-379.26 -1.57,-409.34l-75.92 0.3c-8.91,44.57 -1.83,194.3 -1.83,250.06 0,62.18 -8.33,190.18 10.86,241.38 20.57,54.86 74.85,99.93 149.16,100.46l757.78 -0.07c241.5,-2.2 175,-204.62 187.86,-315.52 247.81,4.63 514.27,-0.14 765.92,0.33 109.61,0.2 100.52,-62.19 100.52,-159.67 0,-96.87 9.15,-156.69 -100.52,-156.37 -59.26,0.17 -740.3,3.25 -766.28,-1.22 -9.51,-100.91 37.23,-237.79 -92.79,-299.82 -53.18,-25.38 -301.75,-14.42 -379.36,-14.42 -131.86,0 -263.71,-0.07 -395.56,0.01 -91.83,0.05 -161.93,-8.58 -215.27,78.92 -15.16,24.86 -19.84,43.74 -21.39,78.14z"/>
    <path class="fil1" d="M2098.25 1419.49l76.76 0.37 2 176.86 -79.28 -0.14 0.52 -177.09zm-296.3 374.49l0.2 -78.65c-272.47,-16.72 -382.81,-299.52 -218.5,-494.63 58.31,-69.24 191.41,-130.1 321.14,-78.34 29.25,11.67 46.56,21.74 69.57,37.82 56.71,39.63 121.48,129.02 120.25,207.11l-75.66 0.57 0.14 286.82 236.4 1.11 0.45 -629.33 -196.57 -1.45 -1.01 78.36 116.85 0.74 1.59 247.09c-16.47,-31.64 -15.29,-108.58 -85.34,-190.05 -36.46,-42.39 -87.38,-88.34 -159.89,-113.71 -72.84,-25.49 -156.44,-29.76 -235.04,-7.55 -63.34,17.89 -126.58,58.91 -171.26,106.19 -104.46,110.54 -123.5,281.96 -60.81,416.55 48.75,104.67 173.13,212.93 337.49,211.35z"/>
    <path class="fil1" d="M2637.96 1401.34c46.29,-7.37 83.75,25.3 89.67,64.74 7.17,47.74 -25.71,84.14 -65.04,90.13 -102.39,15.61 -127.22,-138.53 -24.63,-154.87zm-19.97 -76.57c-77.41,15.66 -145.16,93.72 -121.61,190.71 48.06,197.94 351.01,134.59 307.95,-71.02 -17.37,-82.9 -100.11,-137.14 -186.34,-119.69z"/>
    <path class="fil1" d="M2443.04 1165.53c52.23,-14.93 63.97,63.33 20.81,74.43 -50.01,12.86 -72.07,-59.78 -20.81,-74.43zm-15.25 -78.05c-156.74,36.38 -99.24,264.6 51.67,230.47 152.75,-34.55 98.48,-265.33 -51.67,-230.47z"/>
    <polygon class="fil1" points="1460.89,3016.64 1539.13,3017.87 1539.98,2857.87 1461.31,2857.32 "/>
   </g>
   <polygon class="fil2" points="1120.96,3939.17 1164.24,3686.58 1206.81,3686.58 1170.82,3896.84 1276.19,3896.84 1268.95,3939.17 "/>
   <path id="1" class="fil2" d="M1302.29 3863.09c0,-29.93 6.76,-55.33 20.28,-76.32 15.06,-23.05 36.81,-34.57 65.27,-34.57 21.34,0 38.33,7.23 51.03,21.63 12.64,14.47 18.99,34.58 18.99,60.39 0,30.28 -7.87,55.97 -23.63,77.08 -15.82,21.17 -36.46,31.75 -61.91,31.75 -20.76,0 -37.63,-7.17 -50.57,-21.52 -12.99,-14.29 -19.46,-33.81 -19.46,-58.44zm115.36 -35.22c0,-12 -2.82,-21.46 -8.47,-28.34 -5.64,-6.88 -12.82,-10.29 -21.46,-10.29 -7.29,0 -14.17,2.53 -20.58,7.52 -6.35,5.06 -11.93,13.82 -16.76,26.29 -4.76,12.46 -7.17,25.4 -7.17,38.8 0,13.64 2.94,24.23 8.82,31.75 5.88,7.59 13.11,11.35 21.81,11.35 10.94,0 20.23,-5.82 27.87,-17.52 10.65,-15.99 15.94,-35.87 15.94,-59.56z"/>
   <path id="2" class="fil2" d="M1575.34 3870.03l39.16 7.76c-6.53,21.81 -16.23,38.16 -29.11,48.97 -12.82,10.88 -27.46,16.29 -43.92,16.29 -18.64,0 -33.69,-6.76 -45.21,-20.28 -11.47,-13.53 -17.23,-32.75 -17.23,-57.63 0,-22.34 3.88,-42.27 11.64,-59.73 7.76,-17.47 18.29,-30.69 31.57,-39.69 13.23,-9 27.4,-13.52 42.51,-13.52 17,0 30.93,5.41 41.87,16.17 10.93,10.76 17.11,25.69 18.46,44.86l-38.45 4.94c-1.83,-19.76 -9.88,-29.64 -24.17,-29.64 -6.58,0 -13.05,2.71 -19.34,8.06 -6.35,5.41 -11.94,15.05 -16.7,28.93 -4.76,13.87 -7.17,28.98 -7.17,45.39 0,10.87 2.23,19.22 6.64,24.99 4.47,5.82 9.82,8.7 16.05,8.7 6.59,0 12.88,-2.82 18.93,-8.41 6.06,-5.59 10.88,-14.29 14.47,-26.16z"/>
   <path id="3" class="fil2" d="M1691.05 3807.94l-39.51 -4.59c4.76,-16.64 12.94,-29.34 24.64,-38.04 11.64,-8.76 26.46,-13.11 44.39,-13.11 18.28,0 32.28,4.52 42.16,13.52 9.81,9.05 14.69,20.99 14.69,35.98 0,5.24 -0.47,10.82 -1.35,16.76 -0.94,5.94 -4.35,22.17 -10.35,48.63 -4.94,21.81 -7.46,37.1 -7.46,45.74 0,8.11 1.35,16.87 4.05,26.34l-40.33 0c-1.71,-6.76 -2.71,-13.82 -3.06,-21.05 -5.7,8.06 -12.35,14.23 -19.81,18.52 -7.47,4.29 -14.88,6.41 -22.29,6.41 -11.76,0 -21.58,-4.82 -29.57,-14.46 -7.94,-9.59 -11.94,-22.4 -11.94,-38.46 0,-18.46 4.71,-32.69 14.11,-42.62 9.35,-10 24.93,-16 46.92,-18.05 19.29,-1.94 32.22,-4.3 38.75,-7.06 2.18,-7 3.23,-12.58 3.23,-16.76 0,-5.41 -1.88,-9.82 -5.7,-13.17 -3.76,-3.35 -8.94,-5 -15.46,-5 -14.23,0 -22.93,6.83 -26.11,20.47zm37.4 45.86c-2.47,0.82 -5.71,1.53 -9.59,2.23 -18.52,2.71 -30.75,6.41 -36.63,11.06 -5.88,4.58 -8.82,10.81 -8.82,18.52 0,6.05 1.65,10.99 5,14.75 3.35,3.77 7.59,5.65 12.76,5.65 5.35,0 10.47,-1.59 15.4,-4.71 4.94,-3.11 8.88,-7.52 11.82,-13.17 2.94,-5.64 5.76,-14.93 8.53,-27.81l1.53 -6.52z"/>
   <path id="4" class="fil2" d="M1897.08 3870.03l39.16 7.76c-6.53,21.81 -16.23,38.16 -29.11,48.97 -12.82,10.88 -27.46,16.29 -43.92,16.29 -18.64,0 -33.69,-6.76 -45.21,-20.28 -11.47,-13.53 -17.23,-32.75 -17.23,-57.63 0,-22.34 3.88,-42.27 11.64,-59.73 7.76,-17.47 18.29,-30.69 31.57,-39.69 13.23,-9 27.4,-13.52 42.51,-13.52 17,0 30.93,5.41 41.87,16.17 10.93,10.76 17.11,25.69 18.46,44.86l-38.45 4.94c-1.83,-19.76 -9.88,-29.64 -24.17,-29.64 -6.58,0 -13.05,2.71 -19.34,8.06 -6.35,5.41 -11.94,15.05 -16.7,28.93 -4.76,13.87 -7.17,28.98 -7.17,45.39 0,10.87 2.23,19.22 6.64,24.99 4.47,5.82 9.82,8.7 16.05,8.7 6.59,0 12.88,-2.82 18.93,-8.41 6.06,-5.59 10.88,-14.29 14.47,-26.16zm-80.08 140.4l6.7 -19.93 8.64 0.18c8.41,0 16.94,-1.77 25.58,-5.35 5.88,-2.42 8.82,-6.47 8.82,-12.23 0,-3.65 -1.35,-6.59 -4.06,-8.77 -2.7,-2.17 -6.88,-3.29 -12.4,-3.29 -3.12,0 -7.41,0.53 -12.82,1.53l4.82 -17.11c6.82,-2.06 12.99,-3.11 18.52,-3.11 9.82,0 17.58,2.58 23.23,7.81 5.64,5.24 8.46,12.12 8.46,20.64 0,10.82 -5.41,20.23 -16.23,28.28 -10.81,8.06 -26.04,12.06 -45.62,12.06 -5.88,0 -10.41,-0.24 -13.64,-0.71z"/>
   <path id="5" class="fil2" d="M2012.79 3807.94l-39.51 -4.59c4.76,-16.64 12.94,-29.34 24.64,-38.04 11.64,-8.76 26.46,-13.11 44.39,-13.11 18.28,0 32.28,4.52 42.16,13.52 9.81,9.05 14.69,20.99 14.69,35.98 0,5.24 -0.47,10.82 -1.35,16.76 -0.94,5.94 -4.35,22.17 -10.35,48.63 -4.94,21.81 -7.46,37.1 -7.46,45.74 0,8.11 1.35,16.87 4.05,26.34l-40.33 0c-1.71,-6.76 -2.71,-13.82 -3.06,-21.05 -5.7,8.06 -12.35,14.23 -19.81,18.52 -7.47,4.29 -14.88,6.41 -22.29,6.41 -11.76,0 -21.58,-4.82 -29.57,-14.46 -7.94,-9.59 -11.94,-22.4 -11.94,-38.46 0,-18.46 4.71,-32.69 14.11,-42.62 9.35,-10 24.93,-16 46.92,-18.05 19.29,-1.94 32.22,-4.3 38.75,-7.06 2.18,-7 3.23,-12.58 3.23,-16.76 0,-5.41 -1.88,-9.82 -5.7,-13.17 -3.76,-3.35 -8.94,-5 -15.46,-5 -14.23,0 -22.93,6.83 -26.11,20.47zm37.4 45.86c-2.47,0.82 -5.71,1.53 -9.59,2.23 -18.52,2.71 -30.75,6.41 -36.63,11.06 -5.88,4.58 -8.82,10.81 -8.82,18.52 0,6.05 1.65,10.99 5,14.75 3.35,3.77 7.59,5.65 12.76,5.65 5.35,0 10.47,-1.59 15.4,-4.71 4.94,-3.11 8.88,-7.52 11.82,-13.17 2.94,-5.64 5.76,-14.93 8.53,-27.81l1.53 -6.52zm-27.87 -123.48l-17.99 0c2.99,-16.22 6.87,-27.22 11.58,-32.98 4.7,-5.76 10.11,-8.64 16.11,-8.64 5.17,0 14.11,2.82 26.75,8.52 7.41,3.24 12.47,4.88 15.23,4.88 2.12,0 3.88,-0.88 5.47,-2.59 1.53,-1.7 2.94,-5.29 4.23,-10.81l17.99 0c-1.7,13.99 -5.29,24.34 -10.64,31.1 -5.29,6.76 -11.29,10.17 -17.81,10.17 -4.41,0 -11.12,-2.23 -20.23,-6.7 -9.53,-4.71 -15.58,-7.06 -18.11,-7.06 -6,0 -10.17,4.71 -12.58,14.11z"/>
   <path id="6" class="fil2" d="M2122.51 3863.09c0,-29.93 6.76,-55.33 20.28,-76.32 15.06,-23.05 36.81,-34.57 65.27,-34.57 21.34,0 38.33,7.23 51.03,21.63 12.64,14.47 18.99,34.58 18.99,60.39 0,30.28 -7.87,55.97 -23.63,77.08 -15.82,21.17 -36.46,31.75 -61.91,31.75 -20.76,0 -37.63,-7.17 -50.57,-21.52 -12.99,-14.29 -19.46,-33.81 -19.46,-58.44zm115.36 -35.22c0,-12 -2.82,-21.46 -8.47,-28.34 -5.64,-6.88 -12.82,-10.29 -21.46,-10.29 -7.29,0 -14.17,2.53 -20.58,7.52 -6.35,5.06 -11.93,13.82 -16.76,26.29 -4.76,12.46 -7.17,25.4 -7.17,38.8 0,13.64 2.94,24.23 8.82,31.75 5.88,7.59 13.11,11.35 21.81,11.35 10.94,0 20.23,-5.82 27.87,-17.52 10.65,-15.99 15.94,-35.87 15.94,-59.56z"/>
   <path id="7" class="fil2" d="M2509.15 3939.17l-38.45 0 3.64 -20.17c-7.35,8.88 -14.52,15.11 -21.46,18.7 -6.94,3.59 -14.58,5.35 -22.81,5.35 -14.88,0 -27.11,-6.35 -36.57,-19.11 -9.47,-12.7 -14.17,-31.87 -14.17,-57.38 0,-30.17 6.82,-56.74 20.52,-79.79 13.7,-23.05 31.22,-34.57 52.56,-34.57 19.81,0 34.69,9.7 44.63,29.1l17.05 -94.72 40.27 0 -45.21 252.59zm-90.31 -74.67c0,13.29 2.64,23.52 7.88,30.69 5.29,7.23 11.64,10.82 19.22,10.82 6.18,0 12.23,-2.47 18.05,-7.47 5.88,-4.94 11,-13.76 15.41,-26.34 4.35,-12.58 6.52,-25.52 6.52,-38.92 0,-13.7 -2.82,-24.58 -8.46,-32.63 -5.65,-8.06 -12.11,-12.12 -19.41,-12.12 -5.64,0 -11.4,2.59 -17.28,7.82 -5.88,5.18 -11,14.29 -15.35,27.23 -4.41,12.99 -6.58,26.63 -6.58,40.92z"/>
   <path id="8" class="fil2" d="M2696.18 3862.97l-101.66 0 0 4.64c0,12.18 2.88,21.94 8.58,29.23 5.77,7.29 12.64,10.93 20.64,10.93 13.29,0 23.76,-8.46 31.46,-25.4l36.33 7.41c-7.11,17.82 -16.58,31.16 -28.4,39.98 -11.81,8.88 -25.1,13.29 -39.74,13.29 -19.52,0 -35.75,-7.58 -48.69,-22.75 -12.87,-15.23 -19.34,-35.81 -19.34,-61.86 0,-28.04 7.35,-52.8 22.05,-74.2 14.7,-21.34 35.22,-32.04 61.62,-32.04 17.81,0 32.22,6.76 43.27,20.22 11.12,13.47 16.64,32.93 16.64,58.39 0,12.05 -0.94,22.75 -2.76,32.16zm-34.46 -29.99l0.18 -4.82c0,-13.82 -2.53,-24.1 -7.64,-30.75 -5.06,-6.64 -11.65,-9.94 -19.76,-9.94 -8.23,0 -15.7,3.83 -22.4,11.53 -6.7,7.64 -11.17,18.99 -13.46,33.98l63.08 0z"/>
   <polygon id="9" class="fil2" points="2895.97,3939.17 2850.46,3939.17 2813.24,3686.58 2855.69,3686.58 2882.21,3877.67 2968.17,3686.58 3010.09,3686.58 "/>
   <path id="10" class="fil2" d="M3110.93 3862.97l-101.66 0 0 4.64c0,12.18 2.88,21.94 8.58,29.23 5.77,7.29 12.64,10.93 20.64,10.93 13.29,0 23.76,-8.46 31.46,-25.4l36.33 7.41c-7.11,17.82 -16.58,31.16 -28.4,39.98 -11.81,8.88 -25.1,13.29 -39.74,13.29 -19.52,0 -35.75,-7.58 -48.69,-22.75 -12.87,-15.23 -19.34,-35.81 -19.34,-61.86 0,-28.04 7.35,-52.8 22.05,-74.2 14.7,-21.34 35.22,-32.04 61.62,-32.04 17.81,0 32.22,6.76 43.27,20.22 11.12,13.47 16.64,32.93 16.64,58.39 0,12.05 -0.94,22.75 -2.76,32.16zm-34.46 -29.99l0.18 -4.82c0,-13.82 -2.53,-24.1 -7.64,-30.75 -5.06,-6.64 -11.65,-9.94 -19.76,-9.94 -8.23,0 -15.7,3.83 -22.4,11.53 -6.7,7.64 -11.17,18.99 -13.46,33.98l63.08 0z"/>
   <path id="11" class="fil2" d="M3157.85 3756.08l40.81 0 -31.46 183.09 -40.81 0 31.46 -183.09zm25.22 -74.44l43.51 0 -46.09 51.51 -26.93 0 29.51 -51.51z"/>
   <path id="12" class="fil2" d="M3308.78 3870.03l39.16 7.76c-6.53,21.81 -16.23,38.16 -29.11,48.97 -12.82,10.88 -27.46,16.29 -43.92,16.29 -18.64,0 -33.69,-6.76 -45.21,-20.28 -11.47,-13.53 -17.23,-32.75 -17.23,-57.63 0,-22.34 3.88,-42.27 11.64,-59.73 7.76,-17.47 18.29,-30.69 31.57,-39.69 13.23,-9 27.4,-13.52 42.51,-13.52 17,0 30.93,5.41 41.87,16.17 10.93,10.76 17.11,25.69 18.46,44.86l-38.45 4.94c-1.83,-19.76 -9.88,-29.64 -24.17,-29.64 -6.58,0 -13.05,2.71 -19.34,8.06 -6.35,5.41 -11.94,15.05 -16.7,28.93 -4.76,13.87 -7.17,28.98 -7.17,45.39 0,10.87 2.23,19.22 6.64,24.99 4.47,5.82 9.82,8.7 16.05,8.7 6.59,0 12.88,-2.82 18.93,-8.41 6.06,-5.59 10.88,-14.29 14.47,-26.16z"/>
   <path id="13" class="fil2" d="M3395.62 3756.08l40.81 0 -18.64 108.12c-2.18,12.94 -3.29,21.05 -3.29,24.23 0,5.53 1.64,10.17 4.88,13.82 3.23,3.7 7.17,5.52 11.81,5.52 5.47,0 10.88,-1.94 16.23,-5.82 7.47,-5.41 13.47,-12.46 17.88,-21.11 4.47,-8.64 8.23,-21.22 11.4,-37.74l16.29 -87.02 40.81 0 -33.99 183.09 -38.28 0 4.53 -25.16c-16.46,19.34 -34.28,29.04 -53.39,29.04 -12.05,0 -21.69,-4.17 -28.81,-12.58 -7.05,-8.41 -10.64,-19.99 -10.64,-34.75 0,-6.17 1.65,-18.7 4.88,-37.57l17.52 -102.07z"/>
   <polygon id="14" class="fil2" points="3544.79,3939.17 3588.18,3686.58 3628.98,3686.58 3585.59,3939.17 "/>
   <path id="15" class="fil2" d="M3630.51 3863.09c0,-29.93 6.76,-55.33 20.28,-76.32 15.06,-23.05 36.81,-34.57 65.27,-34.57 21.34,0 38.33,7.23 51.03,21.63 12.64,14.47 18.99,34.58 18.99,60.39 0,30.28 -7.87,55.97 -23.63,77.08 -15.82,21.17 -36.46,31.75 -61.91,31.75 -20.76,0 -37.63,-7.17 -50.57,-21.52 -12.99,-14.29 -19.46,-33.81 -19.46,-58.44zm115.36 -35.22c0,-12 -2.82,-21.46 -8.47,-28.34 -5.64,-6.88 -12.82,-10.29 -21.46,-10.29 -7.29,0 -14.17,2.53 -20.58,7.52 -6.35,5.06 -11.93,13.82 -16.76,26.29 -4.76,12.46 -7.17,25.4 -7.17,38.8 0,13.64 2.94,24.23 8.82,31.75 5.88,7.59 13.11,11.35 21.81,11.35 10.94,0 20.23,-5.82 27.87,-17.52 10.65,-15.99 15.94,-35.87 15.94,-59.56z"/>
   <path id="16" class="fil2" d="M3795.96 3887.66l39.16 -7.76c3.47,10.41 7.82,17.64 13.17,21.7 5.29,4.11 12.29,6.17 21.05,6.17 8.47,0 15.23,-2 20.46,-6.05 5.17,-4 7.76,-8.76 7.76,-14.17 0,-3.65 -1.12,-6.77 -3.29,-9.29 -2.3,-2.41 -7.82,-5.35 -16.58,-8.76 -24.29,-9.65 -39.34,-17.29 -45.22,-22.93 -9.29,-9 -13.93,-20.82 -13.93,-35.34 0,-17.17 6.05,-31.28 18.22,-42.39 12.18,-11.12 28.87,-16.64 49.98,-16.64 35.81,0 56.56,15.99 62.33,47.97l-37.4 7.77c-4.35,-14.59 -14.81,-21.88 -31.28,-21.88 -7.82,0 -13.7,1.59 -17.75,4.77 -4,3.17 -6,7.23 -6,12.11 0,4.11 1.59,7.58 4.76,10.46 2.29,2.12 10.23,5.65 23.81,10.47 19.35,6.94 32.4,13.7 39.04,20.23 9.71,9.52 14.59,21.1 14.59,34.74 0,18.47 -6.24,33.81 -18.76,45.98 -12.52,12.17 -29.16,18.23 -49.86,18.23 -40.63,0 -65.38,-18.46 -74.26,-55.39z"/>
  </g>
 </g>
</svg>
