<?xml version="1.0" encoding="UTF-8"?>
<!DOCTYPE svg PUBLIC "-//W3C//DTD SVG 1.1//EN" "http://www.w3.org/Graphics/SVG/1.1/DTD/svg11.dtd">
<!-- Creator: CorelDRAW 2018 (64 Bit) -->
<svg xmlns="http://www.w3.org/2000/svg" xml:space="preserve" width="162.56mm" height="91.4398mm" version="1.1" style="shape-rendering:geometricPrecision; text-rendering:geometricPrecision; image-rendering:optimizeQuality; fill-rule:evenodd; clip-rule:evenodd"
viewBox="0 0 16255.98 9143.98"
 xmlns:xlink="http://www.w3.org/1999/xlink">
 <defs>
  <style type="text/css">
   <![CDATA[
    .fil3 {fill:black}
    .fil0 {fill:#0070AF}
    .fil2 {fill:black;fill-rule:nonzero}
    .fil1 {fill:white;fill-rule:nonzero}
   ]]>
  </style>
 </defs>
 <g id="Camada_x0020_1">
  <metadata id="CorelCorpID_0Corel-Layer"/>
  <g id="_2229235212096">
   <path class="fil0" d="M7611.33 743.21l1033.32 0 83.64 994.26c101.11,21.31 200.24,47.94 297.17,79.49l569.49 -819.12 894.87 516.65 -424.94 903.39c76.18,68.53 148.68,141.05 217.22,217.22l903.38 -424.94 516.66 894.87 -819.12 569.49c31.56,96.92 58.15,196.07 79.49,297.17l994.26 83.64 0 1033.31 -994.26 83.64c-21.31,101.12 -47.94,200.25 -79.49,297.18l819.12 569.48 -516.66 894.87 -903.38 -424.93c-68.53,76.17 -141.05,148.67 -217.22,217.22l424.94 903.38 -894.87 516.65 -569.49 -819.11c-100.88,32.85 -204.15,60.42 -309.55,82.18l-71.26 991.57 -1033.31 0 -71.26 -991.56c-109.61,-22.6 -216.89,-51.51 -321.59,-86.1l-557.45 823.02 -894.87 -516.66 434.38 -894.99c-82.76,-73.81 -161.23,-152.3 -235.06,-235.05l-894.99 434.38 -516.66 -894.87 823.03 -557.45c-34.6,-104.69 -63.48,-212 -86.1,-321.59l-991.56 -71.26 0 -1033.31 991.57 -71.26c22.59,-109.6 51.5,-216.89 86.09,-321.59l-823.03 -557.45 516.66 -894.87 895 434.38c73.81,-82.76 152.3,-161.22 235.05,-235.04l-434.38 -895 894.87 -516.66 557.45 823.03c100.73,-33.3 203.92,-61.19 309.2,-83.4l83.64 -994.26zm-1713.21 4714.47l4459.74 0c-352.39,886.4 -1217.91,1513.07 -2229.87,1513.07 -1011.96,0 -1877.48,-626.67 -2229.87,-1513.07zm4459.74 -1771.38l-4459.74 0c352.39,-886.4 1217.91,-1513.07 2229.87,-1513.07 1011.96,0 1877.48,626.67 2229.87,1513.07z"/>
   <path class="fil1" d="M5355.42 4257.2c0,345.92 339.18,392.62 339.18,641.69 0,86.48 -34.71,117.61 -89.92,117.61 -55.22,0 -89.93,-31.13 -89.93,-117.61l0 -95.13 -164.06 0 0 83.02c0,193.72 88.34,304.42 258.72,304.42 170.38,0 258.72,-110.7 258.72,-304.42 0,-345.92 -339.18,-392.62 -339.18,-641.69 0,-86.48 31.55,-119.35 86.77,-119.35 55.22,0 86.77,32.87 86.77,119.35l0 58.81 164.06 0 0 -46.7c0,-193.72 -86.76,-304.42 -255.56,-304.42 -168.8,0 -255.57,110.7 -255.57,304.42z"/>
   <polygon id="1" class="fil1" points="5967.52,5177.36 6141.04,5177.36 6141.04,3966.62 5967.52,3966.62 "/>
   <path id="2" class="fil1" d="M6527.55 4675.77l78.88 0 0 223.12c0,86.48 -34.71,117.61 -89.92,117.61 -55.22,0 -89.92,-31.13 -89.92,-117.61l0 -653.8c0,-86.48 34.7,-119.35 89.92,-119.35 55.21,0 89.92,32.87 89.92,119.35l0 129.72 164.07 0 0 -117.61c0,-193.72 -88.35,-304.42 -258.72,-304.42 -170.38,0 -258.72,110.7 -258.72,304.42l0 629.58c0,193.72 88.34,304.42 258.72,304.42 170.37,0 258.72,-110.7 258.72,-304.42l0 -383.98 -242.95 0 0 172.97z"/>
   <polygon id="3" class="fil1" points="7056.03,4139.58 7355.77,4139.58 7355.77,3966.62 6882.51,3966.62 6882.51,5177.36 7355.77,5177.36 7355.77,5004.4 7056.03,5004.4 7056.03,4649.82 7294.25,4649.82 7294.25,4476.86 7056.03,4476.86 "/>
   <polygon id="4" class="fil1" points="7636.57,4139.58 7922.12,4139.58 7922.12,3966.62 7463.05,3966.62 7463.05,5177.36 7636.57,5177.36 7636.57,4677.5 7860.59,4677.5 7860.59,4504.53 7636.57,4504.53 "/>
   <path id="5" class="fil1" d="M8545.25 5177.36c-17.35,-44.97 -18.93,-88.21 -18.93,-147.02l0 -186.8c0,-126.26 -28.39,-217.93 -115.16,-257.71 77.3,-39.78 113.58,-121.08 113.58,-245.61l0 -95.13c0,-186.8 -77.3,-278.47 -257.14,-278.47l-261.87 0 0 1210.74 173.52 0 0 -492.94 59.95 0c78.88,0 113.59,41.51 113.59,153.93l0 190.26c0,98.59 6.31,117.62 15.77,148.75l176.69 0zm-282.39 -1037.78c61.53,0 88.35,38.05 88.35,124.54l0 119.34c0,96.86 -39.44,127.99 -104.12,127.99l-67.84 0 0 -371.87 83.61 0z"/>
   <path id="6" class="fil1" d="M8799.24 4245.09c0,-86.48 34.7,-119.35 89.92,-119.35 55.21,0 89.92,32.87 89.92,119.35l0 653.8c0,86.48 -34.71,119.34 -89.92,119.34 -55.22,0 -89.92,-32.86 -89.92,-119.34l0 -653.8zm-173.53 641.69c0,193.72 93.08,304.42 263.45,304.42 170.38,0 263.45,-110.7 263.45,-304.42l0 -629.58c0,-193.72 -93.07,-304.42 -263.45,-304.42 -170.37,0 -263.45,110.7 -263.45,304.42l0 629.58z"/>
   <polygon id="7" class="fil1" points="9217.29,4139.58 9398.71,4139.58 9398.71,5177.36 9572.24,5177.36 9572.24,4139.58 9753.66,4139.58 9753.66,3966.62 9217.29,3966.62 "/>
   <path id="8" class="fil1" d="M10157.51 3966.62l-253.99 0 -176.67 1210.74 159.33 0 29.97 -219.66 212.97 0 29.97 219.66 175.11 0 -176.69 -1210.74zm-135.66 214.47l83.61 612.29 -167.22 0 83.61 -612.29z"/>
   <path id="9" class="fil1" d="M10392.57 4257.2c0,345.92 339.18,392.62 339.18,641.69 0,86.48 -34.71,117.61 -89.92,117.61 -55.22,0 -89.93,-31.13 -89.93,-117.61l0 -95.13 -164.06 0 0 83.02c0,193.72 88.34,304.42 258.72,304.42 170.38,0 258.72,-110.7 258.72,-304.42 0,-345.92 -339.17,-392.62 -339.17,-641.69 0,-86.48 31.54,-119.35 86.76,-119.35 55.22,0 86.77,32.87 86.77,119.35l0 58.81 164.06 0 0 -46.7c0,-193.72 -86.76,-304.42 -255.56,-304.42 -168.8,0 -255.57,110.7 -255.57,304.42z"/>
   <path class="fil2" d="M6859.74 6037.06l26.8 -2.41c1.26,10.85 4.22,19.73 8.89,26.71 4.67,6.93 11.89,12.55 21.68,16.87 9.79,4.27 20.84,6.42 33.09,6.42 10.89,0 20.48,-1.6 28.81,-4.87 8.33,-3.26 14.51,-7.73 18.57,-13.4 4.07,-5.67 6.13,-11.85 6.13,-18.47 0,-6.73 -1.96,-12.6 -5.87,-17.67 -3.92,-5.02 -10.4,-9.24 -19.43,-12.7 -5.78,-2.21 -18.58,-5.73 -38.41,-10.5 -19.82,-4.76 -33.68,-9.23 -41.61,-13.45 -10.29,-5.42 -17.92,-12.15 -22.94,-20.13 -5.07,-7.98 -7.58,-16.97 -7.58,-26.86 0,-10.94 3.11,-21.13 9.28,-30.57 6.18,-9.49 15.16,-16.66 27.06,-21.58 11.85,-4.92 25.05,-7.38 39.56,-7.38 15.96,0 30.07,2.56 42.27,7.73 12.2,5.12 21.58,12.7 28.16,22.74 6.58,9.99 10.09,21.33 10.59,33.98l-27.41 2.11c-1.45,-13.6 -6.42,-23.89 -14.91,-30.82 -8.48,-6.98 -21.03,-10.44 -37.6,-10.44 -17.26,0 -29.86,3.16 -37.75,9.49 -7.88,6.32 -11.84,13.95 -11.84,22.89 0,7.73 2.81,14.1 8.38,19.12 5.52,4.97 19.83,10.14 43.02,15.36 23.19,5.27 39.11,9.84 47.74,13.76 12.5,5.77 21.79,13.05 27.76,21.94 5.98,8.83 8.94,19.02 8.94,30.57 0,11.49 -3.27,22.24 -9.84,32.38 -6.58,10.14 -15.96,18.02 -28.26,23.64 -12.3,5.62 -26.11,8.43 -41.52,8.43 -19.48,0 -35.79,-2.86 -48.94,-8.53 -13.21,-5.67 -23.5,-14.21 -30.98,-25.65 -7.53,-11.4 -11.44,-24.3 -11.84,-38.71z"/>
   <path id="1" class="fil2" d="M7066.66 5920.8l0 -30.12 26.5 0 0 30.12 -26.5 0zm0 185.54l0 -156.32 26.5 0 0 156.32 -26.5 0z"/>
   <path id="2" class="fil2" d="M7123.04 6059.65l26.2 -4.21c1.46,10.49 5.57,18.52 12.3,24.14 6.73,5.58 16.16,8.39 28.21,8.39 12.2,0 21.24,-2.46 27.16,-7.43 5.87,-4.92 8.84,-10.75 8.84,-17.42 0,-5.98 -2.66,-10.69 -7.94,-14.11 -3.71,-2.36 -12.75,-5.32 -27.1,-8.98 -19.38,-4.87 -32.78,-9.09 -40.31,-12.65 -7.48,-3.62 -13.16,-8.54 -17.02,-14.86 -3.87,-6.28 -5.82,-13.26 -5.82,-20.89 0,-6.97 1.6,-13.4 4.76,-19.32 3.22,-5.93 7.53,-10.85 13.01,-14.76 4.11,-3.01 9.73,-5.57 16.81,-7.68 7.13,-2.11 14.71,-3.17 22.84,-3.17 12.25,0 23,1.76 32.23,5.33 9.29,3.51 16.12,8.33 20.53,14.35 4.37,6.08 7.43,14.16 9.09,24.3l-25.9 3.61c-1.16,-8.13 -4.57,-14.5 -10.19,-19.07 -5.63,-4.57 -13.56,-6.83 -23.85,-6.83 -12.1,0 -20.78,2.01 -25.95,6.02 -5.17,4.02 -7.78,8.74 -7.78,14.11 0,3.41 1.05,6.53 3.21,9.29 2.16,2.81 5.52,5.17 10.14,7.03 2.66,1 10.39,3.26 23.34,6.77 18.68,4.97 31.73,9.09 39.16,12.25 7.43,3.16 13.25,7.83 17.47,13.86 4.27,6.07 6.37,13.6 6.37,22.64 0,8.78 -2.56,17.06 -7.73,24.85 -5.17,7.78 -12.6,13.8 -22.29,18.07 -9.73,4.26 -20.73,6.37 -32.98,6.37 -20.28,0 -35.79,-4.21 -46.43,-12.6 -10.64,-8.43 -17.42,-20.88 -20.38,-37.4z"/>
   <path id="3" class="fil2" d="M7341.71 6082.7l3.61 23.39c-7.43,1.56 -14.1,2.36 -19.93,2.36 -9.58,0 -17.01,-1.51 -22.34,-4.57 -5.27,-3.06 -8.98,-7.03 -11.14,-12 -2.16,-4.97 -3.21,-15.41 -3.21,-31.32l0 -90.06 -19.58 0 0 -20.48 19.58 0 0 -38.66 26.5 -15.91 0 54.57 26.51 0 0 20.48 -26.51 0 0 91.56c0,7.58 0.45,12.45 1.41,14.61 0.9,2.16 2.41,3.87 4.52,5.17 2.1,1.26 5.12,1.91 9.03,1.91 2.91,0 6.78,-0.35 11.55,-1.05z"/>
   <path id="4" class="fil2" d="M7474.48 6055.74l27.41 3.61c-4.26,15.92 -12.25,28.32 -23.89,37.1 -11.65,8.79 -26.51,13.2 -44.63,13.2 -22.79,0 -40.86,-7.02 -54.22,-21.08 -13.35,-14.01 -20.03,-33.74 -20.03,-59.09 0,-26.2 6.73,-46.58 20.23,-61.04 13.51,-14.51 31.03,-21.74 52.56,-21.74 20.84,0 37.86,7.08 51.06,21.29 13.2,14.21 19.83,34.19 19.83,59.94 0,1.55 -0.05,3.91 -0.15,7.03l-116.42 0c1.01,17.11 5.83,30.27 14.56,39.35 8.68,9.09 19.58,13.66 32.58,13.66 9.69,0 17.97,-2.56 24.8,-7.68 6.88,-5.12 12.3,-13.31 16.31,-24.55zm-86.74 -42.47l87.05 0c-1.16,-13.15 -4.52,-22.99 -9.99,-29.57 -8.39,-10.19 -19.33,-15.31 -32.74,-15.31 -12.14,0 -22.33,4.07 -30.62,12.2 -8.23,8.13 -12.8,19.02 -13.7,32.68z"/>
   <path id="5" class="fil2" d="M7535.38 6106.34l0 -156.32 23.79 0 0 22.09c4.87,-7.64 11.4,-13.81 19.53,-18.43 8.13,-4.67 17.37,-6.98 27.76,-6.98 11.55,0 21.04,2.41 28.42,7.18 7.37,4.82 12.6,11.5 15.61,20.13 12.45,-18.22 28.56,-27.31 48.44,-27.31 15.56,0 27.56,4.27 35.89,12.86 8.39,8.58 12.6,21.78 12.6,39.6l0 107.18 -26.5 0 0 -98.39c0,-10.54 -0.91,-18.17 -2.61,-22.84 -1.71,-4.67 -4.82,-8.39 -9.39,-11.25 -4.52,-2.86 -9.84,-4.26 -15.91,-4.26 -11.05,0 -20.18,3.66 -27.46,10.94 -7.28,7.33 -10.9,19.02 -10.9,35.09l0 90.71 -26.5 0 0 -101.45c0,-11.75 -2.16,-20.59 -6.48,-26.46 -4.31,-5.87 -11.39,-8.83 -21.18,-8.83 -7.43,0 -14.31,1.95 -20.63,5.87 -6.33,3.91 -10.9,9.64 -13.76,17.22 -2.81,7.53 -4.22,18.42 -4.22,32.63l0 81.02 -26.5 0z"/>
   <path id="6" class="fil2" d="M7888.39 6086.76c-9.84,8.39 -19.33,14.26 -28.42,17.72 -9.08,3.47 -18.82,5.17 -29.26,5.17 -17.17,0 -30.37,-4.16 -39.61,-12.55 -9.24,-8.33 -13.86,-19.02 -13.86,-32.02 0,-7.63 1.76,-14.61 5.22,-20.94 3.52,-6.32 8.09,-11.34 13.71,-15.16 5.67,-3.81 12,-6.72 19.07,-8.68 5.23,-1.36 13.11,-2.66 23.6,-3.97 21.38,-2.51 37.2,-5.57 47.29,-9.08 0.1,-3.62 0.15,-5.93 0.15,-6.88 0,-10.74 -2.51,-18.33 -7.53,-22.74 -6.78,-5.98 -16.87,-8.94 -30.22,-8.94 -12.5,0 -21.74,2.21 -27.66,6.58 -5.98,4.37 -10.34,12.1 -13.21,23.24l-25.9 -3.61c2.36,-11.1 6.23,-20.08 11.65,-26.91 5.42,-6.83 13.25,-12.05 23.49,-15.76 10.19,-3.67 22.09,-5.53 35.54,-5.53 13.36,0 24.25,1.56 32.63,4.72 8.34,3.17 14.51,7.08 18.43,11.85 3.91,4.77 6.67,10.79 8.28,18.07 0.85,4.52 1.3,12.65 1.3,24.35l0 35.14c0,24.55 0.56,40.06 1.66,46.63 1.06,6.58 3.26,12.86 6.48,18.88l-27.71 0c-2.66,-5.57 -4.37,-12.1 -5.12,-19.58zm-2.11 -58.73c-9.64,3.91 -24.1,7.23 -43.38,9.94 -10.94,1.55 -18.67,3.31 -23.19,5.27 -4.52,1.96 -7.98,4.82 -10.44,8.53 -2.46,3.77 -3.71,7.93 -3.71,12.55 0,6.98 2.66,12.85 8.03,17.52 5.37,4.67 13.2,7.03 23.49,7.03 10.19,0 19.28,-2.21 27.26,-6.68 7.93,-4.41 13.81,-10.49 17.52,-18.17 2.86,-5.97 4.27,-14.76 4.27,-26.35l0.15 -9.64z"/>
   <path id="7" class="fil2" d="M8138.38 6106.34l0 -19.83c-9.89,15.41 -24.45,23.14 -43.67,23.14 -12.45,0 -23.9,-3.41 -34.29,-10.29 -10.44,-6.82 -18.52,-16.41 -24.3,-28.66 -5.72,-12.3 -8.58,-26.41 -8.58,-42.37 0,-15.56 2.61,-29.67 7.78,-42.37 5.22,-12.65 13,-22.39 23.39,-29.12 10.34,-6.77 21.99,-10.14 34.79,-10.14 9.44,0 17.82,2.01 25.15,5.98 7.33,3.96 13.31,9.18 17.92,15.56l0 -77.56 26.51 0 0 215.66 -24.7 0zm-83.73 -77.96c0,19.98 4.21,34.89 12.7,44.78 8.43,9.89 18.42,14.81 29.92,14.81 11.59,0 21.43,-4.72 29.57,-14.16 8.08,-9.44 12.14,-23.84 12.14,-43.22 0,-21.29 -4.11,-36.95 -12.4,-46.94 -8.23,-9.99 -18.42,-14.96 -30.52,-14.96 -11.79,0 -21.63,4.77 -29.57,14.36 -7.88,9.59 -11.84,24.7 -11.84,45.33z"/>
   <path id="8" class="fil2" d="M8311.62 6055.74l27.41 3.61c-4.26,15.92 -12.25,28.32 -23.89,37.1 -11.65,8.79 -26.51,13.2 -44.63,13.2 -22.79,0 -40.86,-7.02 -54.22,-21.08 -13.35,-14.01 -20.03,-33.74 -20.03,-59.09 0,-26.2 6.73,-46.58 20.23,-61.04 13.51,-14.51 31.03,-21.74 52.56,-21.74 20.84,0 37.86,7.08 51.06,21.29 13.2,14.21 19.83,34.19 19.83,59.94 0,1.55 -0.05,3.91 -0.15,7.03l-116.42 0c1.01,17.11 5.83,30.27 14.56,39.35 8.68,9.09 19.58,13.66 32.58,13.66 9.69,0 17.97,-2.56 24.8,-7.68 6.88,-5.12 12.3,-13.31 16.31,-24.55zm-86.74 -42.47l87.05 0c-1.16,-13.15 -4.52,-22.99 -9.99,-29.57 -8.39,-10.19 -19.33,-15.31 -32.74,-15.31 -12.14,0 -22.33,4.07 -30.62,12.2 -8.23,8.13 -12.8,19.02 -13.7,32.68z"/>
   <path id="9" class="fil2" d="M8560.41 6021.7l0 -25.3 91.27 0 0 79.92c-14.01,11.14 -28.47,19.58 -43.37,25.2 -14.91,5.62 -30.23,8.43 -45.89,8.43 -21.18,0 -40.41,-4.51 -57.73,-13.6 -17.27,-9.04 -30.37,-22.19 -39.15,-39.31 -8.84,-17.16 -13.26,-36.34 -13.26,-57.48 0,-20.98 4.37,-40.56 13.16,-58.78 8.78,-18.17 21.38,-31.68 37.85,-40.46 16.46,-8.84 35.44,-13.25 56.92,-13.25 15.57,0 29.67,2.51 42.27,7.58 12.6,5.07 22.49,12.09 29.62,21.08 7.18,9.04 12.6,20.83 16.31,35.34l-25.75 7.03c-3.26,-10.94 -7.28,-19.58 -12.05,-25.9 -4.81,-6.28 -11.64,-11.3 -20.58,-15.06 -8.88,-3.77 -18.77,-5.68 -29.67,-5.68 -13,0 -24.24,2.01 -33.78,5.98 -9.49,3.96 -17.12,9.18 -22.99,15.71 -5.83,6.48 -10.34,13.6 -13.56,21.34 -5.47,13.4 -8.23,27.86 -8.23,43.47 0,19.28 3.31,35.39 9.89,48.39 6.63,12.95 16.27,22.59 28.87,28.87 12.65,6.27 26.05,9.43 40.26,9.43 12.35,0 24.39,-2.41 36.14,-7.17 11.75,-4.82 20.63,-9.89 26.71,-15.37l0 -40.41 -63.26 0z"/>
   <path id="10" class="fil2" d="M8797.1 6055.74l27.41 3.61c-4.26,15.92 -12.25,28.32 -23.89,37.1 -11.65,8.79 -26.51,13.2 -44.63,13.2 -22.79,0 -40.86,-7.02 -54.22,-21.08 -13.35,-14.01 -20.03,-33.74 -20.03,-59.09 0,-26.2 6.73,-46.58 20.23,-61.04 13.51,-14.51 31.03,-21.74 52.56,-21.74 20.84,0 37.86,7.08 51.06,21.29 13.2,14.21 19.83,34.19 19.83,59.94 0,1.55 -0.05,3.91 -0.15,7.03l-116.42 0c1.01,17.11 5.83,30.27 14.56,39.35 8.68,9.09 19.58,13.66 32.58,13.66 9.69,0 17.97,-2.56 24.8,-7.68 6.88,-5.12 12.3,-13.31 16.31,-24.55zm-86.74 -42.47l87.05 0c-1.16,-13.15 -4.52,-22.99 -9.99,-29.57 -8.39,-10.19 -19.33,-15.31 -32.74,-15.31 -12.14,0 -22.33,4.07 -30.62,12.2 -8.23,8.13 -12.8,19.02 -13.7,32.68z"/>
   <path id="11" class="fil2" d="M8847.46 6059.65l26.2 -4.21c1.46,10.49 5.57,18.52 12.3,24.14 6.73,5.58 16.16,8.39 28.21,8.39 12.2,0 21.24,-2.46 27.16,-7.43 5.87,-4.92 8.84,-10.75 8.84,-17.42 0,-5.98 -2.66,-10.69 -7.94,-14.11 -3.71,-2.36 -12.75,-5.32 -27.1,-8.98 -19.38,-4.87 -32.78,-9.09 -40.31,-12.65 -7.48,-3.62 -13.16,-8.54 -17.02,-14.86 -3.87,-6.28 -5.82,-13.26 -5.82,-20.89 0,-6.97 1.6,-13.4 4.76,-19.32 3.22,-5.93 7.53,-10.85 13.01,-14.76 4.11,-3.01 9.73,-5.57 16.81,-7.68 7.13,-2.11 14.71,-3.17 22.84,-3.17 12.25,0 23,1.76 32.23,5.33 9.29,3.51 16.12,8.33 20.53,14.35 4.37,6.08 7.43,14.16 9.09,24.3l-25.9 3.61c-1.16,-8.13 -4.57,-14.5 -10.19,-19.07 -5.63,-4.57 -13.56,-6.83 -23.85,-6.83 -12.1,0 -20.78,2.01 -25.95,6.02 -5.17,4.02 -7.78,8.74 -7.78,14.11 0,3.41 1.05,6.53 3.21,9.29 2.16,2.81 5.52,5.17 10.14,7.03 2.66,1 10.39,3.26 23.34,6.77 18.68,4.97 31.73,9.09 39.16,12.25 7.43,3.16 13.25,7.83 17.47,13.86 4.27,6.07 6.37,13.6 6.37,22.64 0,8.78 -2.56,17.06 -7.73,24.85 -5.17,7.78 -12.6,13.8 -22.29,18.07 -9.73,4.26 -20.73,6.37 -32.98,6.37 -20.28,0 -35.79,-4.21 -46.43,-12.6 -10.64,-8.43 -17.42,-20.88 -20.38,-37.4z"/>
   <path id="12" class="fil2" d="M9066.13 6082.7l3.61 23.39c-7.43,1.56 -14.1,2.36 -19.93,2.36 -9.58,0 -17.01,-1.51 -22.34,-4.57 -5.27,-3.06 -8.98,-7.03 -11.14,-12 -2.16,-4.97 -3.21,-15.41 -3.21,-31.32l0 -90.06 -19.58 0 0 -20.48 19.58 0 0 -38.66 26.5 -15.91 0 54.57 26.51 0 0 20.48 -26.51 0 0 91.56c0,7.58 0.45,12.45 1.41,14.61 0.9,2.16 2.41,3.87 4.52,5.17 2.1,1.26 5.12,1.91 9.03,1.91 2.91,0 6.78,-0.35 11.55,-1.05z"/>
   <path id="13" class="fil2" d="M9194.39 6086.76c-9.84,8.39 -19.33,14.26 -28.42,17.72 -9.08,3.47 -18.82,5.17 -29.26,5.17 -17.17,0 -30.37,-4.16 -39.61,-12.55 -9.24,-8.33 -13.86,-19.02 -13.86,-32.02 0,-7.63 1.76,-14.61 5.22,-20.94 3.52,-6.32 8.09,-11.34 13.71,-15.16 5.67,-3.81 12,-6.72 19.07,-8.68 5.23,-1.36 13.11,-2.66 23.6,-3.97 21.38,-2.51 37.2,-5.57 47.29,-9.08 0.1,-3.62 0.15,-5.93 0.15,-6.88 0,-10.74 -2.51,-18.33 -7.53,-22.74 -6.78,-5.98 -16.87,-8.94 -30.22,-8.94 -12.5,0 -21.74,2.21 -27.66,6.58 -5.98,4.37 -10.34,12.1 -13.21,23.24l-25.9 -3.61c2.36,-11.1 6.23,-20.08 11.65,-26.91 5.42,-6.83 13.25,-12.05 23.49,-15.76 10.19,-3.67 22.09,-5.53 35.54,-5.53 13.36,0 24.25,1.56 32.63,4.72 8.34,3.17 14.51,7.08 18.43,11.85 3.91,4.77 6.67,10.79 8.28,18.07 0.85,4.52 1.3,12.65 1.3,24.35l0 35.14c0,24.55 0.56,40.06 1.66,46.63 1.06,6.58 3.26,12.86 6.48,18.88l-27.71 0c-2.66,-5.57 -4.37,-12.1 -5.12,-19.58zm-2.11 -58.73c-9.64,3.91 -24.1,7.23 -43.38,9.94 -10.94,1.55 -18.67,3.31 -23.19,5.27 -4.52,1.96 -7.98,4.82 -10.44,8.53 -2.46,3.77 -3.71,7.93 -3.71,12.55 0,6.98 2.66,12.85 8.03,17.52 5.37,4.67 13.2,7.03 23.49,7.03 10.19,0 19.28,-2.21 27.26,-6.68 7.93,-4.41 13.81,-10.49 17.52,-18.17 2.86,-5.97 4.27,-14.76 4.27,-26.35l0.15 -9.64zm-86.15 -96.99c-0.1,-10.09 2.72,-18.12 8.39,-24.14 5.57,-5.98 12.75,-8.99 21.48,-8.99 6.08,0 14.36,2.56 24.8,7.73 5.78,2.86 10.39,4.32 13.81,4.32 3.16,0 5.57,-0.86 7.23,-2.56 1.65,-1.66 2.81,-5.07 3.51,-10.09l18.98 0c-0.31,11.14 -3.12,19.47 -8.44,25.05 -5.32,5.57 -12.05,8.38 -20.28,8.38 -6.12,0 -14.26,-2.76 -24.3,-8.23 -6.57,-3.57 -11.39,-5.32 -14.45,-5.32 -3.32,0 -6.03,1.15 -8.04,3.51 -2.15,2.31 -3.21,5.77 -3.11,10.34l-19.58 0z"/>
   <path id="14" class="fil2" d="M9249.86 6028.18c0,-28.87 8.03,-50.25 24.15,-64.16 13.4,-11.54 29.81,-17.32 49.14,-17.32 21.44,0 39.01,7.03 52.66,21.09 13.61,14 20.43,33.43 20.43,58.18 0,20.08 -3.01,35.84 -9.03,47.34 -6.03,11.49 -14.81,20.43 -26.36,26.81 -11.49,6.37 -24.09,9.53 -37.7,9.53 -21.89,0 -39.56,-6.97 -53.06,-20.98 -13.5,-14.01 -20.23,-34.19 -20.23,-60.49zm27.11 0.05c0,19.98 4.36,34.94 13.1,44.83 8.78,9.94 19.78,14.91 33.08,14.91 13.15,0 24.1,-4.97 32.88,-14.96 8.74,-9.99 13.1,-25.2 13.1,-45.63 0,-19.28 -4.41,-33.89 -13.2,-43.78 -8.78,-9.94 -19.73,-14.91 -32.78,-14.91 -13.3,0 -24.3,4.92 -33.08,14.81 -8.74,9.89 -13.1,24.8 -13.1,44.73z"/>
   <path id="15" class="fil2" d="M7611.28 6442.83l0 -19.83c-9.89,15.41 -24.45,23.14 -43.67,23.14 -12.45,0 -23.9,-3.41 -34.29,-10.29 -10.44,-6.82 -18.52,-16.41 -24.3,-28.66 -5.72,-12.3 -8.58,-26.41 -8.58,-42.37 0,-15.56 2.61,-29.67 7.78,-42.37 5.22,-12.65 13,-22.39 23.39,-29.12 10.34,-6.77 21.99,-10.14 34.79,-10.14 9.44,0 17.82,2.01 25.15,5.98 7.33,3.96 13.31,9.18 17.92,15.56l0 -77.56 26.51 0 0 215.66 -24.7 0zm-83.73 -77.96c0,19.98 4.21,34.89 12.7,44.78 8.43,9.89 18.42,14.81 29.92,14.81 11.59,0 21.43,-4.72 29.57,-14.16 8.08,-9.44 12.14,-23.84 12.14,-43.22 0,-21.29 -4.11,-36.95 -12.4,-46.94 -8.23,-9.99 -18.42,-14.96 -30.52,-14.96 -11.79,0 -21.63,4.77 -29.57,14.36 -7.88,9.59 -11.84,24.7 -11.84,45.33z"/>
   <path id="16" class="fil2" d="M7784.52 6392.23l27.41 3.61c-4.26,15.92 -12.25,28.32 -23.89,37.1 -11.65,8.79 -26.51,13.2 -44.63,13.2 -22.79,0 -40.86,-7.02 -54.22,-21.08 -13.35,-14.01 -20.03,-33.74 -20.03,-59.09 0,-26.2 6.73,-46.58 20.23,-61.04 13.51,-14.51 31.03,-21.74 52.56,-21.74 20.84,0 37.86,7.08 51.06,21.29 13.2,14.21 19.83,34.19 19.83,59.94 0,1.55 -0.05,3.91 -0.15,7.03l-116.42 0c1.01,17.11 5.83,30.27 14.56,39.35 8.68,9.09 19.58,13.66 32.58,13.66 9.69,0 17.97,-2.56 24.8,-7.68 6.88,-5.12 12.3,-13.31 16.31,-24.55zm-86.74 -42.47l87.05 0c-1.16,-13.15 -4.52,-22.99 -9.99,-29.57 -8.39,-10.19 -19.33,-15.31 -32.74,-15.31 -12.14,0 -22.33,4.07 -30.62,12.2 -8.23,8.13 -12.8,19.02 -13.7,32.68z"/>
   <polygon id="17" class="fil2" points="7933.92,6442.83 7933.92,6227.17 8079.4,6227.17 8079.4,6252.47 7962.53,6252.47 7962.53,6319.64 8063.74,6319.64 8063.74,6344.94 7962.53,6344.94 7962.53,6442.83 "/>
   <path id="18" class="fil2" d="M8112.78 6442.83l0 -156.32 23.79 0 0 23.94c6.08,-11.09 11.7,-18.42 16.87,-21.93 5.17,-3.57 10.84,-5.33 17.02,-5.33 8.93,0 18.02,2.82 27.26,8.39l-9.44 24.44c-6.43,-3.61 -12.85,-5.42 -19.28,-5.42 -5.77,0 -10.94,1.76 -15.51,5.22 -4.57,3.47 -7.83,8.29 -9.79,14.46 -2.96,9.39 -4.42,19.68 -4.42,30.87l0 81.68 -26.5 0z"/>
   <path id="19" class="fil2" d="M8203.44 6364.67c0,-28.87 8.03,-50.25 24.15,-64.16 13.4,-11.54 29.81,-17.32 49.14,-17.32 21.44,0 39.01,7.03 52.66,21.09 13.61,14 20.43,33.43 20.43,58.18 0,20.08 -3.01,35.84 -9.03,47.34 -6.03,11.49 -14.81,20.43 -26.36,26.81 -11.49,6.37 -24.09,9.53 -37.7,9.53 -21.89,0 -39.56,-6.97 -53.06,-20.98 -13.5,-14.01 -20.23,-34.19 -20.23,-60.49zm27.11 0.05c0,19.98 4.36,34.94 13.1,44.83 8.78,9.94 19.78,14.91 33.08,14.91 13.15,0 24.1,-4.97 32.88,-14.96 8.74,-9.99 13.1,-25.2 13.1,-45.63 0,-19.28 -4.41,-33.89 -13.2,-43.78 -8.78,-9.94 -19.73,-14.91 -32.78,-14.91 -13.3,0 -24.3,4.92 -33.08,14.81 -8.74,9.89 -13.1,24.8 -13.1,44.73z"/>
   <path id="20" class="fil2" d="M8438.43 6419.19l3.61 23.39c-7.43,1.56 -14.1,2.36 -19.93,2.36 -9.58,0 -17.01,-1.51 -22.34,-4.57 -5.27,-3.06 -8.98,-7.03 -11.14,-12 -2.16,-4.97 -3.21,-15.41 -3.21,-31.32l0 -90.06 -19.58 0 0 -20.48 19.58 0 0 -38.66 26.5 -15.91 0 54.57 26.51 0 0 20.48 -26.51 0 0 91.56c0,7.58 0.45,12.45 1.41,14.61 0.9,2.16 2.41,3.87 4.52,5.17 2.1,1.26 5.12,1.91 9.03,1.91 2.91,0 6.78,-0.35 11.55,-1.05z"/>
   <path id="21" class="fil2" d="M8566.69 6423.25c-9.84,8.39 -19.33,14.26 -28.42,17.72 -9.08,3.47 -18.82,5.17 -29.26,5.17 -17.17,0 -30.37,-4.16 -39.61,-12.55 -9.24,-8.33 -13.86,-19.02 -13.86,-32.02 0,-7.63 1.76,-14.61 5.22,-20.94 3.52,-6.32 8.09,-11.34 13.71,-15.16 5.67,-3.81 12,-6.72 19.07,-8.68 5.23,-1.36 13.11,-2.66 23.6,-3.97 21.38,-2.51 37.2,-5.57 47.29,-9.08 0.1,-3.62 0.15,-5.93 0.15,-6.88 0,-10.74 -2.51,-18.33 -7.53,-22.74 -6.78,-5.98 -16.87,-8.94 -30.22,-8.94 -12.5,0 -21.74,2.21 -27.66,6.58 -5.98,4.37 -10.34,12.1 -13.21,23.24l-25.9 -3.61c2.36,-11.1 6.23,-20.08 11.65,-26.91 5.42,-6.83 13.25,-12.05 23.49,-15.76 10.19,-3.67 22.09,-5.53 35.54,-5.53 13.36,0 24.25,1.56 32.63,4.72 8.34,3.17 14.51,7.08 18.43,11.85 3.91,4.77 6.67,10.79 8.28,18.07 0.85,4.52 1.3,12.65 1.3,24.35l0 35.14c0,24.55 0.56,40.06 1.66,46.63 1.06,6.58 3.26,12.86 6.48,18.88l-27.71 0c-2.66,-5.57 -4.37,-12.1 -5.12,-19.58zm-2.11 -58.73c-9.64,3.91 -24.1,7.23 -43.38,9.94 -10.94,1.55 -18.67,3.31 -23.19,5.27 -4.52,1.96 -7.98,4.82 -10.44,8.53 -2.46,3.77 -3.71,7.93 -3.71,12.55 0,6.98 2.66,12.85 8.03,17.52 5.37,4.67 13.2,7.03 23.49,7.03 10.19,0 19.28,-2.21 27.26,-6.68 7.93,-4.41 13.81,-10.49 17.52,-18.17 2.86,-5.97 4.27,-14.76 4.27,-26.35l0.15 -9.64z"/>
   <path id="22" class="fil2" d="M8621.56 6396.14l26.2 -4.21c1.46,10.49 5.57,18.52 12.3,24.14 6.73,5.58 16.16,8.39 28.21,8.39 12.2,0 21.24,-2.46 27.16,-7.43 5.87,-4.92 8.84,-10.75 8.84,-17.42 0,-5.98 -2.66,-10.69 -7.94,-14.11 -3.71,-2.36 -12.75,-5.32 -27.1,-8.98 -19.38,-4.87 -32.78,-9.09 -40.31,-12.65 -7.48,-3.62 -13.16,-8.54 -17.02,-14.86 -3.87,-6.28 -5.82,-13.26 -5.82,-20.89 0,-6.97 1.6,-13.4 4.76,-19.32 3.22,-5.93 7.53,-10.85 13.01,-14.76 4.11,-3.01 9.73,-5.57 16.81,-7.68 7.13,-2.11 14.71,-3.17 22.84,-3.17 12.25,0 23,1.76 32.23,5.33 9.29,3.51 16.12,8.33 20.53,14.35 4.37,6.08 7.43,14.16 9.09,24.3l-25.9 3.61c-1.16,-8.13 -4.57,-14.5 -10.19,-19.07 -5.63,-4.57 -13.56,-6.83 -23.85,-6.83 -12.1,0 -20.78,2.01 -25.95,6.02 -5.17,4.02 -7.78,8.74 -7.78,14.11 0,3.41 1.05,6.53 3.21,9.29 2.16,2.81 5.52,5.17 10.14,7.03 2.66,1 10.39,3.26 23.34,6.77 18.68,4.97 31.73,9.09 39.16,12.25 7.43,3.16 13.25,7.83 17.47,13.86 4.27,6.07 6.37,13.6 6.37,22.64 0,8.78 -2.56,17.06 -7.73,24.85 -5.17,7.78 -12.6,13.8 -22.29,18.07 -9.73,4.26 -20.73,6.37 -32.98,6.37 -20.28,0 -35.79,-4.21 -46.43,-12.6 -10.64,-8.43 -17.42,-20.88 -20.38,-37.4z"/>
   <g>
    <circle class="fil3" cx="6669.3" cy="6001.99" r="69.94"/>
    <circle class="fil3" cx="9586.68" cy="6001.99" r="69.94"/>
   </g>
  </g>
 </g>
</svg>
