<?xml version="1.0" encoding="UTF-8"?>
<!DOCTYPE svg PUBLIC "-//W3C//DTD SVG 1.1//EN" "http://www.w3.org/Graphics/SVG/1.1/DTD/svg11.dtd">
<!-- Creator: CorelDRAW 2018 (64 Bit) -->
<svg xmlns="http://www.w3.org/2000/svg" xml:space="preserve" width="50.7998mm" height="50.7998mm" version="1.1" style="shape-rendering:geometricPrecision; text-rendering:geometricPrecision; image-rendering:optimizeQuality; fill-rule:evenodd; clip-rule:evenodd"
viewBox="0 0 5079.98 5079.98"
 xmlns:xlink="http://www.w3.org/1999/xlink">
 <defs>
  <style type="text/css">
   <![CDATA[
    .fil0 {fill:#666666}
    .fil1 {fill:white}
    .fil2 {fill:white;fill-rule:nonzero}
   ]]>
  </style>
 </defs>
 <g id="Camada_x0020_1">
  <metadata id="CorelCorpID_0Corel-Layer"/>
  <g id="_2230026787856">
   <rect class="fil0" x="-0.02" y="-0.02" width="5080" height="5080"/>
   <g>
    <path class="fil1" d="M2218.1 832.88l1.25 218.95c-15.5,11.73 -98.81,46.34 -154.51,83.83 -16.86,11.34 -33.78,26.37 -48.12,33.63 -61.67,-32.66 -126.05,-80.28 -187.75,-111.3 -23.88,14.61 -62.44,52.84 -77.98,76.77l110.85 188.27c-29.89,54.8 -70.01,82.71 -116.09,202.8l-221.19 -3.63c-8.28,26.46 -26.74,81.71 -26.47,108.79l190.06 105.69c-2.96,40.19 -8.06,76.41 -8.17,116.72 -0.12,39.94 6.98,82.43 6.12,119.17l-191.35 104.77c4.93,26.09 19.31,87.3 30.18,105.91l216.51 -2.09 31.13 63.35 190.06 -187.51c-20.89,-94.6 -40.14,-140.46 -31.77,-249.6 6.29,-81.95 28.48,-155 59.73,-220.74 207.88,-437.38 823.68,-462.83 1073.27,-65.3 190.98,304.18 80.67,642.48 -128.86,811.59 -139.62,112.68 -342.36,172.17 -547.12,117.63 -47.79,-12.73 -29.69,-19.21 -83.62,34.73 -48.08,48.09 -96.25,94.15 -142.17,142.52 11.26,11.57 37.79,21.45 54.06,26.57l-3.92 223.3c34.44,6.12 73.21,23.74 108.51,25.23l105.59 -190.25c129.88,5.55 84.41,13.22 231.85,1.02 20.79,22.26 39.31,65.61 54.62,93.96 17.56,32.52 36.59,62.68 52.23,95.97 25.74,0.46 87.01,-18.24 108.98,-26.75l-2.81 -217.3c20.18,-16.73 134.14,-58.13 201.06,-118.49l189.13 111.83c31.59,-22.93 53.9,-49.65 77.96,-76.27l-110.44 -188.37c8.9,-17.37 20.43,-28.8 32.68,-46.55 25.93,-37.58 71.31,-115.03 82.38,-157.33l220.86 3.92 30.89 -108.5 -192.47 -105.52c0.49,-37.57 7.22,-77.21 7.39,-116.29 0.18,-42.31 -4.93,-79.32 -7.07,-120.32l191.62 -103.91 -26.76 -107.79 -219.24 3.45c-14.25,-18.93 -38.65,-79.95 -53.88,-105.83 -21.31,-36.23 -45.75,-65.83 -64.02,-96.2 15.44,-31 36.17,-62.67 55.18,-94.19 17.79,-29.49 38.11,-66.43 56,-93.86 -14.09,-24.47 -52.31,-61.27 -76.21,-78.46 -27.62,9.67 -142.66,87.77 -188.87,109.88 -12.87,-6.2 -32.1,-22.12 -45.9,-31.58 -42.63,-29.21 -108,-65.9 -156.42,-83.35l3.2 -220.46c-22.47,-8.92 -82.18,-26.97 -108.99,-27.83l-103.62 188.15c-28.83,2.98 -82.9,-5.74 -118.04,-5.86 -41.29,-0.15 -80.6,6.18 -119.4,6.64l-103.09 -189.11c-31.98,-1.15 -75.94,15.63 -107.03,25.5z"/>
    <path class="fil1" d="M1595.87 2765.53c-8.85,-68.74 90.91,-77.67 96.9,-13.67 6.05,64.68 -89.52,70.99 -96.9,13.67zm580.7 -794.75c-24.84,16.91 -599.91,597.72 -650.58,648.39 -18.78,18.78 -34.23,34.15 -52.97,52.99 -63.04,63.4 -57.74,47.13 77.83,182.62 144.89,144.8 107.38,145.17 229.46,23.32 49.66,-49.57 634.52,-628.88 650.7,-652.97 77.91,4.16 119.51,37.6 249.28,-4.09 36.08,-11.59 66.59,-28.74 95.46,-47.3 81.97,-52.71 149.91,-151.56 167.93,-260.83 11.81,-71.55 0.92,-188.39 -36.74,-239.8 -16.2,8.44 -71.61,67.81 -85.13,81.34 -29.54,29.54 -55.63,55.7 -85.18,85.27 -90.49,90.5 -103.46,121.51 -200.06,24.74 -21.04,-21.07 -66.8,-53.38 -55.49,-105.27 6.18,-28.32 57.83,-70.4 78.92,-91.49 14.33,-14.32 159.78,-152.45 168.05,-173.62 -55.41,-35.95 -161.59,-48.84 -235.78,-36.77 -80.37,13.08 -172.54,59.62 -211.94,105.81 -9.82,11.52 -7.49,7.45 -18.57,18.15 -58.84,56.8 -100.01,168.94 -101.73,258.2 -1.04,53.94 13.41,86.03 16.54,131.31z"/>
   </g>
   <polygon class="fil2" points="988.43,3939.17 947.51,3939.17 940.39,3728.09 907.47,3939.17 869.07,3939.17 912.29,3686.58 973.08,3686.58 979.49,3863.56 1048.93,3686.58 1110.67,3686.58 1068.16,3939.17 1029.23,3939.17 1069.28,3729.68 "/>
   <path id="1" class="fil2" d="M1165.82 3807.94l-39.51 -4.59c4.76,-16.64 12.94,-29.34 24.64,-38.04 11.64,-8.76 26.46,-13.11 44.39,-13.11 18.28,0 32.28,4.52 42.16,13.52 9.81,9.05 14.69,20.99 14.69,35.98 0,5.24 -0.47,10.82 -1.35,16.76 -0.94,5.94 -4.35,22.17 -10.35,48.63 -4.94,21.81 -7.46,37.1 -7.46,45.74 0,8.11 1.35,16.87 4.05,26.34l-40.33 0c-1.71,-6.76 -2.71,-13.82 -3.06,-21.05 -5.7,8.06 -12.35,14.23 -19.81,18.52 -7.47,4.29 -14.88,6.41 -22.29,6.41 -11.76,0 -21.58,-4.82 -29.57,-14.46 -7.94,-9.59 -11.94,-22.4 -11.94,-38.46 0,-18.46 4.71,-32.69 14.11,-42.62 9.35,-10 24.93,-16 46.92,-18.05 19.29,-1.94 32.22,-4.3 38.75,-7.06 2.18,-7 3.23,-12.58 3.23,-16.76 0,-5.41 -1.88,-9.82 -5.7,-13.17 -3.76,-3.35 -8.94,-5 -15.46,-5 -14.23,0 -22.93,6.83 -26.11,20.47zm37.4 45.86c-2.47,0.82 -5.71,1.53 -9.59,2.23 -18.52,2.71 -30.75,6.41 -36.63,11.06 -5.88,4.58 -8.82,10.81 -8.82,18.52 0,6.05 1.65,10.99 5,14.75 3.35,3.77 7.59,5.65 12.76,5.65 5.35,0 10.47,-1.59 15.4,-4.71 4.94,-3.11 8.88,-7.52 11.82,-13.17 2.94,-5.64 5.76,-14.93 8.53,-27.81l1.53 -6.52z"/>
   <path id="2" class="fil2" d="M1301.35 3756.08l39.04 0 -4.06 23.75c10,-10.41 19.11,-17.64 27.4,-21.64 8.29,-3.99 16.88,-5.99 25.7,-5.99 11.99,0 21.64,4.17 28.81,12.58 7.23,8.35 10.82,19.81 10.82,34.4 0,6.29 -1.47,18.4 -4.53,36.33l-17.87 103.66 -40.81 0 17.87 -103.72c2.65,-15.46 3.94,-24.75 3.94,-27.87 0,-6.46 -1.58,-11.46 -4.7,-14.93 -3.12,-3.47 -7.17,-5.18 -12.17,-5.18 -5.47,0 -11,2.18 -16.7,6.53 -8.17,6.17 -14.29,13.58 -18.23,22.11 -3.99,8.52 -7.99,24.58 -12.05,48.09l-13.11 74.97 -40.81 0 31.46 -183.09z"/>
   <path id="3" class="fil2" d="M1474.56 3756.08l40.81 0 -18.64 108.12c-2.18,12.94 -3.29,21.05 -3.29,24.23 0,5.53 1.64,10.17 4.88,13.82 3.23,3.7 7.17,5.52 11.81,5.52 5.47,0 10.88,-1.94 16.23,-5.82 7.47,-5.41 13.47,-12.46 17.88,-21.11 4.47,-8.64 8.23,-21.22 11.4,-37.74l16.29 -87.02 40.81 0 -33.99 183.09 -38.28 0 4.53 -25.16c-16.46,19.34 -34.28,29.04 -53.39,29.04 -12.05,0 -21.69,-4.17 -28.81,-12.58 -7.05,-8.41 -10.64,-19.99 -10.64,-34.75 0,-6.17 1.65,-18.7 4.88,-37.57l17.52 -102.07z"/>
   <path id="4" class="fil2" d="M1631.14 3792.77l6.58 -36.69 21.05 0 5.12 -29.17 47.44 -34.63 -11.7 63.8 25.7 0 -6.23 36.69 -26.11 0 -14.23 76.55c-2.47,13.76 -3.7,21.75 -3.7,23.93 0,4.06 1.06,7.11 3.23,9.11 2.18,1.94 5.94,2.94 11.23,2.94 1.71,0 6.35,-0.41 13.94,-1.23l-6.71 36.57c-7.17,1.59 -14.4,2.41 -21.69,2.41 -14.11,0 -24.64,-3.17 -31.64,-9.58 -6.99,-6.41 -10.52,-15.76 -10.52,-28.11 0,-5.7 1.82,-18.7 5.53,-38.92l13.46 -73.67 -20.75 0z"/>
   <path id="5" class="fil2" d="M1865.09 3862.97l-101.66 0 0 4.64c0,12.18 2.88,21.94 8.58,29.23 5.77,7.29 12.64,10.93 20.64,10.93 13.29,0 23.76,-8.46 31.46,-25.4l36.33 7.41c-7.11,17.82 -16.58,31.16 -28.4,39.98 -11.81,8.88 -25.1,13.29 -39.74,13.29 -19.52,0 -35.75,-7.58 -48.69,-22.75 -12.87,-15.23 -19.34,-35.81 -19.34,-61.86 0,-28.04 7.35,-52.8 22.05,-74.2 14.7,-21.34 35.22,-32.04 61.62,-32.04 17.81,0 32.22,6.76 43.27,20.22 11.12,13.47 16.64,32.93 16.64,58.39 0,12.05 -0.94,22.75 -2.76,32.16zm-34.46 -29.99l0.18 -4.82c0,-13.82 -2.53,-24.1 -7.64,-30.75 -5.06,-6.64 -11.65,-9.94 -19.76,-9.94 -8.23,0 -15.7,3.83 -22.4,11.53 -6.7,7.64 -11.17,18.99 -13.46,33.98l63.08 0z"/>
   <path id="6" class="fil2" d="M1912.01 3756.08l39.04 0 -4.06 23.75c10,-10.41 19.11,-17.64 27.4,-21.64 8.29,-3.99 16.88,-5.99 25.7,-5.99 11.99,0 21.64,4.17 28.81,12.58 7.23,8.35 10.82,19.81 10.82,34.4 0,6.29 -1.47,18.4 -4.53,36.33l-17.87 103.66 -40.81 0 17.87 -103.72c2.65,-15.46 3.94,-24.75 3.94,-27.87 0,-6.46 -1.58,-11.46 -4.7,-14.93 -3.12,-3.47 -7.17,-5.18 -12.17,-5.18 -5.47,0 -11,2.18 -16.7,6.53 -8.17,6.17 -14.29,13.58 -18.23,22.11 -3.99,8.52 -7.99,24.58 -12.05,48.09l-13.11 74.97 -40.81 0 31.46 -183.09z"/>
   <path id="7" class="fil2" d="M2159.25 3870.03l39.16 7.76c-6.53,21.81 -16.23,38.16 -29.11,48.97 -12.82,10.88 -27.46,16.29 -43.92,16.29 -18.64,0 -33.69,-6.76 -45.21,-20.28 -11.47,-13.53 -17.23,-32.75 -17.23,-57.63 0,-22.34 3.88,-42.27 11.64,-59.73 7.76,-17.47 18.29,-30.69 31.57,-39.69 13.23,-9 27.4,-13.52 42.51,-13.52 17,0 30.93,5.41 41.87,16.17 10.93,10.76 17.11,25.69 18.46,44.86l-38.45 4.94c-1.83,-19.76 -9.88,-29.64 -24.17,-29.64 -6.58,0 -13.05,2.71 -19.34,8.06 -6.35,5.41 -11.94,15.05 -16.7,28.93 -4.76,13.87 -7.17,28.98 -7.17,45.39 0,10.87 2.23,19.22 6.64,24.99 4.47,5.82 9.82,8.7 16.05,8.7 6.59,0 12.88,-2.82 18.93,-8.41 6.06,-5.59 10.88,-14.29 14.47,-26.16zm-80.08 140.4l6.7 -19.93 8.64 0.18c8.41,0 16.94,-1.77 25.58,-5.35 5.88,-2.42 8.82,-6.47 8.82,-12.23 0,-3.65 -1.35,-6.59 -4.06,-8.77 -2.7,-2.17 -6.88,-3.29 -12.4,-3.29 -3.12,0 -7.41,0.53 -12.82,1.53l4.82 -17.11c6.82,-2.06 12.99,-3.11 18.52,-3.11 9.82,0 17.58,2.58 23.23,7.81 5.64,5.24 8.46,12.12 8.46,20.64 0,10.82 -5.41,20.23 -16.23,28.28 -10.81,8.06 -26.04,12.06 -45.62,12.06 -5.88,0 -10.41,-0.24 -13.64,-0.71z"/>
   <path id="8" class="fil2" d="M2274.96 3807.94l-39.51 -4.59c4.76,-16.64 12.94,-29.34 24.64,-38.04 11.64,-8.76 26.46,-13.11 44.39,-13.11 18.28,0 32.28,4.52 42.16,13.52 9.81,9.05 14.69,20.99 14.69,35.98 0,5.24 -0.47,10.82 -1.35,16.76 -0.94,5.94 -4.35,22.17 -10.35,48.63 -4.94,21.81 -7.46,37.1 -7.46,45.74 0,8.11 1.35,16.87 4.05,26.34l-40.33 0c-1.71,-6.76 -2.71,-13.82 -3.06,-21.05 -5.7,8.06 -12.35,14.23 -19.81,18.52 -7.47,4.29 -14.88,6.41 -22.29,6.41 -11.76,0 -21.58,-4.82 -29.57,-14.46 -7.94,-9.59 -11.94,-22.4 -11.94,-38.46 0,-18.46 4.71,-32.69 14.11,-42.62 9.35,-10 24.93,-16 46.92,-18.05 19.29,-1.94 32.22,-4.3 38.75,-7.06 2.18,-7 3.23,-12.58 3.23,-16.76 0,-5.41 -1.88,-9.82 -5.7,-13.17 -3.76,-3.35 -8.94,-5 -15.46,-5 -14.23,0 -22.93,6.83 -26.11,20.47zm37.4 45.86c-2.47,0.82 -5.71,1.53 -9.59,2.23 -18.52,2.71 -30.75,6.41 -36.63,11.06 -5.88,4.58 -8.82,10.81 -8.82,18.52 0,6.05 1.65,10.99 5,14.75 3.35,3.77 7.59,5.65 12.76,5.65 5.35,0 10.47,-1.59 15.4,-4.71 4.94,-3.11 8.88,-7.52 11.82,-13.17 2.94,-5.64 5.76,-14.93 8.53,-27.81l1.53 -6.52zm-27.87 -123.48l-17.99 0c2.99,-16.22 6.87,-27.22 11.58,-32.98 4.7,-5.76 10.11,-8.64 16.11,-8.64 5.17,0 14.11,2.82 26.75,8.52 7.41,3.24 12.47,4.88 15.23,4.88 2.12,0 3.88,-0.88 5.47,-2.59 1.53,-1.7 2.94,-5.29 4.23,-10.81l17.99 0c-1.7,13.99 -5.29,24.34 -10.64,31.1 -5.29,6.76 -11.29,10.17 -17.81,10.17 -4.41,0 -11.12,-2.23 -20.23,-6.7 -9.53,-4.71 -15.58,-7.06 -18.11,-7.06 -6,0 -10.17,4.71 -12.58,14.11z"/>
   <path id="9" class="fil2" d="M2384.68 3863.09c0,-29.93 6.76,-55.33 20.28,-76.32 15.06,-23.05 36.81,-34.57 65.27,-34.57 21.34,0 38.33,7.23 51.03,21.63 12.64,14.47 18.99,34.58 18.99,60.39 0,30.28 -7.87,55.97 -23.63,77.08 -15.82,21.17 -36.46,31.75 -61.91,31.75 -20.76,0 -37.63,-7.17 -50.57,-21.52 -12.99,-14.29 -19.46,-33.81 -19.46,-58.44zm115.36 -35.22c0,-12 -2.82,-21.46 -8.47,-28.34 -5.64,-6.88 -12.82,-10.29 -21.46,-10.29 -7.29,0 -14.17,2.53 -20.58,7.52 -6.35,5.06 -11.93,13.82 -16.76,26.29 -4.76,12.46 -7.17,25.4 -7.17,38.8 0,13.64 2.94,24.23 8.82,31.75 5.88,7.59 13.11,11.35 21.81,11.35 10.94,0 20.23,-5.82 27.87,-17.52 10.65,-15.99 15.94,-35.87 15.94,-59.56z"/>
   <path id="10" class="fil2" d="M2771.32 3939.17l-38.45 0 3.64 -20.17c-7.35,8.88 -14.52,15.11 -21.46,18.7 -6.94,3.59 -14.58,5.35 -22.81,5.35 -14.88,0 -27.11,-6.35 -36.57,-19.11 -9.47,-12.7 -14.17,-31.87 -14.17,-57.38 0,-30.17 6.82,-56.74 20.52,-79.79 13.7,-23.05 31.22,-34.57 52.56,-34.57 19.81,0 34.69,9.7 44.63,29.1l17.05 -94.72 40.27 0 -45.21 252.59zm-90.31 -74.67c0,13.29 2.64,23.52 7.88,30.69 5.29,7.23 11.64,10.82 19.22,10.82 6.18,0 12.23,-2.47 18.05,-7.47 5.88,-4.94 11,-13.76 15.41,-26.34 4.35,-12.58 6.52,-25.52 6.52,-38.92 0,-13.7 -2.82,-24.58 -8.46,-32.63 -5.65,-8.06 -12.11,-12.12 -19.41,-12.12 -5.64,0 -11.4,2.59 -17.28,7.82 -5.88,5.18 -11,14.29 -15.35,27.23 -4.41,12.99 -6.58,26.63 -6.58,40.92z"/>
   <path id="11" class="fil2" d="M2958.35 3862.97l-101.66 0 0 4.64c0,12.18 2.88,21.94 8.58,29.23 5.77,7.29 12.64,10.93 20.64,10.93 13.29,0 23.76,-8.46 31.46,-25.4l36.33 7.41c-7.11,17.82 -16.58,31.16 -28.4,39.98 -11.81,8.88 -25.1,13.29 -39.74,13.29 -19.52,0 -35.75,-7.58 -48.69,-22.75 -12.87,-15.23 -19.34,-35.81 -19.34,-61.86 0,-28.04 7.35,-52.8 22.05,-74.2 14.7,-21.34 35.22,-32.04 61.62,-32.04 17.81,0 32.22,6.76 43.27,20.22 11.12,13.47 16.64,32.93 16.64,58.39 0,12.05 -0.94,22.75 -2.76,32.16zm-34.46 -29.99l0.18 -4.82c0,-13.82 -2.53,-24.1 -7.64,-30.75 -5.06,-6.64 -11.65,-9.94 -19.76,-9.94 -8.23,0 -15.7,3.83 -22.4,11.53 -6.7,7.64 -11.17,18.99 -13.46,33.98l63.08 0z"/>
   <polygon id="12" class="fil2" points="3158.14,3939.17 3112.63,3939.17 3075.41,3686.58 3117.86,3686.58 3144.38,3877.67 3230.34,3686.58 3272.26,3686.58 "/>
   <path id="13" class="fil2" d="M3373.1 3862.97l-101.66 0 0 4.64c0,12.18 2.88,21.94 8.58,29.23 5.77,7.29 12.64,10.93 20.64,10.93 13.29,0 23.76,-8.46 31.46,-25.4l36.33 7.41c-7.11,17.82 -16.58,31.16 -28.4,39.98 -11.81,8.88 -25.1,13.29 -39.74,13.29 -19.52,0 -35.75,-7.58 -48.69,-22.75 -12.87,-15.23 -19.34,-35.81 -19.34,-61.86 0,-28.04 7.35,-52.8 22.05,-74.2 14.7,-21.34 35.22,-32.04 61.62,-32.04 17.81,0 32.22,6.76 43.27,20.22 11.12,13.47 16.64,32.93 16.64,58.39 0,12.05 -0.94,22.75 -2.76,32.16zm-34.46 -29.99l0.18 -4.82c0,-13.82 -2.53,-24.1 -7.64,-30.75 -5.06,-6.64 -11.65,-9.94 -19.76,-9.94 -8.23,0 -15.7,3.83 -22.4,11.53 -6.7,7.64 -11.17,18.99 -13.46,33.98l63.08 0z"/>
   <path id="14" class="fil2" d="M3420.02 3756.08l40.81 0 -31.46 183.09 -40.81 0 31.46 -183.09zm25.22 -74.44l43.51 0 -46.09 51.51 -26.93 0 29.51 -51.51z"/>
   <path id="15" class="fil2" d="M3570.95 3870.03l39.16 7.76c-6.53,21.81 -16.23,38.16 -29.11,48.97 -12.82,10.88 -27.46,16.29 -43.92,16.29 -18.64,0 -33.69,-6.76 -45.21,-20.28 -11.47,-13.53 -17.23,-32.75 -17.23,-57.63 0,-22.34 3.88,-42.27 11.64,-59.73 7.76,-17.47 18.29,-30.69 31.57,-39.69 13.23,-9 27.4,-13.52 42.51,-13.52 17,0 30.93,5.41 41.87,16.17 10.93,10.76 17.11,25.69 18.46,44.86l-38.45 4.94c-1.83,-19.76 -9.88,-29.64 -24.17,-29.64 -6.58,0 -13.05,2.71 -19.34,8.06 -6.35,5.41 -11.94,15.05 -16.7,28.93 -4.76,13.87 -7.17,28.98 -7.17,45.39 0,10.87 2.23,19.22 6.64,24.99 4.47,5.82 9.82,8.7 16.05,8.7 6.59,0 12.88,-2.82 18.93,-8.41 6.06,-5.59 10.88,-14.29 14.47,-26.16z"/>
   <path id="16" class="fil2" d="M3657.79 3756.08l40.81 0 -18.64 108.12c-2.18,12.94 -3.29,21.05 -3.29,24.23 0,5.53 1.64,10.17 4.88,13.82 3.23,3.7 7.17,5.52 11.81,5.52 5.47,0 10.88,-1.94 16.23,-5.82 7.47,-5.41 13.47,-12.46 17.88,-21.11 4.47,-8.64 8.23,-21.22 11.4,-37.74l16.29 -87.02 40.81 0 -33.99 183.09 -38.28 0 4.53 -25.16c-16.46,19.34 -34.28,29.04 -53.39,29.04 -12.05,0 -21.69,-4.17 -28.81,-12.58 -7.05,-8.41 -10.64,-19.99 -10.64,-34.75 0,-6.17 1.65,-18.7 4.88,-37.57l17.52 -102.07z"/>
   <polygon id="17" class="fil2" points="3806.96,3939.17 3850.35,3686.58 3891.15,3686.58 3847.76,3939.17 "/>
   <path id="18" class="fil2" d="M3892.68 3863.09c0,-29.93 6.76,-55.33 20.28,-76.32 15.06,-23.05 36.81,-34.57 65.27,-34.57 21.34,0 38.33,7.23 51.03,21.63 12.64,14.47 18.99,34.58 18.99,60.39 0,30.28 -7.87,55.97 -23.63,77.08 -15.82,21.17 -36.46,31.75 -61.91,31.75 -20.76,0 -37.63,-7.17 -50.57,-21.52 -12.99,-14.29 -19.46,-33.81 -19.46,-58.44zm115.36 -35.22c0,-12 -2.82,-21.46 -8.47,-28.34 -5.64,-6.88 -12.82,-10.29 -21.46,-10.29 -7.29,0 -14.17,2.53 -20.58,7.52 -6.35,5.06 -11.93,13.82 -16.76,26.29 -4.76,12.46 -7.17,25.4 -7.17,38.8 0,13.64 2.94,24.23 8.82,31.75 5.88,7.59 13.11,11.35 21.81,11.35 10.94,0 20.23,-5.82 27.87,-17.52 10.65,-15.99 15.94,-35.87 15.94,-59.56z"/>
   <path id="19" class="fil2" d="M4058.13 3887.66l39.16 -7.76c3.47,10.41 7.82,17.64 13.17,21.7 5.29,4.11 12.29,6.17 21.05,6.17 8.47,0 15.23,-2 20.46,-6.05 5.17,-4 7.76,-8.76 7.76,-14.17 0,-3.65 -1.12,-6.77 -3.29,-9.29 -2.3,-2.41 -7.82,-5.35 -16.58,-8.76 -24.29,-9.65 -39.34,-17.29 -45.22,-22.93 -9.29,-9 -13.93,-20.82 -13.93,-35.34 0,-17.17 6.05,-31.28 18.22,-42.39 12.18,-11.12 28.87,-16.64 49.98,-16.64 35.81,0 56.56,15.99 62.33,47.97l-37.4 7.77c-4.35,-14.59 -14.81,-21.88 -31.28,-21.88 -7.82,0 -13.7,1.59 -17.75,4.77 -4,3.17 -6,7.23 -6,12.11 0,4.11 1.59,7.58 4.76,10.46 2.29,2.12 10.23,5.65 23.81,10.47 19.35,6.94 32.4,13.7 39.04,20.23 9.71,9.52 14.59,21.1 14.59,34.74 0,18.47 -6.24,33.81 -18.76,45.98 -12.52,12.17 -29.16,18.23 -49.86,18.23 -40.63,0 -65.38,-18.46 -74.26,-55.39z"/>
  </g>
 </g>
</svg>
