<?xml version="1.0" encoding="UTF-8"?>
<!DOCTYPE svg PUBLIC "-//W3C//DTD SVG 1.1//EN" "http://www.w3.org/Graphics/SVG/1.1/DTD/svg11.dtd">
<!-- Creator: CorelDRAW 2018 (64 Bit) -->
<svg xmlns="http://www.w3.org/2000/svg" xml:space="preserve" width="50.7998mm" height="50.7998mm" version="1.1" style="shape-rendering:geometricPrecision; text-rendering:geometricPrecision; image-rendering:optimizeQuality; fill-rule:evenodd; clip-rule:evenodd"
viewBox="0 0 5079.98 5079.98"
 xmlns:xlink="http://www.w3.org/1999/xlink">
 <defs>
  <style type="text/css">
   <![CDATA[
    .fil0 {fill:#663300}
    .fil1 {fill:white}
    .fil2 {fill:white;fill-rule:nonzero}
   ]]>
  </style>
 </defs>
 <g id="Camada_x0020_1">
  <metadata id="CorelCorpID_0Corel-Layer"/>
  <rect class="fil0" x="-0.01" y="-0.01" width="5080" height="5080"/>
  <path class="fil1" d="M3298.09 2828.63c-68.83,-11.47 -94.08,-99.16 -75.79,-131.79 52.38,3.39 30.7,-0.49 58.67,45.79 33.1,-54.07 26.91,-92.73 105.6,-100.29 50.5,14.95 36.76,131.19 145.98,60.21 77.8,-50.57 62.06,-19.63 69.9,-15.78 -20,32.87 -77.22,69.08 -122.87,71.72 -64.38,3.72 -92.25,-44.98 -116.48,-74.27 -22.91,36.5 -41.25,114.02 -65.01,144.41zm180.03 -956.79l-69.76 10.99c-3.52,-8.82 -6.65,-14.89 -9.46,-18.28 -2.81,-3.38 -7.41,-6.83 -13.92,-10.28l0 54.11c37.88,10.16 63.18,20.83 75.95,32.01 16.8,15.14 25.24,34.24 25.24,57.49 0,13.54 -3.01,26.07 -9.07,37.37 -6.07,11.37 -13.8,20.83 -23.19,28.5 -9.4,7.6 -19.43,13.09 -30.03,16.54 -10.6,3.45 -23.57,5.43 -38.9,6.07l0 35.26 -27.22 0 0 -35.26c-18.33,-1.6 -33.22,-4.54 -44.65,-8.82 -11.37,-4.28 -21.28,-10.22 -29.58,-17.82 -8.24,-7.54 -14.7,-15.72 -19.17,-24.47 -4.47,-8.75 -7.85,-19.35 -10.09,-31.75l75.51 -8.75c2.24,12.27 5.3,21.15 9.14,26.58 3.77,5.43 10.09,10.28 18.84,14.5l0 -66.19c-25.3,-6.96 -43.19,-13.03 -53.73,-18.14 -10.54,-5.11 -19.67,-13.35 -27.4,-24.66 -7.73,-11.31 -11.63,-25.04 -11.63,-41.27 0,-22.23 7.79,-40.82 23.32,-55.7 15.59,-14.95 38.71,-23.26 69.44,-24.85l0 -18.4 27.22 0 0 18.4c27.98,1.72 49.38,8.3 64.2,19.8 14.76,11.43 24.47,27.09 28.94,47.02zm-120.36 -18.53c-8.05,2.62 -13.6,5.88 -16.74,9.71 -3.13,3.83 -4.72,8.43 -4.72,13.67 0,5.43 1.59,10.23 4.79,14.25 3.19,4.09 8.75,7.47 16.67,10.22l0 -47.85zm27.22 184.37c10.6,-2.36 18.33,-6.33 23.25,-11.75 4.92,-5.43 7.41,-11.57 7.41,-18.27 0,-5.88 -2.11,-11.31 -6.26,-16.3 -4.15,-4.92 -12.33,-9.51 -24.4,-13.73l0 60.05zm-1252.14 1104.58l345.96 345.96c50.45,50.45 133.01,50.45 183.46,0l0 0c50.45,-50.45 50.45,-133.01 0,-183.46l-345.96 -345.96c-50.45,-50.45 -133.01,-50.45 -183.46,0.01l0 0c-50.45,50.45 -50.45,133 0,183.45zm252.28 -2156.41c58.01,-15.11 42.1,-21.45 103.34,-1.15 -6.63,-38.96 -12.42,-34.72 1.06,-63.69l28.06 -32.77c-62.61,-5.95 -53.48,-17.77 -83.91,-54.15 -19.47,43.51 -19.92,51.22 -79.49,52.83 35.67,46.98 40.81,31.25 30.94,98.93zm190.19 1114.11c5.47,-67.65 -12.21,-194.43 15.28,-245.23 18.87,-34.86 104.58,-114.94 122.61,-125.95l-813.46 -0.37c10.74,24.62 119.26,97.19 152.44,120.77l335.03 239.93c72.73,48.95 83.11,83.62 188.1,10.85zm47.15 -15.35c57.22,-18.05 48.17,2.52 54.67,-53.44 3.77,-32.41 -6.67,-82.25 1.09,-114.55 9.38,-39.06 102.14,-109.02 155.39,-170.28 42.9,-49.37 108.09,-101.05 170.68,-177.56l546.55 0.52c145.28,0.08 157.09,-1.59 157.09,155.1l0 1056.26c0,191.82 -9.54,154.44 -438.69,154.14 -144.7,-0.11 -479.67,23.3 -579.89,-21.95 -24.38,-190.35 -15.38,-274.8 -14.1,-467.11l-47.67 10.35 -5.51 324.57c0.55,251.79 105.88,205.97 482.9,205.97l434.14 -0.06c187.27,-0.01 221.3,-13.1 221.3,-205.91l0 -1056.26c0,-221.03 -68.56,-206.18 -268.24,-206.25 -592.68,-0.21 -422.15,-79.38 -729.98,227.21 -189.34,188.56 -126.14,98.34 -139.73,339.25zm-79.87 -1297.23c43.89,11.38 22.96,10.48 20.5,48.94 -7.61,118.98 22.24,157.08 -126.93,227.82 -88.15,-42.9 -130.02,-66.7 -124.42,-178.3 2.3,-45.91 -25.21,-94.5 18.97,-102.95 51.96,-9.93 -12.95,9.24 45.96,9.1 38.24,-0.08 21.87,-9.47 51.5,-13.22 54.31,-6.86 5.23,5.63 58.51,11.41 60.97,6.62 11.24,-14.39 55.91,-2.8zm386.79 89.82c-68.42,-38.26 -155.69,-65.7 -229.69,-96.61 -111.51,-46.56 -171.17,-36.44 -298.84,-35.98 -155.89,0.55 -149.67,8.71 -278.7,55.44 -138.22,50.06 -199.74,62.96 -177.75,136.62 60.68,203.26 102.21,157.27 515.23,154.31 103.33,-0.75 241.6,8.67 340.63,0.14 84.04,-7.23 140.26,-127.35 129.12,-213.92zm-693.69 1957.38l18.31 -522.97 -533.51 -381.35c2.31,195.6 -20.69,531.26 2.81,707.78 32.74,245.87 284.19,191.92 512.39,196.54zm613.99 -1689.27l-800.12 -1.01c-31.43,159.25 -19.49,291.61 64.4,398.12 187.38,237.89 519.32,205.15 670.5,2.23 91.47,-122.78 93.42,-230.35 65.22,-399.34zm320.77 1888.85c-154.41,-15.05 -446.46,43.65 -543.62,-56.82 -62.85,-64.98 -47.85,-141.32 -47.77,-243.62 0.08,-100.55 -1.47,-201.94 -0.51,-302.19 63.03,-23.46 299.32,-113.73 334.05,-148.14 84.86,-84.04 19.4,-272.89 -173.66,-195.58 -245.05,98.13 -432.27,123.01 -441.54,281.56 -4.61,78.79 -5.99,164.19 -7.33,243.38 -4.19,247.35 -37.68,218.48 105.1,361.48 85.3,85.42 163.81,158.02 248.19,244.76 161.26,165.79 161.12,190.34 409.01,-68.32 28.27,-29.49 89.7,-95.47 118.08,-116.51zm-352.08 -476.49c16.94,-61.22 153.41,-36.91 286.6,-36.91 203.31,0 280.96,-30.44 282.31,54.01 -72.28,11.64 -328.33,3.56 -434.9,4.9 -52.19,0.66 -105.38,14.03 -134.01,-22zm-2.44 -129.1c33.24,-49.06 43.72,-29.58 171.7,-29.21l540.03 1.05c53.43,13.76 17.94,-10 41.18,28.16 -29.91,48.95 -35.65,31.66 -170.53,30.67l-539.9 -0.79c-58.71,-15.38 -9.47,6.28 -42.48,-29.88zm497.57 -686.97c261.51,-77.93 358.03,327.55 104.63,391.15 -249.95,62.73 -373.72,-310.96 -104.63,-391.15zm-605.7 190.32l-0.14 121.26c159.72,-99.12 346.34,45.83 267.78,221.32l458.14 2.83c60.85,-0.91 112.35,-19.29 135.08,33.88 -37.07,47.85 -155.6,25.27 -217.29,25.28 -207.39,0.02 -464.37,-33.08 -640.35,92.08 -8.62,66.93 -16.07,420 9.36,454.42 35.15,41.23 903.65,23.08 943.78,9.81 22.65,-57.83 20.6,-1240.42 0.19,-1280.42 -73.91,-34.61 -499.6,-8.29 -623.35,-12.06 -51.22,371.02 109.22,319.11 -333.2,331.6z"/>
  <polygon class="fil2" points="1532.41,4033.26 1491.49,4033.26 1484.37,3822.18 1451.45,4033.26 1413.05,4033.26 1456.27,3780.67 1517.06,3780.67 1523.47,3957.65 1592.91,3780.67 1654.65,3780.67 1612.14,4033.26 1573.21,4033.26 1613.26,3823.77 "/>
  <path id="_1" class="fil2" d="M1680.93 3850.17l40.81 0 -18.64 108.12c-2.18,12.94 -3.29,21.05 -3.29,24.23 0,5.53 1.64,10.17 4.88,13.82 3.23,3.7 7.17,5.52 11.81,5.52 5.47,0 10.88,-1.94 16.23,-5.82 7.47,-5.41 13.47,-12.46 17.88,-21.11 4.47,-8.64 8.23,-21.22 11.4,-37.74l16.29 -87.02 40.81 0 -33.99 183.09 -38.28 0 4.53 -25.16c-16.46,19.34 -34.28,29.04 -53.39,29.04 -12.05,0 -21.69,-4.17 -28.81,-12.58 -7.05,-8.41 -10.64,-19.99 -10.64,-34.75 0,-6.17 1.65,-18.7 4.88,-37.57l17.52 -102.07z"/>
  <polygon id="_2" class="fil2" points="1830.1,4033.26 1873.49,3780.67 1914.29,3780.67 1870.9,4033.26 "/>
  <path id="_3" class="fil2" d="M1917.94 3886.86l6.58 -36.69 21.05 0 5.12 -29.17 47.44 -34.63 -11.7 63.8 25.7 0 -6.23 36.69 -26.11 0 -14.23 76.55c-2.47,13.76 -3.7,21.75 -3.7,23.93 0,4.06 1.06,7.11 3.23,9.11 2.18,1.94 5.94,2.94 11.23,2.94 1.71,0 6.35,-0.41 13.94,-1.23l-6.71 36.57c-7.17,1.59 -14.4,2.41 -21.69,2.41 -14.11,0 -24.64,-3.17 -31.64,-9.58 -6.99,-6.41 -10.52,-15.76 -10.52,-28.11 0,-5.7 1.82,-18.7 5.53,-38.92l13.46 -73.67 -20.75 0z"/>
  <path id="_4" class="fil2" d="M2063.28 3902.03l-39.51 -4.59c4.76,-16.64 12.94,-29.34 24.64,-38.04 11.64,-8.76 26.46,-13.11 44.39,-13.11 18.28,0 32.28,4.52 42.16,13.52 9.81,9.05 14.69,20.99 14.69,35.98 0,5.24 -0.47,10.82 -1.35,16.76 -0.94,5.94 -4.35,22.17 -10.35,48.63 -4.94,21.81 -7.46,37.1 -7.46,45.74 0,8.11 1.35,16.87 4.05,26.34l-40.33 0c-1.71,-6.76 -2.71,-13.82 -3.06,-21.05 -5.7,8.06 -12.35,14.23 -19.81,18.52 -7.47,4.29 -14.88,6.41 -22.29,6.41 -11.76,0 -21.58,-4.82 -29.57,-14.46 -7.94,-9.59 -11.94,-22.4 -11.94,-38.46 0,-18.46 4.71,-32.69 14.11,-42.62 9.35,-10 24.93,-16 46.92,-18.05 19.29,-1.94 32.22,-4.3 38.75,-7.06 2.18,-7 3.23,-12.58 3.23,-16.76 0,-5.41 -1.88,-9.82 -5.7,-13.17 -3.76,-3.35 -8.94,-5 -15.46,-5 -14.23,0 -22.93,6.83 -26.11,20.47zm37.4 45.86c-2.47,0.82 -5.71,1.53 -9.59,2.23 -18.52,2.71 -30.75,6.41 -36.63,11.06 -5.88,4.58 -8.82,10.81 -8.82,18.52 0,6.05 1.65,10.99 5,14.75 3.35,3.77 7.59,5.65 12.76,5.65 5.35,0 10.47,-1.59 15.4,-4.71 4.94,-3.11 8.88,-7.52 11.82,-13.17 2.94,-5.64 5.76,-14.93 8.53,-27.81l1.53 -6.52z"/>
  <path id="_5" class="fil2" d="M2161.71 3981.75l39.16 -7.76c3.47,10.41 7.82,17.64 13.17,21.7 5.29,4.11 12.29,6.17 21.05,6.17 8.47,0 15.23,-2 20.46,-6.05 5.17,-4 7.76,-8.76 7.76,-14.17 0,-3.65 -1.12,-6.77 -3.29,-9.29 -2.3,-2.41 -7.82,-5.35 -16.58,-8.76 -24.29,-9.65 -39.34,-17.29 -45.22,-22.93 -9.29,-9 -13.93,-20.82 -13.93,-35.34 0,-17.17 6.05,-31.28 18.22,-42.39 12.18,-11.12 28.87,-16.64 49.98,-16.64 35.81,0 56.56,15.99 62.33,47.97l-37.4 7.77c-4.35,-14.59 -14.81,-21.88 -31.28,-21.88 -7.82,0 -13.7,1.59 -17.75,4.77 -4,3.17 -6,7.23 -6,12.11 0,4.11 1.59,7.58 4.76,10.46 2.29,2.12 10.23,5.65 23.81,10.47 19.35,6.94 32.4,13.7 39.04,20.23 9.71,9.52 14.59,21.1 14.59,34.74 0,18.47 -6.24,33.81 -18.76,45.98 -12.52,12.17 -29.16,18.23 -49.86,18.23 -40.63,0 -65.38,-18.46 -74.26,-55.39z"/>
  <path id="_6" class="fil2" d="M2554.06 3957.06l-101.66 0 0 4.64c0,12.18 2.88,21.94 8.58,29.23 5.77,7.29 12.64,10.93 20.64,10.93 13.29,0 23.76,-8.46 31.46,-25.4l36.33 7.41c-7.11,17.82 -16.58,31.16 -28.4,39.98 -11.81,8.88 -25.1,13.29 -39.74,13.29 -19.52,0 -35.75,-7.58 -48.69,-22.75 -12.87,-15.23 -19.34,-35.81 -19.34,-61.86 0,-28.04 7.35,-52.8 22.05,-74.2 14.7,-21.34 35.22,-32.04 61.62,-32.04 17.81,0 32.22,6.76 43.27,20.22 11.12,13.47 16.64,32.93 16.64,58.39 0,12.05 -0.94,22.75 -2.76,32.16zm-34.46 -29.99l0.18 -4.82c0,-13.82 -2.53,-24.1 -7.64,-30.75 -5.06,-6.64 -11.65,-9.94 -19.76,-9.94 -8.23,0 -15.7,3.83 -22.4,11.53 -6.7,7.64 -11.17,18.99 -13.46,33.98l63.08 0z"/>
  <path id="_7" class="fil2" d="M2656.3 3951.42l40.57 -2.47c0.59,13.52 2.12,22.87 4.65,28.16 2.47,5.23 6.64,9.41 12.46,12.46 5.82,3 13.76,4.53 23.82,4.53 12.99,0 22.75,-2.88 29.34,-8.58 6.52,-5.76 9.82,-13.29 9.82,-22.58 0,-6.53 -1.83,-12.17 -5.41,-16.88 -3.59,-4.58 -13.35,-11.05 -29.17,-19.4 -20.11,-10.7 -33.51,-18.99 -40.16,-24.87 -6.64,-5.94 -11.75,-13.23 -15.4,-21.81 -3.65,-8.65 -5.47,-18.47 -5.47,-29.46 0,-22.52 6.59,-40.51 19.82,-53.92 13.17,-13.46 31.22,-20.16 54.03,-20.16 23.11,0 41.57,6.7 55.39,20.05 13.81,13.34 21.46,32.22 22.81,56.5l-40.57 2.12c-2.06,-24.93 -14.64,-37.4 -37.69,-37.4 -11.4,0 -19.81,2.35 -25.16,7.12 -5.35,4.76 -8.06,11.28 -8.06,19.58 0,7.52 2.59,13.69 7.7,18.4 5.06,4.82 15.11,11.23 30.11,19.28 19.87,10.47 33.1,18.58 39.63,24.35 6.52,5.82 11.52,12.93 15.05,21.34 3.47,8.47 5.23,17.99 5.23,28.63 0,23.87 -7.52,43.39 -22.58,58.45 -15.05,15.11 -34.92,22.63 -59.62,22.63 -18.58,0 -34.45,-3.94 -47.62,-11.87 -13.17,-7.94 -22.11,-18.47 -26.87,-31.69 -4.76,-13.18 -7,-27.35 -6.65,-42.51z"/>
  <path id="_8" class="fil2" d="M2886.26 3780.67l40.8 0 -7.76 44.8 -40.63 0 7.59 -44.8zm-11.94 69.5l40.69 0 -31.34 183.09 -40.81 0 31.46 -183.09z"/>
  <path id="_9" class="fil2" d="M2954.75 3850.17l39.04 0 -4.06 23.75c10,-10.41 19.11,-17.64 27.4,-21.64 8.29,-3.99 16.88,-5.99 25.7,-5.99 11.99,0 21.64,4.17 28.81,12.58 7.23,8.35 10.82,19.81 10.82,34.4 0,6.29 -1.47,18.4 -4.53,36.33l-17.87 103.66 -40.81 0 17.87 -103.72c2.65,-15.46 3.94,-24.75 3.94,-27.87 0,-6.46 -1.58,-11.46 -4.7,-14.93 -3.12,-3.47 -7.17,-5.18 -12.17,-5.18 -5.47,0 -11,2.18 -16.7,6.53 -8.17,6.17 -14.29,13.58 -18.23,22.11 -3.99,8.52 -7.99,24.58 -12.05,48.09l-13.11 74.97 -40.81 0 31.46 -183.09z"/>
  <path id="_10" class="fil2" d="M3143.43 3780.67l40.8 0 -7.76 44.8 -40.63 0 7.59 -44.8zm-11.94 69.5l40.69 0 -31.34 183.09 -40.81 0 31.46 -183.09z"/>
  <path id="_11" class="fil2" d="M3174.82 3981.75l39.16 -7.76c3.47,10.41 7.82,17.64 13.17,21.7 5.29,4.11 12.29,6.17 21.05,6.17 8.47,0 15.23,-2 20.46,-6.05 5.17,-4 7.76,-8.76 7.76,-14.17 0,-3.65 -1.12,-6.77 -3.29,-9.29 -2.3,-2.41 -7.82,-5.35 -16.58,-8.76 -24.29,-9.65 -39.34,-17.29 -45.22,-22.93 -9.29,-9 -13.93,-20.82 -13.93,-35.34 0,-17.17 6.05,-31.28 18.22,-42.39 12.18,-11.12 28.87,-16.64 49.98,-16.64 35.81,0 56.56,15.99 62.33,47.97l-37.4 7.77c-4.35,-14.59 -14.81,-21.88 -31.28,-21.88 -7.82,0 -13.7,1.59 -17.75,4.77 -4,3.17 -6,7.23 -6,12.11 0,4.11 1.59,7.58 4.76,10.46 2.29,2.12 10.23,5.65 23.81,10.47 19.35,6.94 32.4,13.7 39.04,20.23 9.71,9.52 14.59,21.1 14.59,34.74 0,18.47 -6.24,33.81 -18.76,45.98 -12.52,12.17 -29.16,18.23 -49.86,18.23 -40.63,0 -65.38,-18.46 -74.26,-55.39z"/>
  <path id="_12" class="fil2" d="M3349.1 3886.86l6.58 -36.69 21.05 0 5.12 -29.17 47.44 -34.63 -11.7 63.8 25.7 0 -6.23 36.69 -26.11 0 -14.23 76.55c-2.47,13.76 -3.7,21.75 -3.7,23.93 0,4.06 1.06,7.11 3.23,9.11 2.18,1.94 5.94,2.94 11.23,2.94 1.71,0 6.35,-0.41 13.94,-1.23l-6.71 36.57c-7.17,1.59 -14.4,2.41 -21.69,2.41 -14.11,0 -24.64,-3.17 -31.64,-9.58 -6.99,-6.41 -10.52,-15.76 -10.52,-28.11 0,-5.7 1.82,-18.7 5.53,-38.92l13.46 -73.67 -20.75 0z"/>
  <path id="_13" class="fil2" d="M3465.57 3850.17l38.63 0 -6.11 35.51c14.05,-26.28 29.4,-39.39 45.98,-39.39 5.76,0 11.99,1.7 18.81,5.17l-15.52 40.63c-3.71,-1.59 -7.59,-2.41 -11.64,-2.41 -6.35,0 -12.29,2.12 -17.88,6.35 -8.4,6.53 -14.87,15.11 -19.4,25.63 -4.53,10.53 -8.94,28.64 -13.35,54.33l-10.17 57.27 -40.8 0 31.45 -183.09z"/>
  <path id="_14" class="fil2" d="M3555.77 3957.18c0,-29.93 6.76,-55.33 20.28,-76.32 15.06,-23.05 36.81,-34.57 65.27,-34.57 21.34,0 38.33,7.23 51.03,21.63 12.64,14.47 18.99,34.58 18.99,60.39 0,30.28 -7.87,55.97 -23.63,77.08 -15.82,21.17 -36.46,31.75 -61.91,31.75 -20.76,0 -37.63,-7.17 -50.57,-21.52 -12.99,-14.29 -19.46,-33.81 -19.46,-58.44zm115.36 -35.22c0,-12 -2.82,-21.46 -8.47,-28.34 -5.64,-6.88 -12.82,-10.29 -21.46,-10.29 -7.29,0 -14.17,2.53 -20.58,7.52 -6.35,5.06 -11.93,13.82 -16.76,26.29 -4.76,12.46 -7.17,25.4 -7.17,38.8 0,13.64 2.94,24.23 8.82,31.75 5.88,7.59 13.11,11.35 21.81,11.35 10.94,0 20.23,-5.82 27.87,-17.52 10.65,-15.99 15.94,-35.87 15.94,-59.56z"/>
  <path id="_15" class="fil2" d="M3721.22 3981.75l39.16 -7.76c3.47,10.41 7.82,17.64 13.17,21.7 5.29,4.11 12.29,6.17 21.05,6.17 8.47,0 15.23,-2 20.46,-6.05 5.17,-4 7.76,-8.76 7.76,-14.17 0,-3.65 -1.12,-6.77 -3.29,-9.29 -2.3,-2.41 -7.82,-5.35 -16.58,-8.76 -24.29,-9.65 -39.34,-17.29 -45.22,-22.93 -9.29,-9 -13.93,-20.82 -13.93,-35.34 0,-17.17 6.05,-31.28 18.22,-42.39 12.18,-11.12 28.87,-16.64 49.98,-16.64 35.81,0 56.56,15.99 62.33,47.97l-37.4 7.77c-4.35,-14.59 -14.81,-21.88 -31.28,-21.88 -7.82,0 -13.7,1.59 -17.75,4.77 -4,3.17 -6,7.23 -6,12.11 0,4.11 1.59,7.58 4.76,10.46 2.29,2.12 10.23,5.65 23.81,10.47 19.35,6.94 32.4,13.7 39.04,20.23 9.71,9.52 14.59,21.1 14.59,34.74 0,18.47 -6.24,33.81 -18.76,45.98 -12.52,12.17 -29.16,18.23 -49.86,18.23 -40.63,0 -65.38,-18.46 -74.26,-55.39z"/>
 </g>
</svg>
